<svg id="Capa_1" enable-background="new 0 0 512 512" viewBox="0 0 512 512" xmlns="http://www.w3.org/2000/svg"><g><path d="m439.818 329.666-27.103-6.763-37.781-36.501c.074-.145.069-.136.143-.28l46.193 8.249c5.555.992 11.266.642 16.658-1.022l27.288-8.418c1.771-.546 3.649-.65 5.47-.303l38.264 7.305c2.697.515 4.202-3.002 1.967-4.597l-31.431-22.442c-7.24-5.169-16.16-7.423-24.986-6.314l-27.716 3.484-48.367-20.368c.018-.177.017-.166.035-.343l46.001-8.985c5.538-1.082 10.737-3.472 15.165-6.97l22.404-17.707c1.454-1.149 3.168-1.925 4.991-2.258l38.319-7.01c2.701-.494 2.834-4.317.174-4.998l-37.415-9.572c-8.618-2.205-17.75-1.084-25.58 3.139l-23.509 12.681c-.705.38-1.498.568-2.298.545l-51.295-1.486c-.042-.155-.04-.145-.082-.301l39.699-25.027c4.773-3.009 8.758-7.116 11.622-11.977l14.495-24.605c.941-1.597 2.259-2.939 3.838-3.909l33.199-20.379c2.34-1.437 1.083-5.049-1.643-4.723l-38.347 4.59c-8.832 1.057-16.943 5.401-22.718 12.167l-17.341 20.317c-.52.609-1.191 1.071-1.946 1.339l-48.324 17.128c-.104-.14-.097-.131-.201-.272l27.949-37.64c3.364-4.53 5.596-9.799 6.511-15.367l4.628-28.179c.3-1.829 1.044-3.556 2.167-5.031l23.595-30.996c1.663-2.185-.814-5.1-3.238-3.81l-34.099 18.133c-7.854 4.177-13.848 11.157-16.789 19.553l-8.831 25.209c-.265.756-.724 1.429-1.331 1.951l-38.897 33.449c-.14-.088-.131-.083-.27-.171l12.473-45.226c1.5-5.44 1.678-11.159.52-16.682l-5.864-27.948c-.381-1.814-.311-3.694.203-5.474l10.805-37.426c.762-2.638-2.601-4.461-4.396-2.383l-25.246 29.226c-5.815 6.732-8.883 15.406-8.592 24.297l.872 26.697c.026.801-.159 1.594-.537 2.3l-24.174 45.216c-.171-.034-.16-.032-.331-.065l-4.704-46.649c-.566-5.614-2.466-11.012-5.541-15.742l-15.564-23.943c-1.01-1.554-1.624-3.332-1.788-5.178l-3.445-38.802c-.243-2.735-4.037-3.22-4.96-.634l-12.984 36.373c-2.991 8.378-2.717 17.574.765 25.76l10.457 24.579c.314.737.428 1.544.331 2.339l-6.203 50.857c-.182.032-.171.03-.353.062l-21.22-41.766c-2.556-5.03-6.277-9.377-10.854-12.677l-23.162-16.703c-1.503-1.084-2.718-2.52-3.538-4.183l-17.229-34.938c-1.215-2.463-4.928-1.544-4.854 1.201l1.033 38.607c.238 8.892 3.815 17.369 10.019 23.744l18.63 19.142c.559.574.956 1.285 1.153 2.061l12.613 49.764c-.132.08-.124.075-.256.155l-34.954-31.352c-4.2-3.767-9.241-6.476-14.7-7.9l-27.632-7.208c-1.793-.468-3.445-1.368-4.81-2.622l-28.687-26.355c-2.022-1.858-5.153.34-4.093 2.873l14.909 35.627c3.434 8.206 9.832 14.818 17.92 18.521l24.287 11.119c.728.333 1.356.853 1.82 1.506l29.723 41.825c-.099.128-.093.12-.192.248l-43.891-16.596c-5.278-1.996-10.956-2.701-16.562-2.057l-28.37 3.26c-1.841.212-3.706-.031-5.432-.708l-36.27-14.211c-2.557-1.002-4.682 2.178-2.779 4.158l26.772 27.835c6.167 6.411 14.521 10.266 23.401 10.797l26.663 1.595c.8.048 1.573.305 2.241.747l42.778 28.233c-.051.171-.048.161-.098.332l-46.867.379c-5.642.046-11.192 1.439-16.187 4.065l-25.277 13.289c-1.641.862-3.468 1.31-5.321 1.303l-38.954-.15c-2.746-.011-3.579 3.723-1.089 4.881l35.019 16.284c8.066 3.751 17.249 4.327 25.721 1.615l25.439-8.145c.763-.244 1.577-.283 2.359-.113l50.141 10.885c.013.163.013.153.026.315l-43.613 17.303c-5.245 2.081-9.916 5.385-13.625 9.638l-18.769 21.522c-1.218 1.397-2.76 2.474-4.491 3.137l-36.378 13.932c-2.564.982-1.993 4.764.747 4.944l38.537 2.534c8.876.584 17.647-2.196 24.567-7.786l20.779-16.784c.623-.503 1.368-.834 2.159-.958l50.707-7.966c.068.141.064.132.132.273l-34.433 31.904c-4.139 3.835-7.301 8.604-9.223 13.909l-9.727 26.85c-.631 1.743-1.68 3.304-3.055 4.547l-28.889 26.133c-2.036 1.842-.137 5.162 2.483 4.34l36.85-11.558c8.488-2.662 15.662-8.422 20.096-16.135l13.313-23.157c.399-.694.974-1.272 1.667-1.673l44.4-25.743c.116.108.109.102.226.21l-20.581 42.184c-2.474 5.071-3.7 10.66-3.576 16.301l.629 28.55c.041 1.853-.373 3.688-1.206 5.344l-17.498 34.804c-1.233 2.453 1.737 4.863 3.883 3.15l30.187-24.09c6.953-5.549 11.562-13.512 12.91-22.305l4.048-26.403c.121-.792.449-1.538.95-2.163l32.057-39.986c.167.067.157.063.324.13l-3.946 46.696c-.475 5.623.401 11.277 2.554 16.493l10.9 26.395c.707 1.713.984 3.574.806 5.418l-3.744 38.775c-.264 2.733 3.377 3.907 4.759 1.535l19.446-33.368c4.479-7.686 5.9-16.776 3.981-25.462l-5.763-26.082c-.173-.782-.137-1.596.105-2.36l15.465-48.924c.163.002.152.002.315.003l13.206 45.026c1.588 5.415 4.447 10.371 8.34 14.456l19.698 20.675c1.279 1.342 2.209 2.977 2.709 4.761l10.516 37.509c.741 2.644 4.56 2.424 4.992-.288l6.079-38.139c1.4-8.785-.558-17.774-5.486-25.181l-14.796-22.239c-.444-.667-.704-1.439-.755-2.238l-3.253-51.221c.148-.056.139-.052.288-.108l28.588 37.227c3.437 4.475 7.893 8.064 12.998 10.467l25.837 12.163c1.677.789 3.135 1.978 4.246 3.461l23.356 31.177c1.646 2.198 5.128.613 4.551-2.072l-8.109-37.759c-1.868-8.698-6.942-16.373-14.212-21.499l-21.83-15.392c-.655-.462-1.176-1.087-1.512-1.814l-21.511-46.531c.132-.117.123-.11.255-.227l40.052 24.353c4.821 2.932 10.274 4.668 15.902 5.065l28.486 2.008c1.849.13 3.638.712 5.21 1.694l33.041 20.635c2.329 1.455 5.003-1.281 3.495-3.576l-21.201-32.28c-4.88-7.437-12.384-12.762-21.015-14.915z" fill="#fea95c"/><path d="m439.818 329.666-25.916-6.467c-.777-.194-1.49-.589-2.066-1.146l-36.902-35.652c.074-.145.069-.136.143-.28l46.193 8.249c5.555.992 11.266.642 16.658-1.022l27.288-8.418c1.771-.546 3.649-.65 5.47-.303l38.264 7.305c2.697.515 4.202-3.002 1.967-4.597l-31.431-22.442c-7.24-5.169-16.16-7.423-24.986-6.314l-26.503 3.332c-.795.1-1.602-.011-2.34-.322l-47.24-19.893c.018-.177.017-.166.035-.343l46.001-8.985c5.538-1.082 10.737-3.472 15.165-6.97l22.404-17.707c1.454-1.149 3.168-1.925 4.991-2.258l38.319-7.01c2.701-.494 2.834-4.317.174-4.998l-37.415-9.572c-8.618-2.205-17.75-1.084-25.58 3.139l-23.509 12.681c-.705.38-1.498.568-2.298.545l-51.295-1.486c-.042-.155-.04-.145-.082-.301l39.699-25.027c4.773-3.009 8.758-7.116 11.622-11.977l14.495-24.605c.941-1.597 2.259-2.939 3.838-3.909l33.199-20.379c2.34-1.437 1.083-5.049-1.643-4.723l-38.347 4.59c-8.832 1.057-16.943 5.401-22.718 12.167l-17.341 20.317c-.52.609-1.191 1.071-1.946 1.339l-48.324 17.128c-.104-.14-.097-.131-.201-.272l27.949-37.64c3.364-4.53 5.596-9.799 6.511-15.367l4.628-28.179c.3-1.829 1.044-3.556 2.167-5.031l23.595-30.996c1.663-2.185-.814-5.1-3.238-3.81l-34.099 18.133c-7.854 4.177-13.848 11.157-16.789 19.553l-8.831 25.209c-.265.756-.724 1.429-1.331 1.951l-38.897 33.449c-.14-.088-.131-.083-.27-.171l12.473-45.226c1.5-5.44 1.678-11.159.52-16.682l-5.864-27.948c-.381-1.814-.311-3.694.203-5.474l10.805-37.426c.762-2.638-2.601-4.461-4.396-2.383l-25.246 29.226c-5.815 6.732-8.883 15.406-8.592 24.297l.872 26.697c.026.801-.159 1.594-.537 2.3l-24.174 45.216c-.171-.034-.16-.032-.331-.065l-4.704-46.649c-.566-5.614-2.466-11.012-5.541-15.742l-15.564-23.943c-1.01-1.554-1.624-3.332-1.788-5.178l-3.445-38.802c-.243-2.735-4.037-3.22-4.96-.634l-12.984 36.373c-2.991 8.378-2.717 17.574.765 25.76l10.457 24.579c.314.737.428 1.544.331 2.339l-6.203 50.857c-.182.032-.171.03-.353.062l-21.22-41.766c-2.556-5.03-6.277-9.377-10.854-12.677l-23.162-16.703c-1.503-1.084-2.718-2.52-3.538-4.183l-17.229-34.938c-1.215-2.463-4.928-1.544-4.854 1.201l1.033 38.607c.238 8.892 3.815 17.369 10.019 23.744l18.63 19.142c.559.574.956 1.285 1.153 2.061l12.613 49.764c-.132.08-.124.075-.256.155l-34.954-31.352c-4.2-3.767-9.241-6.476-14.7-7.9l-27.632-7.208c-1.793-.468-3.445-1.368-4.81-2.622l-28.687-26.355c-2.022-1.858-5.153.34-4.093 2.873l14.909 35.627c3.434 8.206 9.832 14.818 17.92 18.521l24.287 11.119c.728.333 1.356.853 1.82 1.506l29.723 41.825c-.099.128-.093.12-.192.248l-43.891-16.596c-5.278-1.996-10.956-2.701-16.562-2.057l-28.37 3.26c-1.841.212-3.706-.031-5.432-.708l-36.27-14.211c-2.557-1.002-4.682 2.178-2.779 4.158l26.772 27.835c6.167 6.411 14.521 10.266 23.401 10.797l26.663 1.595c.8.048 1.573.305 2.241.747l42.778 28.233c-.051.171-.048.161-.098.332l-46.867.379c-5.642.046-11.192 1.439-16.187 4.065l-25.277 13.289c-1.641.862-3.468 1.31-5.321 1.303l-38.954-.15c-2.746-.011-3.579 3.723-1.089 4.881l35.019 16.284c8.066 3.751 17.249 4.327 25.721 1.615l25.439-8.145c.763-.244 1.577-.283 2.359-.113l50.141 10.885c.013.163.013.153.026.315l-43.613 17.303c-5.245 2.081-9.916 5.385-13.625 9.638l-18.769 21.522c-1.218 1.397-2.76 2.474-4.491 3.137l-36.378 13.932c-2.564.982-1.993 4.764.747 4.944l38.537 2.534c8.876.584 17.647-2.196 24.567-7.786l20.779-16.784c.623-.503 1.368-.834 2.159-.958l50.707-7.966c.068.141.064.132.132.273l-34.433 31.904c-4.139 3.835-7.301 8.604-9.223 13.909l-9.727 26.85c-.631 1.743-1.68 3.304-3.055 4.547l-28.889 26.133c-2.036 1.842-.137 5.162 2.483 4.34l36.85-11.558c8.488-2.662 15.662-8.422 20.096-16.135l13.313-23.157c.399-.694.974-1.272 1.667-1.673l44.4-25.743c.116.108.109.102.226.21l-20.581 42.184c-2.474 5.071-3.7 10.66-3.576 16.301l.629 28.55c.041 1.853-.373 3.688-1.206 5.344l-17.498 34.804c-1.233 2.453 1.737 4.863 3.883 3.15l30.187-24.09c6.953-5.549 11.562-13.512 12.91-22.305l4.048-26.403c.121-.792.449-1.538.95-2.163l32.057-39.986c.167.067.157.063.324.13l-3.946 46.696c-.475 5.623.401 11.277 2.554 16.493l10.9 26.395c.707 1.713.984 3.574.806 5.418l-3.744 38.775c-.264 2.733 3.377 3.907 4.759 1.535l19.446-33.368c4.479-7.686 5.9-16.776 3.981-25.462l-5.763-26.082c-.173-.782-.137-1.596.105-2.36l15.465-48.924c.163.002.152.002.315.003l13.206 45.026c1.588 5.415 4.447 10.371 8.34 14.456l19.698 20.675c1.279 1.342 2.209 2.977 2.709 4.761l10.516 37.509c.741 2.644 4.56 2.424 4.992-.288l6.079-38.139c1.4-8.785-.558-17.774-5.486-25.181l-14.796-22.239c-.444-.667-.704-1.439-.755-2.238l-3.253-51.221c.148-.056.139-.052.288-.108l28.588 37.227c3.437 4.475 7.893 8.064 12.998 10.467l25.837 12.163c1.677.789 3.135 1.978 4.246 3.461l23.356 31.177c1.646 2.198 5.128.613 4.551-2.072l-8.109-37.759c-1.868-8.698-6.942-16.373-14.212-21.499l-21.83-15.392c-.655-.462-1.176-1.087-1.512-1.814l-21.511-46.531c.132-.117.123-.11.255-.227l40.052 24.353c4.821 2.932 10.274 4.668 15.902 5.065l28.486 2.008c1.849.13 3.638.712 5.21 1.694l33.041 20.635c2.329 1.455 5.003-1.281 3.495-3.576l-21.201-32.28c-4.88-7.437-12.384-12.762-21.015-14.915z" fill="#fea95c"/><g fill="#fe9738"><path d="m300.06 19.78 12.738-14.745c1.795-2.078 5.158-.255 4.396 2.383l-5.771 19.991c-3.723-2.643-7.511-5.179-11.363-7.629z"/><path d="m347.301 448.067c.481 3.424.449 6.934-.107 10.401l-6.079 38.143c-.432 2.712-4.251 2.932-4.992.288l-8.649-30.855c6.901-5.672 13.514-11.675 19.827-17.977z"/><path d="m402.516 45.86-23.601 31.01c-1.121 1.473-1.864 3.197-2.165 5.023l-1.403 8.508c-5.939-8.164-12.337-15.986-19.132-23.434 2.579-2.707 5.596-4.997 8.956-6.784l34.107-18.134c2.424-1.288 4.901 1.626 3.238 3.811z"/><path d="m414.659 412.146 8.108 37.757c.577 2.685-2.905 4.27-4.551 2.072l-23.351-31.172c-1.111-1.483-2.569-2.671-4.245-3.461l-12.513-5.892c5.746-8.143 11.043-16.607 15.879-25.359l6.463 4.558c7.266 5.126 12.348 12.798 14.21 21.497z"/><path d="m428.195 112.401 38.338-4.592c2.727-.327 3.984 3.286 1.644 4.723l-33.199 20.381c-1.58.97-2.898 2.313-3.839 3.91l-14.489 24.606c-.792 1.338-1.659 2.622-2.621 3.831-3.938-11.781-8.646-23.209-14.081-34.219l5.521-6.474c5.777-6.763 13.888-11.107 22.726-12.166z"/><path d="m460.841 344.574 21.197 32.288c1.507 2.295-1.167 5.03-3.496 3.576l-33.036-20.639c-1.573-.983-3.362-1.564-5.212-1.695l-28.492-2.006c-1.134-.075-2.268-.214-3.381-.407 4.077-10.133 7.565-20.566 10.433-31.255l20.962 5.232c8.634 2.152 16.135 7.48 21.025 14.906z"/><path d="m468.096 183.857 37.41 9.57c2.66.681 2.527 4.503-.174 4.998l-38.322 7.009c-1.824.334-3.538 1.109-4.992 2.259l-22.396 17.702c-3.627 2.868-7.779 4.997-12.198 6.26-.878-11.546-2.461-22.888-4.719-33.984l19.806-10.679c7.833-4.226 16.961-5.339 25.585-3.135z"/><path d="m479.481 264.89 31.433 22.445c2.235 1.596.73 5.112-1.968 4.597l-38.258-7.305c-1.821-.348-3.7-.244-5.472.303l-27.284 8.423c-4.173 1.284-8.539 1.787-12.872 1.477 1.637-10.786 2.664-21.775 3.017-32.925l26.419-3.328c8.828-1.103 17.752 1.144 24.985 6.313z"/></g><path d="m362.605 254.853c0 67.435-102.486 117.851-102.486 117.851l-28.944 1.5c-55.071-11.82-96.254-60.749-96.254-119.351 0-58.566 41.234-107.492 96.254-119.351l25.848 1.022c.001 0 105.582 50.894 105.582 118.329z" fill="#ffe177"/><path d="m257.024 132.751c-8.869 0-17.515.954-25.847 2.751 55.019 11.859 96.254 60.786 96.254 119.351s-41.235 107.491-96.254 119.351c8.333 1.796 16.978 2.751 25.847 2.751 67.435 0 122.102-54.667 122.102-122.101s-54.668-122.103-122.102-122.103z" fill="#ffd15b"/><g><g><path d="m257.023 314.515c-6.391 0-12.781-.935-19.127-2.805-4.237-1.249-6.66-5.695-5.411-9.932 1.25-4.237 5.694-6.661 9.933-5.411 9.827 2.895 19.381 2.896 29.212-.001 4.236-1.248 8.683 1.175 9.933 5.411 1.249 4.237-1.175 8.684-5.411 9.933-6.347 1.87-12.739 2.805-19.129 2.805z" fill="#fea95c"/></g><g><path d="m324.664 228.927c-.373-.235-.725-.512-1.056-.832-10.546-9.96-23.055-12.423-31.704-12.733-4.809-.171-8.894 3.316-9.565 8.115l-5.225 37.782c-1.376 9.971-10.013 17.499-20.091 17.499-10.067 0-18.704-7.529-20.091-17.499l-5.225-37.782c-.672-4.799-4.767-8.275-9.565-8.115-8.648.309-21.157 2.773-31.704 12.733-3.21 3.029-8.275 2.89-11.304-.32-3.039-3.21-2.89-8.275.32-11.314 14.172-13.372 30.722-16.668 42.111-17.083 13.063-.448 24.186 8.958 25.977 21.904l5.236 37.782c.288 2.111 2.111 3.7 4.244 3.7s3.956-1.589 4.244-3.7l5.236-37.782c1.792-12.946 12.957-22.351 25.977-21.904 6.771.245 15.356 1.514 24.186 5.3 6.036 2.591 14.113 15.299 14.113 15.299s-2.926 11.082-6.114 8.95z" fill="#fea95c"/></g></g><path d="m334.922 227.775c-2.719 2.879-7.07 3.284-10.259 1.152-1.823-8.446-4.511-16.561-7.998-24.25 6.036 2.591 12.178 6.356 17.926 11.784 3.211 3.039 3.36 8.093.331 11.314z" fill="#fe9738"/><g><g><g><path d="m318.882 256.402h-17.224c-4.418 0-7.998-3.581-7.998-7.998s3.58-7.998 7.998-7.998h17.224c4.418 0 7.998 3.581 7.998 7.998s-3.581 7.998-7.998 7.998z" fill="#fe9738"/></g></g><g><g><path d="m212.389 256.402h-17.225c-4.418 0-7.998-3.581-7.998-7.998s3.58-7.998 7.998-7.998h17.225c4.418 0 7.998 3.581 7.998 7.998s-3.58 7.998-7.998 7.998z" fill="#fe9738"/></g></g></g></g><g/><g/><g/><g/><g/><g/><g/><g/><g/><g/><g/><g/><g/><g/><g/></svg>