<svg width="513" height="513" viewBox="0 0 513 513" fill="none" xmlns="http://www.w3.org/2000/svg">
<g clip-path="url(#clip0_35_138)">
<path d="M24.649 320.093C24.485 319.452 24.324 318.81 24.165 318.167C23.847 316.88 7.35 315.589 7.051 314.294C2.765 295.721 0.5 276.375 0.5 256.5C0.5 115.115 115.115 0.5 256.5 0.5C397.885 0.5 512.5 115.115 512.5 256.5C512.5 274.605 510.62 292.271 507.046 309.313C506.793 310.522 487.066 311.727 486.796 312.929C486.256 315.33 485.682 317.718 485.075 320.093H24.649Z" fill="#ACC1D3" fill-opacity="0.99"/>
<path d="M454.84 256.5C454.84 366.04 366.04 454.84 256.5 454.84C146.96 454.84 58.16 366.04 58.16 256.5C58.16 146.96 146.96 58.16 256.5 58.16C366.04 58.16 454.84 146.96 454.84 256.5Z" fill="#ACC1D3" fill-opacity="0.99"/>
<path d="M89.132 146.053H45.926C34.902 146.053 25.965 137.116 25.965 126.092V126.014C25.965 114.99 34.902 106.053 45.926 106.053H89.132C100.156 106.053 109.093 114.99 109.093 126.014V126.092C109.093 137.117 100.156 146.053 89.132 146.053ZM0.5 72.314V72.392C0.5 83.416 9.437 92.353 20.461 92.353H220C231.024 92.353 239.961 83.416 239.961 72.392V72.314C239.961 61.29 231.024 52.353 220 52.353H20.461C9.437 52.353 0.5 61.289 0.5 72.314Z" fill="white" fill-opacity="0.99"/>
<path d="M44.531 400.089C27.118 374.434 14.241 345.452 7.05103 314.294C20.494 308.121 34.754 303.536 49.241 300.945C113.573 289.437 125.104 327.467 202.703 334.033C321.075 344.049 385.883 263.309 470.716 291.336C481.099 294.767 495.165 300.944 507.045 309.313C499.294 346.27 483.572 380.295 461.761 409.508C460.619 411.038 454.976 413.246 453.328 412.899C378.364 397.125 310.872 461.201 202.45 445.563C125.372 434.445 116.096 395.803 51.199 403.508C49.884 403.664 45.427 401.41 44.531 400.089Z" fill="#EA9810" fill-opacity="0.99"/>
<path d="M166.091 359.459C162.181 359.459 158.885 356.427 158.616 352.468L135.186 8.50997C134.904 4.37697 138.026 0.798971 142.159 0.516971C146.303 0.236971 149.87 3.35797 150.151 7.48997L173.581 351.448C173.863 355.581 170.741 359.159 166.608 359.441C166.435 359.453 166.262 359.459 166.091 359.459ZM153.988 400.92C157.925 399.633 160.073 395.398 158.786 391.461L51.659 63.772C50.371 59.835 46.138 57.688 42.2 58.974C38.263 60.261 36.115 64.496 37.402 68.433L144.529 396.121C145.563 399.284 148.5 401.292 151.656 401.292C152.429 401.293 153.214 401.173 153.988 400.92Z" fill="#9A4916" fill-opacity="0.99"/>
<path d="M156.4 222.241C151.187 222.241 146.793 218.199 146.433 212.92L132.691 11.18C132.316 5.66999 136.478 0.898991 141.988 0.522991C147.492 0.156991 152.269 4.31099 152.645 9.81999L166.387 211.561C166.762 217.071 162.6 221.842 157.09 222.218C156.859 222.234 156.629 222.241 156.4 222.241ZM111.146 269.87C116.396 268.154 119.26 262.507 117.543 257.258L54.035 62.995C52.318 57.745 46.673 54.879 41.423 56.598C36.173 58.314 33.309 63.961 35.026 69.21L98.534 263.472C99.913 267.689 103.828 270.368 108.037 270.368C109.066 270.368 110.114 270.207 111.146 269.87Z" fill="#9A4916" fill-opacity="0.99"/>
<path d="M402.87 359.3C414.91 385.533 404.166 411.799 402.87 414.835C380.626 466.92 296.465 475.539 247.371 470.37C178.054 463.072 100.095 420.016 102.979 381.514C103.777 370.858 110.652 362.108 119.68 354.712C120.97 353.655 201.126 397.137 247.371 402.005C294.303 406.946 373.282 399.287 399.579 353.099C400.793 355.103 401.892 357.17 402.87 359.3Z" fill="#321B25" fill-opacity="0.99"/>
<path d="M401.425 356.364C377.192 405.65 295.459 413.816 247.371 408.753C198.824 403.642 146.039 380.991 119.756 354.65C128.171 347.773 138.442 342.067 147.408 337.086C150.281 335.49 153.208 333.954 156.184 332.478C154.613 331.853 153.038 331.14 151.469 330.327C148.594 328.837 130.807 319.624 127.039 302.593C124.447 290.878 129.386 279.522 136.268 270.084C145.353 257.624 165.654 256.415 168.65 254.224C186.348 241.283 199.851 238.446 240.48 237.123C261.113 236.451 338.323 227.991 375.969 251.501C378.718 253.218 389.649 248.818 391.845 250.826C396.454 255.042 399.749 259.924 401.322 265.575C406.694 284.87 389.758 305.055 386.489 308.952C380.804 315.728 374.434 320.695 367.406 324.3C382.579 332.398 394.44 343.083 401.425 356.364Z" fill="#321B25" fill-opacity="0.99"/>
<path d="M392.714 251.644C390.021 255.717 387.543 258.672 386.488 259.929C349.094 304.499 282.043 270.808 193.474 285.979C187.204 287.053 169.017 290.395 151.468 281.305C149.727 280.403 142.519 276.669 136.267 270.083C145.352 257.623 157.821 248.506 160.817 246.315C178.515 233.374 200.086 226.512 240.715 225.188C263.058 224.46 361.355 221.258 392.714 251.644Z" fill="#5D3C4F" fill-opacity="0.99"/>
<path d="M354.37 186.754C355.342 186.613 356.302 187.08 356.777 187.94C363.762 200.597 366.68 213.196 361.843 221.553C355.029 233.326 338.582 226.73 272.987 232.66C231.67 236.395 221.928 240.483 206.345 232.66C191.146 225.03 177.35 209.565 173.193 194.114C172.904 193.042 173.759 192.009 174.866 192.094C230.243 196.344 303.445 194.128 354.37 186.754Z" fill="#321B25" fill-opacity="0.99"/>
<path d="M173.232 194.263C171.633 188.409 171.414 182.555 173.023 177.125C174.849 170.96 179.533 163.651 195.237 154.911C223.137 139.384 284.075 120.312 328.522 154.911C339.66 163.582 350.31 176.049 357.035 188.411C310.149 197.615 227.093 200.277 173.232 194.263Z" fill="#321B25" fill-opacity="0.99"/>
<path d="M320.528 105.075C321.861 104.716 323.282 105.172 324.188 106.214C331.248 114.336 334.877 122.691 333.06 129.301C325.118 158.192 210.108 164.765 195.729 133.238C192.743 126.691 194.345 119.046 197.257 112.322C198.368 109.756 201.135 108.351 203.88 108.883C238.311 115.557 288.77 113.62 320.528 105.075Z" fill="#5D3C4F" fill-opacity="0.99"/>
<path d="M197.241 112.36C201.103 103.423 207.289 96.1069 208.113 95.1529C229.52 70.3719 265.588 75.9399 272.276 77.1439C293.134 80.8999 313.441 93.5659 324.636 106.735C297.784 117.941 225.326 121.243 197.241 112.36Z" fill="#5D3C4F" fill-opacity="0.99"/>
<path d="M314.615 61.572C315.139 61.494 315.577 61.986 315.412 62.49C309.598 80.232 276.698 99.256 249.669 90.554C230.84 84.492 212.284 64.147 216.348 46.126C216.413 45.838 216.483 45.553 216.558 45.272C216.719 44.669 217.479 44.499 217.884 44.974C230.214 59.455 285.624 65.894 314.615 61.572Z" fill="#321B25" fill-opacity="0.99"/>
<path d="M193.741 275.741C238.39 265.947 368.526 396.083 358.733 440.732C314.084 450.526 265.615 438.123 230.982 403.491C196.349 368.859 183.947 320.39 193.741 275.741Z" fill="#63784D" fill-opacity="0.99"/>
<path d="M193.741 275.741C238.39 265.947 286.859 278.35 321.492 312.982C356.125 347.614 368.527 396.083 358.733 440.733C314.083 450.526 183.947 320.39 193.741 275.741Z" fill="#39412D" fill-opacity="0.99"/>
<path d="M279.208 366.77C262.12 349.682 248.655 331.014 239.242 312.454C257.802 321.867 276.47 335.332 293.558 352.42C310.646 369.508 324.111 388.176 333.524 406.736C314.965 397.323 296.297 383.858 279.208 366.77Z" fill="#63784D" fill-opacity="0.99"/>
<path d="M302.268 440.732C292.474 396.083 304.877 347.614 339.509 312.981C374.141 278.348 422.61 265.946 467.26 275.74C477.053 320.39 346.917 450.526 302.268 440.732Z" fill="#63784D" fill-opacity="0.99"/>
<path d="M430.018 403.491C395.386 438.123 346.917 450.526 302.267 440.732C292.473 396.083 422.609 265.947 467.259 275.741C477.053 320.39 464.651 368.859 430.018 403.491Z" fill="#39412D" fill-opacity="0.99"/>
<path d="M358.816 370.587C375.904 353.499 395.134 340.596 414.681 332.17C406.255 351.717 393.353 370.947 376.264 388.035C359.176 405.123 339.946 418.026 320.399 426.452C328.825 406.905 341.728 387.675 358.816 370.587Z" fill="#63784D" fill-opacity="0.99"/>
<path d="M453.913 199.723C435.921 203.67 416.39 198.672 402.434 184.716C388.478 170.76 383.481 151.229 387.427 133.237C405.42 129.291 457.86 181.731 453.913 199.723ZM340.213 89.342C336.266 71.35 341.264 51.819 355.22 37.863C369.176 23.907 388.707 18.91 406.699 22.856C410.645 40.849 358.205 93.289 340.213 89.342Z" fill="#BA042D" fill-opacity="0.99"/>
<path d="M438.907 148.244C452.863 162.2 457.86 181.731 453.914 199.723C435.922 203.67 383.482 151.229 387.428 133.237C405.42 129.291 424.951 134.288 438.907 148.244ZM391.692 74.3349C377.736 88.2909 358.205 93.288 340.213 89.342C336.266 71.35 388.707 18.91 406.699 22.856C410.645 40.849 405.647 60.38 391.692 74.3349Z" fill="#E1504E" fill-opacity="0.99"/>
<path d="M251.403 505.398C248.416 505.398 245.441 505.346 242.478 505.245C186.776 483.714 142.168 457.237 101.654 414.806C96.824 409.748 102.145 401.668 108.74 403.995C134.868 413.217 147.795 430.648 192 437.092C275.221 449.225 296.769 397.263 386.6 398.172C408.143 398.39 435.178 401.665 461.761 409.507C420.29 465.05 356.805 503.196 284.234 511.014C275.125 511.996 260.775 505.398 251.403 505.398Z" fill="#EFDB61" fill-opacity="0.99"/>
<path d="M287.666 510.622C277.45 511.862 267.05 512.5 256.5 512.5C168.333 512.5 90.575 467.929 44.531 400.089C54.806 398.507 65.1 397.848 75.242 398.172C89.76 398.636 100.612 401.004 109.849 404.393C150.554 461.81 214.328 501.721 287.666 510.622Z" fill="#F4D009" fill-opacity="0.99"/>
<path d="M82.901 320.093C77.378 320.093 72.901 324.57 72.901 330.093C72.901 335.616 77.378 340.093 82.901 340.093C88.424 340.093 92.901 335.616 92.901 330.093C92.901 324.57 88.424 320.093 82.901 320.093ZM62.901 358.237C57.378 358.237 52.901 362.714 52.901 368.237C52.901 373.76 57.378 378.237 62.901 378.237C68.424 378.237 72.901 373.76 72.901 368.237C72.901 362.714 68.424 358.237 62.901 358.237Z" fill="#F4D009" fill-opacity="0.99"/>
<path d="M135.168 438.042C129.645 438.042 125.168 442.519 125.168 448.042C125.168 453.565 129.645 458.042 135.168 458.042C140.691 458.042 145.168 453.565 145.168 448.042C145.168 442.519 140.691 438.042 135.168 438.042ZM82.901 429.415C77.378 429.415 72.901 433.892 72.901 439.415C72.901 444.938 77.378 449.415 82.901 449.415C88.424 449.415 92.901 444.938 92.901 439.415C92.901 433.892 88.424 429.415 82.901 429.415ZM328.158 438.042C322.635 438.042 318.158 442.519 318.158 448.042C318.158 453.565 322.635 458.042 328.158 458.042C333.681 458.042 338.158 453.565 338.158 448.042C338.158 442.519 333.681 438.042 328.158 438.042ZM302.439 463.761C296.916 463.761 292.439 468.238 292.439 473.761C292.439 479.284 296.916 483.761 302.439 483.761C307.962 483.761 312.439 479.284 312.439 473.761C312.439 468.239 307.962 463.761 302.439 463.761ZM404.681 458.042C399.158 458.042 394.681 462.519 394.681 468.042C394.681 473.565 399.158 478.042 404.681 478.042C410.204 478.042 414.681 473.565 414.681 468.042C414.681 462.519 410.204 458.042 404.681 458.042Z" fill="#EA9810" fill-opacity="0.99"/>
<path d="M478.777 97.117C478.777 104.919 465.647 111.245 449.45 111.245C433.253 111.245 420.123 104.92 420.123 97.117C420.123 89.314 478.777 89.315 478.777 97.117Z" fill="#E1504E" fill-opacity="0.99"/>
<path d="M478.777 97.117C478.777 104.919 420.124 104.919 420.124 97.117C420.124 89.315 433.254 82.989 449.451 82.989C465.647 82.99 478.777 89.315 478.777 97.117Z" fill="#E1504E" fill-opacity="0.99"/>
<path d="M316.311 57.232C316.304 58.97 315.987 60.751 315.394 62.544C290.244 69.661 221.983 62.532 216.551 45.299C220.119 31.846 235.097 25.301 238.562 23.91C269.816 11.364 316.391 35.916 316.311 57.232Z" fill="#321B25" fill-opacity="0.99"/>
</g>
<defs>
<clipPath id="clip0_35_138">
<rect width="512" height="512" fill="white" transform="translate(0.5 0.5)"/>
</clipPath>
</defs>
</svg>
