<svg width="513" height="513" viewBox="0 0 513 513" fill="none" xmlns="http://www.w3.org/2000/svg">
<g clip-path="url(#clip0_35_470)">
<path d="M455.46 410.5C484.433 370.259 501.5 320.873 501.5 267.5C501.5 132.19 391.81 22.5 256.5 22.5C121.19 22.5 11.5 132.19 11.5 267.5C11.5 320.873 28.567 370.259 57.54 410.5H455.46Z" fill="#ACC1D3" fill-opacity="0.99"/>
<path d="M424.206 60.902C428.531 64.337 429.252 70.627 425.817 74.952L401.876 105.093C398.441 109.418 392.151 110.139 387.826 106.704L357.685 82.763C353.36 79.328 352.639 73.038 356.074 68.713C372.731 47.742 403.235 44.245 424.206 60.902Z" fill="#646467" fill-opacity="0.99"/>
<path d="M478.395 371.5C439.28 454.812 354.627 512.5 256.5 512.5C158.373 512.5 73.72 454.812 34.605 371.5H478.395Z" fill="#394064" fill-opacity="0.99"/>
<path d="M73.001 2.423C65.777 6.478 63.209 15.622 67.264 22.846L150.484 171.084C154.539 178.308 163.683 180.876 170.907 176.821C178.131 172.766 180.699 163.622 176.644 156.398L93.424 8.16C89.369 0.936 80.225 -1.633 73.001 2.423Z" fill="#F4D009" fill-opacity="0.99"/>
<path d="M103.039 158.947H140.5C146.023 158.947 150.5 154.47 150.5 148.947V140.5C150.5 134.977 146.023 130.5 140.5 130.5H103.039C97.516 130.5 93.039 134.977 93.039 140.5V148.947C93.039 154.47 97.516 158.947 103.039 158.947Z" fill="#ACC1D3" fill-opacity="0.99"/>
<path d="M140.5 158.947H213.818C219.341 158.947 223.818 154.47 223.818 148.947V140.5C223.818 134.977 219.341 130.5 213.818 130.5H140.5C134.977 130.5 130.5 134.977 130.5 140.5V148.947C130.5 154.47 134.977 158.947 140.5 158.947Z" fill="#394064" fill-opacity="0.99"/>
<path d="M100.5 408.947H130.5C152.591 408.947 170.5 391.038 170.5 368.947V196.947C170.5 174.856 152.591 156.947 130.5 156.947H100.5C78.409 156.947 60.5 174.856 60.5 196.947V368.947C60.5 391.038 78.409 408.947 100.5 408.947Z" fill="#394064" fill-opacity="0.99"/>
<path d="M130.5 408.947H216.356C238.447 408.947 256.356 391.038 256.356 368.947V196.947C256.356 174.856 238.447 156.947 216.356 156.947H130.5C108.409 156.947 90.5 174.856 90.5 196.947V368.947C90.5 391.038 108.409 408.947 130.5 408.947Z" fill="white" fill-opacity="0.99"/>
<path d="M56.851 277.254H323.851V325.701H56.851V277.254Z" fill="#9B878D" fill-opacity="0.99"/>
<path d="M38.305 352.151C20.169 334.015 16.979 306.594 28.735 285.191C28.834 285.01 28.635 284.81 28.457 284.914C24.366 287.303 20.512 290.251 17.005 293.758C-5.001 315.764 -5.001 351.444 17.005 373.45C39.011 395.456 74.691 395.456 96.697 373.45C100.192 369.955 103.132 366.115 105.516 362.04C105.627 361.85 105.414 361.637 105.221 361.743C83.826 373.472 56.429 370.274 38.305 352.151Z" fill="#9B878D" fill-opacity="0.99"/>
<path d="M28.409 284.942C15.773 306.527 18.712 334.717 37.225 353.23C37.225 353.23 66.096 383.755 105.513 362.046C118.149 340.461 115.21 312.271 96.697 293.758C78.184 275.245 49.994 272.307 28.409 284.942Z" fill="#9B878D" fill-opacity="0.99"/>
<path d="M358.501 321.461C357.885 320.564 357.2 319.43 356.449 317.882H81.444C77.854 317.882 75.004 320.819 75.008 324.409V351.287C75.008 354.679 74.721 358.003 74.173 361.235C72.318 372.173 67.46 382.056 60.499 389.956H305.954C337.076 389.956 362.305 364.109 362.305 332.225C362.306 324.855 360.958 325.042 358.501 321.461Z" fill="white" fill-opacity="0.99"/>
<path d="M497.119 67.988C498.524 67.776 499.963 68.18 501.051 69.093C510.389 76.923 514.81 89.769 511.3 102.263C509.334 109.263 505.184 115.062 499.796 119.128C490.215 126.358 476.55 122.519 472.136 111.358C469.653 105.081 469.13 97.97 471.096 90.97C474.606 78.475 485.07 69.81 497.119 67.988Z" fill="#646467" fill-opacity="0.99"/>
<path d="M420.402 346.792C428.378 349.032 436.659 344.383 438.9 336.408L484.875 172.743C487.115 164.767 482.466 156.486 474.491 154.245C466.515 152.005 458.234 156.654 455.993 164.629L410.018 328.294C407.777 336.27 412.427 344.552 420.402 346.792Z" fill="#F4D009" fill-opacity="0.99"/>
<path d="M454.641 169.443L483.523 177.556L498.397 124.605C500.637 116.629 495.988 108.348 488.013 106.107C480.037 103.867 471.756 108.516 469.515 116.491L454.641 169.443Z" fill="white" fill-opacity="0.99"/>
<path d="M419.82 340.418C428.06 339.561 434.045 332.186 433.187 323.946L415.595 154.859C414.738 146.619 407.363 140.635 399.123 141.492C390.883 142.349 384.899 149.724 385.756 157.964L403.348 327.051C404.205 335.291 411.58 341.276 419.82 340.418Z" fill="#F4D009" fill-opacity="0.99"/>
<path d="M386.273 162.937L416.112 159.833L410.42 105.128C409.563 96.888 402.188 90.904 393.948 91.761C385.708 92.618 379.724 99.993 380.581 108.233L386.273 162.937Z" fill="white" fill-opacity="0.99"/>
<path d="M391.5 398.5H451.5C479.114 398.5 501.5 376.114 501.5 348.5V248.947C501.5 243.424 497.023 238.947 491.5 238.947H351.5C345.977 238.947 341.5 243.424 341.5 248.947V348.5C341.5 376.114 363.886 398.5 391.5 398.5Z" fill="#394064" fill-opacity="0.99"/>
<path d="M210.5 327.535C210.5 300.985 223.433 277.457 243.342 262.905C254.68 254.618 261.472 241.52 261.301 227.477C261.297 227.146 261.295 226.814 261.295 226.482C261.295 197.457 276.752 172.042 299.884 158.02C312.588 150.319 320.242 136.442 320.242 121.586V50.5C320.242 45.13 324.475 40.749 329.786 40.511C329.635 40.504 329.483 40.5 329.33 40.5H284.649C279.126 40.5 274.649 44.977 274.649 50.5V121.587C274.649 136.443 266.995 150.32 254.291 158.021C231.159 172.043 215.702 197.458 215.702 226.483C215.702 226.815 215.704 227.147 215.708 227.478C215.879 241.521 209.087 254.619 197.749 262.906C177.84 277.458 164.907 300.987 164.907 327.536C164.907 371.719 200.724 407.536 244.907 407.536H290.5C246.317 407.535 210.5 371.718 210.5 327.535Z" fill="#BA042D" fill-opacity="0.99"/>
<path d="M449.074 327.535C449.074 300.985 436.141 277.457 416.232 262.905C404.894 254.618 398.102 241.52 398.273 227.477C398.277 227.146 398.279 226.814 398.279 226.482C398.279 197.457 382.822 172.042 359.69 158.02C346.986 150.319 339.332 136.442 339.332 121.586V50.5C339.332 44.977 334.855 40.5 329.332 40.5H316.077C310.554 40.5 306.077 44.977 306.077 50.5V121.587C306.077 136.443 298.423 150.32 285.719 158.021C262.587 172.043 247.13 197.458 247.13 226.483C247.13 226.815 247.132 227.147 247.136 227.478C247.307 241.521 240.515 254.619 229.177 262.906C209.268 277.458 196.335 300.987 196.335 327.536C196.335 371.719 232.152 407.536 276.335 407.536H369.076C413.257 407.535 449.074 371.718 449.074 327.535Z" fill="#E1504E" fill-opacity="0.99"/>
<path d="M305.5 22.5H275.078C266.794 22.5 260.078 29.216 260.078 37.5C260.078 45.784 266.794 52.5 275.078 52.5H305.5C313.784 52.5 320.5 45.784 320.5 37.5C320.5 29.216 313.784 22.5 305.5 22.5Z" fill="#E1504E" fill-opacity="0.99"/>
<path d="M338.904 22.5H305.5C297.216 22.5 290.5 29.216 290.5 37.5C290.5 45.784 297.216 52.5 305.5 52.5H338.904C347.188 52.5 353.904 45.784 353.904 37.5C353.904 29.216 347.189 22.5 338.904 22.5Z" fill="#E1504E" fill-opacity="0.99"/>
<path d="M330.5 220.5H350.5C361.546 220.5 370.5 211.546 370.5 200.5C370.5 189.454 361.546 180.5 350.5 180.5H330.5C319.454 180.5 310.5 189.454 310.5 200.5C310.5 211.546 319.454 220.5 330.5 220.5Z" fill="#E1504E" fill-opacity="0.99"/>
<path d="M329.309 340.5H391.098C407.009 340.5 419.907 327.602 419.907 311.691C419.907 295.78 407.009 282.882 391.098 282.882H329.309C313.398 282.882 300.5 295.78 300.5 311.691C300.5 327.602 313.398 340.5 329.309 340.5Z" fill="#E1504E" fill-opacity="0.99"/>
<path d="M138.75 214.018L168.055 405.032H220.496L249.801 214.018H138.75Z" fill="#ACC1D3" fill-opacity="0.99"/>
<path d="M181.623 214.018L210.928 405.032H294.445L323.75 214.018H181.623Z" fill="#ACC1D3" fill-opacity="0.99"/>
<path d="M193.248 396.5H216.735C219.204 396.5 221.303 394.698 221.677 392.258L232.238 323.42C235.841 299.935 217.669 278.763 193.909 278.763H176.719C173.655 278.763 171.312 281.493 171.777 284.521L188.306 392.258C188.68 394.698 190.779 396.5 193.248 396.5Z" fill="#E1504E" fill-opacity="0.99"/>
<path d="M286.816 278.763H191.556L209.619 396.5H270.287C272.756 396.5 274.855 394.698 275.229 392.258L291.758 284.521C292.223 281.493 289.88 278.763 286.816 278.763Z" fill="#5D3C4F" fill-opacity="0.99"/>
<path d="M255.255 321.477C260.778 321.477 265.255 317 265.255 311.477C265.255 305.954 260.778 301.477 255.255 301.477C249.732 301.477 245.255 305.954 245.255 311.477C245.255 317 249.732 321.477 255.255 321.477Z" fill="#E1504E" fill-opacity="0.99"/>
<path d="M231.687 353.919C237.21 353.919 241.687 349.442 241.687 343.919C241.687 338.396 237.21 333.919 231.687 333.919C226.164 333.919 221.687 338.396 221.687 343.919C221.687 349.442 226.164 353.919 231.687 353.919Z" fill="#E1504E" fill-opacity="0.99"/>
<path d="M138.75 234.018H158.926C164.449 234.018 168.926 229.541 168.926 224.018V214.018C168.926 208.495 164.449 204.018 158.926 204.018H138.75C133.227 204.018 128.75 208.495 128.75 214.018V224.018C128.75 229.541 133.227 234.018 138.75 234.018Z" fill="#ACC1D3" fill-opacity="0.99"/>
<path d="M178.878 234.018H323.75C329.273 234.018 333.75 229.541 333.75 224.018V214.018C333.75 208.495 329.273 204.018 323.75 204.018H218.878L215.968 208.181H201.074L198.877 204.018H178.877C173.354 204.018 168.877 208.495 168.877 214.018V224.018C168.878 229.541 173.355 234.018 178.878 234.018Z" fill="#ACC1D3" fill-opacity="0.99"/>
<path d="M403.457 404.956V394.264C403.457 388.932 399.135 384.61 393.803 384.61H330.927C325.595 384.61 321.273 388.932 321.273 394.264V404.956C321.273 410.288 325.595 414.61 330.927 414.61H393.803C399.135 414.61 403.457 410.288 403.457 404.956Z" fill="#ACC1D3" fill-opacity="0.99"/>
<path d="M416.974 361.421L370.178 391.171C363.998 395.1 363.998 404.12 370.178 408.049L416.974 437.799C419.069 439.131 421.586 439.636 424.033 439.216L504.194 425.44C508.993 424.615 512.5 420.454 512.5 415.585V383.637C512.5 378.768 508.993 374.606 504.194 373.781L424.033 360.005C421.586 359.584 419.07 360.089 416.974 361.421Z" fill="#9B878D" fill-opacity="0.99"/>
<path d="M344.817 413.816V385.404C344.817 379.881 340.34 375.404 334.817 375.404H289.401C283.878 375.404 279.401 379.881 279.401 385.404V413.816C279.401 419.339 283.878 423.816 289.401 423.816H334.817C340.34 423.816 344.817 419.339 344.817 413.816Z" fill="#9B878D" fill-opacity="0.99"/>
<path d="M288.746 423.816V375.404H51.287C37.918 375.404 27.081 386.241 27.081 399.61C27.081 412.979 37.918 423.816 51.287 423.816H288.746Z" fill="#F4D009" fill-opacity="0.99"/>
<path d="M208.878 294.018C203.355 294.018 198.878 289.541 198.878 284.018V204.018H218.878V284.018C218.878 289.541 214.4 294.018 208.878 294.018Z" fill="#E1504E" fill-opacity="0.99"/>
<path d="M168.878 260.5C163.355 260.5 158.878 256.023 158.878 250.5V204.018H178.878V250.5C178.878 256.023 174.4 260.5 168.878 260.5Z" fill="#E1504E" fill-opacity="0.99"/>
<path d="M480.5 415.5C480.5 395.349 463.471 379.176 443.018 380.586C425.743 381.777 411.754 395.784 410.583 413.06C409.951 422.386 412.974 430.998 418.363 437.605C419.779 439.341 420.501 441.54 420.501 443.78V450.5C420.501 456.023 424.978 460.5 430.501 460.5C436.024 460.5 440.501 464.977 440.501 470.5V490.157C440.501 495.483 444.52 500.134 449.835 500.478C455.659 500.856 460.5 496.243 460.5 490.5V452.913C460.5 449.553 462.206 446.445 464.995 444.571C474.346 438.288 480.5 427.613 480.5 415.5Z" fill="#63784D" fill-opacity="0.99"/>
<path d="M453.84 426.5C464.333 426.5 472.84 417.993 472.84 407.5C472.84 397.007 464.333 388.5 453.84 388.5C443.347 388.5 434.84 397.007 434.84 407.5C434.84 417.993 443.347 426.5 453.84 426.5Z" fill="#829E76" fill-opacity="0.99"/>
<path d="M159.149 433.84C158.105 433.84 157.282 432.894 157.492 431.871C157.693 430.892 157.798 429.879 157.798 428.84C157.798 420.556 151.082 413.84 142.798 413.84H125.5C117.216 413.84 110.5 420.556 110.5 428.84C110.5 429.878 110.606 430.892 110.806 431.871C111.016 432.894 110.193 433.84 109.149 433.84C100.865 433.84 94.149 440.556 94.149 448.84C94.149 457.124 100.865 463.84 109.149 463.84H159.149C167.433 463.84 174.149 457.124 174.149 448.84C174.149 440.556 167.433 433.84 159.149 433.84Z" fill="#63784D" fill-opacity="0.99"/>
<path d="M175.149 448.84C175.149 440.556 168.433 433.84 160.149 433.84C159.105 433.84 158.282 432.894 158.492 431.871C158.693 430.892 158.798 429.879 158.798 428.84C158.798 420.556 151.082 413.84 142.798 413.84H141.851C133.567 413.84 126.851 420.556 126.851 428.84C126.851 429.878 126.957 430.892 127.157 431.871C127.367 432.894 126.544 433.84 125.5 433.84C117.216 433.84 110.5 440.556 110.5 448.84C110.5 457.124 117.216 463.84 125.5 463.84H160.149C168.433 463.84 175.149 457.125 175.149 448.84Z" fill="#829E76" fill-opacity="0.99"/>
<path d="M260.649 433.84C259.605 433.84 258.782 432.894 258.992 431.871C259.193 430.892 259.298 429.879 259.298 428.84C259.298 420.556 252.582 413.84 244.298 413.84H227C218.716 413.84 212 420.556 212 428.84C212 429.878 212.106 430.892 212.306 431.871C212.516 432.894 211.693 433.84 210.649 433.84C202.365 433.84 195.649 440.556 195.649 448.84C195.649 457.124 202.365 463.84 210.649 463.84H260.649C268.933 463.84 275.649 457.124 275.649 448.84C275.649 440.556 268.933 433.84 260.649 433.84Z" fill="#ACC1D3" fill-opacity="0.99"/>
<path d="M276.649 448.84C276.649 440.556 269.933 433.84 261.649 433.84C260.605 433.84 259.782 432.894 259.992 431.871C260.193 430.892 260.298 429.879 260.298 428.84C260.298 420.556 252.582 413.84 244.298 413.84H243.351C235.067 413.84 228.351 420.556 228.351 428.84C228.351 429.878 228.457 430.892 228.657 431.871C228.867 432.894 228.044 433.84 227 433.84C218.716 433.84 212 440.556 212 448.84C212 457.124 218.716 463.84 227 463.84H261.649C269.933 463.84 276.649 457.125 276.649 448.84Z" fill="#ACC1D3" fill-opacity="0.99"/>
<path d="M360.649 433.84C359.605 433.84 358.782 432.894 358.992 431.871C359.193 430.892 359.298 429.879 359.298 428.84C359.298 420.556 352.582 413.84 344.298 413.84H327C318.716 413.84 312 420.556 312 428.84C312 429.878 312.106 430.892 312.306 431.871C312.516 432.894 311.693 433.84 310.649 433.84C302.365 433.84 295.649 440.556 295.649 448.84C295.649 457.124 302.365 463.84 310.649 463.84H360.649C368.933 463.84 375.649 457.124 375.649 448.84C375.649 440.556 368.933 433.84 360.649 433.84Z" fill="#BA042D" fill-opacity="0.99"/>
<path d="M376.649 448.84C376.649 440.556 369.933 433.84 361.649 433.84C360.605 433.84 359.782 432.894 359.992 431.871C360.193 430.892 360.298 429.879 360.298 428.84C360.298 420.556 352.582 413.84 344.298 413.84H343.351C335.067 413.84 328.351 420.556 328.351 428.84C328.351 429.878 328.457 430.892 328.657 431.871C328.867 432.894 328.044 433.84 327 433.84C318.716 433.84 312 440.556 312 448.84C312 457.124 318.716 463.84 327 463.84H361.649C369.933 463.84 376.649 457.125 376.649 448.84Z" fill="#E1504E" fill-opacity="0.99"/>
</g>
<defs>
<clipPath id="clip0_35_470">
<rect width="512" height="512" fill="white" transform="translate(0.5 0.5)"/>
</clipPath>
</defs>
</svg>
