<svg width="513" height="513" viewBox="0 0 513 513" fill="none" xmlns="http://www.w3.org/2000/svg">
<g clip-path="url(#clip0_35_192)">
<path d="M261.597 5.59691C123.027 5.59691 10.6938 117.93 10.6938 256.5C10.6938 395.07 123.027 507.403 261.597 507.403C316.923 507.403 368.066 489.496 409.547 459.162L443.82 84.0261C398.089 35.7258 333.361 5.59691 261.597 5.59691Z" fill="#63784D" fill-opacity="0.99"/>
<path d="M404.367 377.602H143.885L182.802 459.161L398.249 458.92C400.26 457.45 402.303 455.949 404.366 454.422L404.367 377.602Z" fill="#5D3C4F" fill-opacity="0.99"/>
<path d="M160.436 51.0431H83.6227V44.2339C83.6227 39.7064 87.293 36.0361 91.8206 36.0361H152.237C156.765 36.0361 160.435 39.7064 160.435 44.2339V51.0431H160.436Z" fill="#E1504E" fill-opacity="0.99"/>
<path d="M183.818 122.277H91.2307V69.6776C91.2307 57.9875 100.708 48.5106 112.398 48.5106H162.651C174.341 48.5106 183.818 57.9875 183.818 69.6776V122.277Z" fill="#646467" fill-opacity="0.99"/>
<path d="M115.549 48.5106H80.7971C69.1071 48.5106 59.6301 57.9875 59.6301 69.6776V122.277H94.3828V69.6776C94.3817 57.9875 103.859 48.5106 115.549 48.5106Z" fill="#646467" fill-opacity="0.99"/>
<path d="M443.82 84.0261H142.124V182.956H498.214L500.909 180.9C489.346 144.262 469.602 111.256 443.82 84.0261Z" fill="#5D3C4F" fill-opacity="0.99"/>
<path d="M37.1882 84.0261C16.9254 84.0261 0.5 100.452 0.5 120.714V180.9L24.6297 352.4L0.5 381.525V422.473C0.5 442.736 16.9254 459.161 37.1882 459.161H86.869V458.434C87.124 458.677 87.3801 458.919 87.6361 459.161H182.802V84.0261H37.1882Z" fill="#321B25" fill-opacity="0.99"/>
<path d="M500.909 180.9H22.2835C14.7544 204.758 10.6938 230.154 10.6938 256.5C10.6938 302.025 22.8181 344.718 44.0148 381.526H429.181L510.902 228.025C509.068 211.797 505.687 196.038 500.909 180.9Z" fill="#ACC1D3" fill-opacity="0.99"/>
<path d="M510.901 228.025H450.175C439.713 228.025 431.231 236.507 431.231 246.969V441.362C481.184 395.499 512.5 329.658 512.5 256.499C512.5 246.871 511.957 237.371 510.901 228.025Z" fill="#646467" fill-opacity="0.99"/>
<path d="M431.509 438.076V248.869C431.509 237.358 440.842 228.025 452.354 228.025H398.249C386.737 228.025 377.405 237.358 377.405 248.869V438.077C377.405 449.589 386.737 458.921 398.249 458.921H409.875C417.49 453.334 424.777 447.328 431.704 440.936C431.576 440 431.509 439.046 431.509 438.076Z" fill="#646467" fill-opacity="0.99"/>
<path d="M175.028 381.526C157.397 378.853 143.885 363.632 143.885 345.254V180.9H0.5V381.526H175.028Z" fill="#5C658F" fill-opacity="0.99"/>
<path d="M201.001 416.476C273.067 416.476 331.488 358.055 331.488 285.989C331.488 213.923 273.067 155.502 201.001 155.502C128.935 155.502 70.5143 213.923 70.5143 285.989C70.5143 358.055 128.935 416.476 201.001 416.476Z" fill="#646467" fill-opacity="0.99"/>
<path d="M239.665 399.26C167.599 399.26 109.178 340.838 109.178 268.773C109.178 223.172 132.574 183.043 168.013 159.712C111.92 174.326 70.5153 225.319 70.5153 285.989C70.5153 358.055 128.937 416.476 201.002 416.476C227.468 416.476 252.087 408.589 272.655 395.049C262.116 397.794 251.062 399.26 239.665 399.26Z" fill="#646467" fill-opacity="0.99"/>
<path d="M201.001 366.716C245.586 366.716 281.729 330.573 281.729 285.989C281.729 241.404 245.586 205.261 201.001 205.261C156.417 205.261 120.274 241.404 120.274 285.989C120.274 330.573 156.417 366.716 201.001 366.716Z" fill="#ACC1D3" fill-opacity="0.99"/>
<path d="M201.001 212.189C241.759 212.189 274.801 245.231 274.801 285.989C274.801 326.747 241.759 359.788 201.001 359.788C160.243 359.788 127.202 326.747 127.202 285.989C127.202 245.231 160.243 212.189 201.001 212.189ZM201.001 188.876C147.453 188.876 103.888 232.441 103.888 285.989C103.888 339.537 147.453 383.102 201.001 383.102C254.549 383.102 298.114 339.537 298.114 285.989C298.114 232.441 254.55 188.876 201.001 188.876Z" fill="#5C658F" fill-opacity="0.99"/>
<path d="M219.142 368.706C165.594 368.706 122.029 325.141 122.029 271.593C122.029 244.96 132.808 220.8 150.229 203.239C122.449 220.346 103.888 251.039 103.888 285.989C103.888 339.537 147.453 383.102 201.001 383.102C227.917 383.102 252.307 372.092 269.915 354.343C255.132 363.447 237.741 368.706 219.142 368.706Z" fill="white" fill-opacity="0.99"/>
<path d="M434.311 170.035H373.742C365.065 170.035 358.032 163 358.032 154.324V136.986C358.032 128.309 365.065 121.276 373.742 121.276H434.311C442.989 121.276 450.022 128.31 450.022 136.986V154.324C450.023 163.001 442.989 170.035 434.311 170.035Z" fill="#321B25" fill-opacity="0.99"/>
<path d="M434.311 155.502H400.984C392.307 155.502 385.274 148.467 385.274 139.791V122.453C385.274 113.776 392.307 106.743 400.984 106.743H434.311C442.989 106.743 450.022 113.777 450.022 122.453V139.791C450.023 148.467 442.989 155.502 434.311 155.502Z" fill="#F4D009" fill-opacity="0.99"/>
<path d="M387.991 139.791V122.453C387.991 113.776 395.025 106.743 403.701 106.743H373.742C365.065 106.743 358.032 113.776 358.032 122.453V139.791C358.032 148.468 365.065 155.502 373.742 155.502H403.701C395.025 155.502 387.991 148.467 387.991 139.791Z" fill="#F4D009" fill-opacity="0.99"/>
<path d="M126.446 149.193H69.0149C59.3844 149.193 51.5767 141.386 51.5767 131.755C51.5767 122.125 59.3844 114.317 69.0149 114.317H126.447C136.078 114.317 143.885 122.125 143.885 131.755C143.884 141.386 136.078 149.193 126.446 149.193Z" fill="#646467" fill-opacity="0.99"/>
<path d="M69.6755 155.502C83.14 155.502 94.0551 144.587 94.0551 131.122C94.0551 117.658 83.14 106.743 69.6755 106.743C56.211 106.743 45.2959 117.658 45.2959 131.122C45.2959 144.587 56.211 155.502 69.6755 155.502Z" fill="#E1504E" fill-opacity="0.99"/>
<path d="M221.602 293.158C237.393 293.158 250.195 280.357 250.195 264.566C250.195 248.774 237.393 235.973 221.602 235.973C205.811 235.973 193.009 248.774 193.009 264.566C193.009 280.357 205.811 293.158 221.602 293.158Z" fill="#ACC1D3" fill-opacity="0.99"/>
</g>
<defs>
<clipPath id="clip0_35_192">
<rect width="512" height="512" fill="white" transform="translate(0.5 0.5)"/>
</clipPath>
</defs>
</svg>
