<svg width="684" height="684" viewBox="0 0 684 684" fill="none" xmlns="http://www.w3.org/2000/svg">
<g clip-path="url(#clip0_35_229)">
<path d="M683.167 341.833C683.167 349.693 682.901 357.479 682.375 365.198C681.286 381.417 679.057 397.323 675.771 412.844C675.057 416.146 674.307 419.432 673.51 422.708C671.938 429.188 670.167 435.594 668.229 441.932C668.094 442.396 667.953 442.854 667.802 443.312C667.271 445.026 666.74 446.729 666.182 448.411C665.573 450.281 664.943 452.146 664.286 454C663.385 456.62 662.448 459.224 661.474 461.818C659.219 467.833 656.792 473.755 654.214 479.604C653.422 481.417 652.599 483.214 651.776 485.01C651.026 486.63 650.26 488.245 649.479 489.859C646.385 496.297 643.099 502.62 639.599 508.823C638.182 511.344 636.729 513.849 635.255 516.333C630.422 524.438 625.266 532.323 619.802 539.974C557.906 626.656 456.464 683.167 341.833 683.167C252.333 683.167 170.875 648.729 109.99 592.344C103.833 586.646 97.8698 580.714 92.1562 574.568C90.6406 572.938 89.1354 571.281 87.6458 569.62C86.9896 568.911 86.349 568.188 85.7083 567.464C84.5104 566.094 83.3125 564.729 82.1406 563.339C77.4167 557.823 72.875 552.135 68.5156 546.328C67.9167 545.531 67.3177 544.724 66.7344 543.932C65.7708 542.62 64.8125 541.297 63.8646 539.974C63.7812 539.849 63.6823 539.724 63.599 539.599C62.3021 537.786 61.0208 535.948 59.7656 534.109C55.8125 528.312 52.0208 522.391 48.4115 516.333C47.7135 515.177 47.0312 514.005 46.3646 512.833C44.4271 509.49 42.5312 506.104 40.7083 502.677C39.2865 500.016 37.8958 497.328 36.5417 494.609C34.6354 490.833 32.8073 487.021 31.0521 483.161C28.474 477.49 26.0521 471.75 23.7812 465.927C22.1927 461.844 20.6719 457.734 19.2396 453.583C17.4115 448.328 15.7135 443.021 14.151 437.646C10.8646 426.417 8.15104 414.948 6.03125 403.271C5.82292 402.156 5.625 401.042 5.44792 399.917C2.92187 385.271 1.34896 370.297 0.765625 355.068C0.583333 350.682 0.5 346.266 0.5 341.833C0.5 322.354 2.13021 303.255 5.28125 284.672C6.61458 276.688 8.23438 268.818 10.125 261.026C29.2292 182.312 75.6198 114.271 138.734 67.4688C150.365 58.849 162.573 50.9479 175.276 43.8281C224.542 16.2292 281.339 0.5 341.833 0.5C402.328 0.5 459.125 16.2292 508.391 43.8281C521.094 50.9479 533.302 58.849 544.932 67.4688C608.047 114.271 654.438 182.312 673.542 261.026C675.432 268.818 677.052 276.688 678.385 284.672C681.536 303.255 683.167 322.354 683.167 341.833Z" fill="#321B25" fill-opacity="0.99"/>
<path d="M48.4115 516.333H385.677V539.974H63.8646C58.4011 532.323 53.2448 524.437 48.4115 516.333Z" fill="#9B878D" fill-opacity="0.99"/>
<path d="M635.255 516.333C630.422 524.437 625.266 532.323 619.802 539.974H462.01V516.333H635.255Z" fill="#9B878D" fill-opacity="0.99"/>
<path d="M10.125 261.026H90.875V284.672H5.28125C6.61458 276.687 8.23437 268.818 10.125 261.026Z" fill="#9B878D" fill-opacity="0.99"/>
<path d="M167.208 261.026H445.307V284.672H167.208V261.026Z" fill="#9B878D" fill-opacity="0.99"/>
<path d="M678.385 284.672H521.641V261.026H673.542C675.432 268.818 677.052 276.687 678.385 284.672Z" fill="#9B878D" fill-opacity="0.99"/>
<path d="M175.276 43.8281H277.01V67.4688H138.734C150.365 58.849 162.573 50.9479 175.276 43.8281Z" fill="#9B878D" fill-opacity="0.99"/>
<path d="M544.932 67.4688H353.339V43.8281H508.391C521.094 50.9479 533.302 58.849 544.932 67.4688Z" fill="#9B878D" fill-opacity="0.99"/>
<path d="M300.094 137.839V198.833C300.094 205.984 294.297 211.781 287.146 211.781H25.5677C18.3333 211.781 12.4688 205.917 12.4688 198.682V122.859C12.4688 115.63 18.3281 109.776 25.5573 109.776H55.4271L68.8594 38.9583C70.3906 30.8958 77.4375 25.0625 85.6458 25.0625H193.062C205.401 25.0625 216.229 33.2344 219.62 45.0781L238.135 109.776L284.557 118.937C293.589 120.724 300.094 128.646 300.094 137.839Z" fill="#E20304" fill-opacity="0.99"/>
<path d="M44.651 211.792H25.5729C18.3438 211.792 12.4688 205.917 12.4688 198.687V122.859C12.4688 115.63 18.3281 109.776 25.5573 109.776H44.6354C37.4063 109.776 31.5521 115.63 31.5521 122.859V198.687C31.5521 205.917 37.4219 211.792 44.651 211.792Z" fill="#E20304" fill-opacity="0.99"/>
<path d="M104.724 25.0573C96.526 25.0573 89.4688 30.8958 87.9427 38.9583L74.5208 109.776H55.4375L68.8646 38.9583C70.3906 30.8958 77.4479 25.0573 85.6458 25.0573H104.724Z" fill="#E20304" fill-opacity="0.99"/>
<path d="M300.099 178.943V198.833C300.099 205.984 294.302 211.786 287.151 211.786H25.5677C18.3386 211.786 12.474 205.922 12.474 198.687V178.802C12.474 186.031 18.3386 191.896 25.5677 191.896H287.151C294.302 191.896 300.099 186.094 300.099 178.943Z" fill="#E20304" fill-opacity="0.99"/>
<path d="M286.656 211.781H172.609C172.609 180.292 198.146 154.755 229.635 154.755C261.13 154.755 286.656 180.292 286.656 211.781Z" fill="#E20304" fill-opacity="0.99"/>
<path d="M138.26 211.781H24.2135C24.2135 180.292 49.75 154.755 81.2395 154.755C112.734 154.755 138.26 180.292 138.26 211.781Z" fill="#E20304" fill-opacity="0.99"/>
<path d="M277.141 211.781C277.141 238.016 255.875 259.281 229.635 259.281C203.401 259.281 182.135 238.016 182.135 211.781C182.135 185.547 203.401 164.281 229.635 164.281C255.875 164.281 277.141 185.547 277.141 211.781Z" fill="#321B25" fill-opacity="0.99"/>
<path d="M253.422 211.781C253.422 224.917 242.776 235.568 229.635 235.568C216.5 235.568 205.854 224.917 205.854 211.781C205.854 198.646 216.5 187.995 229.635 187.995C242.776 187.995 253.422 198.646 253.422 211.781Z" fill="#9B878D" fill-opacity="0.99"/>
<path d="M229.635 239.969C214.094 239.969 201.453 227.323 201.453 211.781C201.453 196.24 214.094 183.594 229.635 183.594C245.182 183.594 257.823 196.24 257.823 211.781C257.823 227.323 245.182 239.969 229.635 239.969ZM229.635 192.401C218.953 192.401 210.255 201.094 210.255 211.781C210.255 222.469 218.953 231.161 229.635 231.161C240.323 231.161 249.021 222.469 249.021 211.781C249.021 201.094 240.323 192.401 229.635 192.401Z" fill="#321B25" fill-opacity="0.99"/>
<path d="M128.74 211.781C128.74 238.016 107.474 259.281 81.2396 259.281C55 259.281 33.7344 238.016 33.7344 211.781C33.7344 185.547 55 164.281 81.2396 164.281C107.474 164.281 128.74 185.547 128.74 211.781Z" fill="#321B25" fill-opacity="0.99"/>
<path d="M105.021 211.781C105.021 224.917 94.375 235.568 81.2396 235.568C68.099 235.568 57.4531 224.917 57.4531 211.781C57.4531 198.646 68.099 187.995 81.2396 187.995C94.375 187.995 105.021 198.646 105.021 211.781Z" fill="#9B878D" fill-opacity="0.99"/>
<path d="M81.2396 239.969C65.6927 239.969 53.0521 227.323 53.0521 211.781C53.0521 196.24 65.6927 183.594 81.2396 183.594C96.7813 183.594 109.422 196.24 109.422 211.781C109.422 227.323 96.7813 239.969 81.2396 239.969ZM81.2396 192.401C70.5521 192.401 61.8542 201.094 61.8542 211.781C61.8542 222.469 70.5521 231.161 81.2396 231.161C91.9219 231.161 100.62 222.469 100.62 211.781C100.62 201.094 91.9219 192.401 81.2396 192.401Z" fill="#321B25" fill-opacity="0.99"/>
<path d="M300.094 139.38V166.844C297.266 171.052 292.781 174.089 287.474 175.026C286.479 175.219 285.292 175.328 284.094 175.328H278.948C268.312 175.328 259.667 166.682 259.667 156.047V150.193C259.667 139.557 268.312 130.896 278.948 130.896H284.094C285.292 130.896 286.479 131.005 287.594 131.224C292.839 132.135 297.276 135.172 300.094 139.38Z" fill="#E20304" fill-opacity="0.99"/>
<path d="M295.219 150.193V156.047C295.219 161.521 291.26 166.068 286.057 166.979C285.417 167.104 284.766 167.156 284.099 167.156H278.948C272.807 167.156 267.839 162.187 267.839 156.047V150.193C267.839 144.047 272.807 139.068 278.948 139.068H284.099C284.766 139.068 285.417 139.12 286.057 139.245C291.255 140.156 295.219 144.714 295.219 150.193Z" fill="#EA9810" fill-opacity="0.99"/>
<path d="M295.219 150.193V156.047C295.219 161.521 291.26 166.068 286.057 166.979C280.844 166.068 276.88 161.521 276.88 156.047V150.193C276.88 144.719 280.839 140.156 286.057 139.245C291.255 140.156 295.219 144.714 295.219 150.193Z" fill="#F4D009" fill-opacity="0.99"/>
<path d="M202.885 109.771H99.9427C92.8959 109.771 87.1771 104.057 87.1771 97.0052V55.4271C87.1771 48.3802 92.8959 42.6667 99.9427 42.6667H193.068C197.51 42.6667 201.464 45.651 202.688 49.9219L215.156 93.4948C217.49 101.651 211.37 109.771 202.885 109.771Z" fill="#ACC1D3" fill-opacity="0.99"/>
<path d="M202.885 114.172H99.9427C90.4791 114.172 82.776 106.469 82.776 97.0052V55.4271C82.776 45.9635 90.4791 38.2604 99.9427 38.2604H193.068C199.464 38.2604 205.161 42.5573 206.922 48.7083L219.391 92.2812C220.885 97.5104 219.87 103 216.594 107.339C213.318 111.682 208.323 114.172 202.885 114.172ZM99.9427 47.0677C95.3333 47.0677 91.5833 50.8177 91.5833 55.4271V97.0052C91.5833 101.615 95.3333 105.37 99.9427 105.37H202.885C205.536 105.37 207.969 104.156 209.562 102.036C211.156 99.9219 211.656 97.25 210.927 94.7031L198.453 51.1302C197.771 48.7344 195.552 47.0677 193.068 47.0677H99.9427Z" fill="#E20304" fill-opacity="0.99"/>
<path d="M148.161 42.1146H157.531V109.729H148.161V42.1146Z" fill="#E20304" fill-opacity="0.99"/>
<path d="M158.755 125.854V132.625C158.755 138.177 163.255 142.682 168.813 142.682H188.474C194.026 142.682 198.531 138.177 198.531 132.625V125.854H171.755" fill="#E20304" fill-opacity="0.99"/>
<path d="M83.7448 125.854V132.625C83.7448 138.177 88.2448 142.682 93.802 142.682H113.464C119.016 142.682 123.521 138.177 123.521 132.625V125.854H96.75" fill="#E20304" fill-opacity="0.99"/>
<path d="M682.375 365.198C680.104 398.984 672.885 431.432 661.474 461.818H442.479C435.245 461.818 429.38 455.948 429.38 448.719V372.885C429.38 365.672 435.234 359.807 442.464 359.807H472.333L485.766 288.99C487.297 280.938 494.349 275.099 502.552 275.099H609.969C622.313 275.099 633.135 283.266 636.521 295.104L655.052 359.807L682.375 365.198Z" fill="#E20304" fill-opacity="0.99"/>
<path d="M461.563 461.823H442.479C435.255 461.823 429.38 455.948 429.38 448.724V372.896C429.38 365.667 435.24 359.807 442.464 359.807H461.547C454.318 359.807 448.458 365.667 448.458 372.896V448.724C448.458 455.948 454.333 461.823 461.563 461.823Z" fill="#E20304" fill-opacity="0.99"/>
<path d="M521.635 275.089C513.438 275.089 506.38 280.932 504.854 288.99L491.427 359.807H472.349L485.771 288.99C487.297 280.932 494.354 275.089 502.557 275.089H521.635Z" fill="#E20304" fill-opacity="0.99"/>
<path d="M668.229 441.932C666.182 448.651 663.927 455.281 661.474 461.818H442.479C435.245 461.818 429.38 455.948 429.38 448.719V428.839C429.38 436.068 435.245 441.932 442.479 441.932H668.229Z" fill="#E20304" fill-opacity="0.99"/>
<path d="M675.771 412.844C675.057 416.146 674.307 419.432 673.51 422.708C671.938 429.187 670.167 435.594 668.229 441.932C668.094 442.396 667.953 442.854 667.802 443.312C667.271 445.026 666.74 446.729 666.182 448.411C665.573 450.281 664.943 452.146 664.286 454C663.385 456.62 662.448 459.224 661.474 461.818H589.516C589.516 430.328 615.052 404.792 646.552 404.792C657.224 404.792 667.229 407.729 675.771 412.844Z" fill="#E20304" fill-opacity="0.99"/>
<path d="M555.172 461.818H441.12C441.12 430.323 466.656 404.792 498.151 404.792C529.641 404.792 555.172 430.323 555.172 461.818Z" fill="#E20304" fill-opacity="0.99"/>
<path d="M673.51 422.708C671.938 429.187 670.167 435.594 668.229 441.932C666.182 448.651 663.927 455.281 661.474 461.818C655.359 478.115 648.031 493.833 639.599 508.823C616.641 505.448 599.047 485.682 599.047 461.818C599.047 435.583 620.307 414.307 646.552 414.307C656.573 414.307 665.865 417.417 673.51 422.708Z" fill="#321B25" fill-opacity="0.99"/>
<path d="M666.182 448.411C665.573 450.281 664.943 452.146 664.286 454C663.385 456.62 662.448 459.224 661.474 461.818C659.219 467.833 656.792 473.755 654.214 479.604C653.422 481.417 652.599 483.214 651.776 485.01C650.094 485.401 648.349 485.599 646.552 485.599C633.417 485.599 622.755 474.953 622.755 461.818C622.755 448.677 633.417 438.031 646.552 438.031C654.703 438.031 661.906 442.146 666.182 448.411Z" fill="#9B878D" fill-opacity="0.99"/>
<path d="M646.552 433.63C631.005 433.63 618.354 446.266 618.354 461.818C618.354 477.365 631.005 490 646.552 490C647.542 490 648.516 489.943 649.479 489.859C651.109 486.474 652.698 483.063 654.214 479.604C651.859 480.635 649.271 481.193 646.552 481.193C635.854 481.193 627.161 472.5 627.161 461.818C627.161 451.13 635.854 442.438 646.552 442.438C654.453 442.438 661.281 447.188 664.286 454C665.531 450.458 666.698 446.906 667.802 443.313C662.615 437.38 655.01 433.63 646.552 433.63Z" fill="#321B25" fill-opacity="0.99"/>
<path d="M545.651 461.818C545.651 488.052 524.38 509.318 498.146 509.318C471.911 509.318 450.646 488.052 450.646 461.818C450.646 435.578 471.911 414.312 498.146 414.312C524.38 414.312 545.651 435.578 545.651 461.818Z" fill="#321B25" fill-opacity="0.99"/>
<path d="M521.932 461.818C521.932 474.953 511.281 485.599 498.146 485.599C485.01 485.599 474.365 474.953 474.365 461.818C474.365 448.677 485.01 438.031 498.146 438.031C511.281 438.031 521.932 448.677 521.932 461.818Z" fill="#9B878D" fill-opacity="0.99"/>
<path d="M498.146 490C482.604 490 469.958 477.354 469.958 461.812C469.958 446.271 482.604 433.625 498.146 433.625C513.688 433.625 526.333 446.271 526.333 461.812C526.333 477.354 513.688 490 498.146 490ZM498.146 442.432C487.458 442.432 478.766 451.13 478.766 461.818C478.766 472.505 487.458 481.198 498.146 481.198C508.833 481.198 517.531 472.505 517.531 461.818C517.531 451.13 508.833 442.432 498.146 442.432Z" fill="#321B25" fill-opacity="0.99"/>
<path d="M619.797 359.802H516.854C509.802 359.802 504.089 354.089 504.089 347.042V305.464C504.089 298.417 509.802 292.698 516.854 292.698H609.974C614.422 292.698 618.375 295.687 619.599 299.953L632.068 343.531C634.401 351.682 628.276 359.802 619.797 359.802Z" fill="#ACC1D3" fill-opacity="0.99"/>
<path d="M619.797 364.203H516.854C507.385 364.203 499.688 356.505 499.688 347.036V305.464C499.688 295.995 507.391 288.297 516.854 288.297H609.974C616.375 288.297 622.068 292.589 623.828 298.74L636.302 342.312C637.797 347.542 636.776 353.031 633.505 357.37C630.229 361.714 625.234 364.203 619.797 364.203ZM516.854 297.099C512.24 297.099 508.49 300.854 508.49 305.464V347.036C508.49 351.651 512.245 355.401 516.854 355.401H619.797C622.443 355.401 624.875 354.188 626.474 352.073C628.068 349.958 628.562 347.281 627.833 344.734L615.365 301.161C614.682 298.771 612.464 297.099 609.974 297.099H516.854Z" fill="#E20304" fill-opacity="0.99"/>
<path d="M565.068 292.146H574.443V359.766H565.068V292.146Z" fill="#E20304" fill-opacity="0.99"/>
<path d="M575.661 375.885V382.656C575.661 388.214 580.167 392.714 585.719 392.714H605.38C610.937 392.714 615.437 388.214 615.437 382.656V375.885H588.667" fill="#E20304" fill-opacity="0.99"/>
<path d="M500.651 375.885V382.656C500.651 388.214 505.156 392.714 510.708 392.714H530.37C535.927 392.714 540.427 388.214 540.427 382.656V375.885H513.656" fill="#E20304" fill-opacity="0.99"/>
<path d="M618.974 137.844V198.828C618.974 205.979 613.182 211.771 606.031 211.771H348.26C342.437 206.38 336.797 200.781 331.354 195.021V122.859C331.354 115.635 337.214 109.776 344.453 109.776H436.818V36.5989C436.818 30.2187 441.984 25.0573 448.349 25.0573H511.937C524.286 25.0573 535.104 33.2239 538.495 45.0729L542.578 59.3177L557.021 109.776L603.443 118.932C612.474 120.719 618.974 128.641 618.974 137.844Z" fill="#63784D" fill-opacity="0.99"/>
<path d="M618.974 178.948V198.828C618.974 205.984 613.172 211.792 606.016 211.792H341.938C336.089 211.792 350.37 207.052 350.37 201.208C350.37 201.208 337.208 191.896 344.453 191.896H606.031C613.182 191.891 618.974 186.099 618.974 178.948Z" fill="#829E76" fill-opacity="0.99"/>
<path d="M605.536 211.781H491.49C491.49 180.292 517.026 154.755 548.516 154.755C580.01 154.755 605.536 180.292 605.536 211.781Z" fill="#829E76" fill-opacity="0.99"/>
<path d="M457.135 211.792H348.276L348.26 211.776C346.599 210.234 344.932 208.661 343.297 207.073C345.688 177.776 370.208 154.766 400.125 154.766C431.609 154.766 457.135 180.286 457.135 211.792Z" fill="#829E76" fill-opacity="0.99"/>
<path d="M596.016 211.781C596.016 238.016 574.75 259.281 548.516 259.281C522.281 259.281 501.016 238.016 501.016 211.781C501.016 185.547 522.281 164.281 548.516 164.281C574.75 164.281 596.016 185.547 596.016 211.781Z" fill="#321B25" fill-opacity="0.99"/>
<path d="M572.302 211.781C572.302 224.917 561.651 235.568 548.516 235.568C535.38 235.568 524.729 224.917 524.729 211.781C524.729 198.646 535.38 187.995 548.516 187.995C561.651 187.995 572.302 198.646 572.302 211.781Z" fill="#9B878D" fill-opacity="0.99"/>
<path d="M548.516 239.969C532.974 239.969 520.328 227.323 520.328 211.781C520.328 196.24 532.974 183.594 548.516 183.594C564.057 183.594 576.703 196.24 576.703 211.781C576.703 227.323 564.057 239.969 548.516 239.969ZM548.516 192.401C537.828 192.401 529.135 201.094 529.135 211.781C529.135 222.469 537.828 231.161 548.516 231.161C559.203 231.161 567.896 222.469 567.896 211.781C567.896 201.094 559.203 192.401 548.516 192.401Z" fill="#321B25" fill-opacity="0.99"/>
<path d="M447.609 211.776C447.609 238.01 426.344 259.276 400.109 259.276C373.875 259.276 352.604 238.01 352.604 211.776C352.604 185.542 373.875 164.271 400.109 164.271C426.344 164.271 447.609 185.542 447.609 211.776Z" fill="#321B25" fill-opacity="0.99"/>
<path d="M423.891 211.776C423.891 224.911 413.245 235.562 400.109 235.562C386.974 235.562 376.323 224.911 376.323 211.776C376.323 198.641 386.974 187.99 400.109 187.99C413.245 187.99 423.891 198.641 423.891 211.776Z" fill="#9B878D" fill-opacity="0.99"/>
<path d="M400.109 239.964C384.568 239.964 371.922 227.318 371.922 211.776C371.922 196.234 384.568 183.589 400.109 183.589C415.651 183.589 428.297 196.234 428.297 211.776C428.297 227.318 415.651 239.964 400.109 239.964ZM400.109 192.396C389.422 192.396 380.724 201.089 380.724 211.776C380.724 222.464 389.422 231.156 400.109 231.156C410.797 231.156 419.49 222.464 419.49 211.776C419.49 201.089 410.797 192.396 400.109 192.396Z" fill="#321B25" fill-opacity="0.99"/>
<path d="M618.974 139.38V166.844C616.141 171.052 611.661 174.089 606.349 175.026C605.354 175.219 604.172 175.328 602.974 175.328H597.823C587.188 175.328 578.542 166.682 578.542 156.047V150.193C578.542 139.557 587.193 130.896 597.823 130.896H602.974C604.172 130.896 605.354 131.005 606.474 131.224C611.714 132.135 616.156 135.172 618.974 139.38Z" fill="#829E76" fill-opacity="0.99"/>
<path d="M614.099 150.193V156.047C614.099 161.521 610.135 166.068 604.932 166.979C604.297 167.104 603.641 167.156 602.974 167.156H597.828C591.688 167.156 586.714 162.187 586.714 156.047V150.193C586.714 144.047 591.688 139.068 597.828 139.068H602.974C603.641 139.068 604.297 139.12 604.932 139.245C610.135 140.156 614.099 144.714 614.099 150.193Z" fill="#EA9810" fill-opacity="0.99"/>
<path d="M614.099 150.193V156.047C614.099 161.521 610.135 166.068 604.932 166.979C599.719 166.068 595.755 161.521 595.755 156.047V150.193C595.755 144.719 599.719 140.156 604.932 139.245C610.135 140.156 614.099 144.714 614.099 150.193Z" fill="#F4D009" fill-opacity="0.99"/>
<path d="M521.755 109.776H467.182C460.141 109.776 454.422 104.057 454.422 97V55.4323C454.422 48.375 460.141 42.6719 467.182 42.6719H511.938C516.391 42.6719 520.339 45.6458 521.573 49.9115L534.042 93.4844C536.365 101.656 530.25 109.776 521.755 109.776Z" fill="#646467" fill-opacity="0.99"/>
<path d="M511.693 42.6719L469.031 109.776H467.182C460.135 109.776 454.417 104.057 454.417 97V55.4323C454.417 48.375 460.135 42.6719 467.182 42.6719H511.693Z" fill="#ACC1D3" fill-opacity="0.99"/>
<path d="M521.766 114.172H467.182C457.719 114.172 450.016 106.469 450.016 97.0052V55.4271C450.016 45.9635 457.719 38.2604 467.182 38.2604H511.943C518.344 38.2604 524.036 42.5573 525.797 48.7083L538.271 92.2812C539.766 97.5104 538.745 103 535.474 107.339C532.198 111.682 527.203 114.172 521.766 114.172ZM467.182 47.0677C462.573 47.0677 458.823 50.8177 458.823 55.4271V97.0052C458.823 101.615 462.573 105.37 467.182 105.37H521.766C524.411 105.37 526.844 104.156 528.443 102.036C530.036 99.9219 530.531 97.25 529.802 94.7031L517.333 51.1302C516.651 48.7344 514.432 47.0677 511.943 47.0677H467.182Z" fill="#829E76" fill-opacity="0.99"/>
<path d="M454.51 125.854V132.625C454.51 138.177 459.016 142.682 464.568 142.682H484.229C489.786 142.682 494.286 138.177 494.286 132.625V125.854H467.516" fill="#829E76" fill-opacity="0.99"/>
<path d="M348.495 167.776H343.042C340.667 167.776 338.74 165.849 338.74 163.469V136.932C338.74 134.552 340.667 132.625 343.042 132.625H348.495C350.87 132.625 352.797 134.552 352.797 136.932V163.474C352.797 165.849 350.87 167.776 348.495 167.776Z" fill="#F4D009" fill-opacity="0.99"/>
<path d="M627.526 211.792H614.286C610.708 211.792 607.812 208.891 607.812 205.312V195.516C607.812 191.937 610.714 189.036 614.286 189.036H627.526C633.349 189.036 638.073 193.76 638.073 199.589V201.245C638.073 207.068 633.349 211.792 627.526 211.792Z" fill="#9B878D" fill-opacity="0.99"/>
<path d="M347.266 195.141V205.687C347.266 209.057 344.521 211.792 341.161 211.792H333.417C330.526 211.792 328.177 209.443 328.177 206.552V194.276C328.177 191.385 330.526 189.036 333.417 189.036H341.161C344.531 189.036 347.266 191.771 347.266 195.141Z" fill="#9B878D" fill-opacity="0.99"/>
<path d="M409.276 273.219V334.203C409.276 341.359 403.484 347.151 396.333 347.151H138.562C132.734 341.755 127.099 336.161 121.656 330.396V258.24C121.656 251.01 127.516 245.156 134.755 245.156H227.12V171.974C227.12 165.594 232.286 160.432 238.651 160.432H302.24C314.589 160.432 325.406 168.599 328.797 180.453L332.88 194.693L347.323 245.156L393.745 254.307C402.776 256.094 409.276 264.021 409.276 273.219Z" fill="#ACC1D3" fill-opacity="0.99"/>
<path d="M409.276 314.323V334.203C409.276 341.365 403.474 347.167 396.318 347.167H132.234C126.391 347.167 140.672 342.432 140.672 336.589C140.672 336.589 127.51 327.271 134.755 327.271H396.333C403.484 327.271 409.276 321.474 409.276 314.323Z" fill="#394064" fill-opacity="0.99"/>
<path d="M395.839 347.161H281.792C281.792 315.667 307.328 290.135 338.818 290.135C370.312 290.135 395.839 315.667 395.839 347.161Z" fill="#394064" fill-opacity="0.99"/>
<path d="M247.432 347.167H138.578L138.563 347.151C136.896 345.609 135.234 344.036 133.599 342.448C135.99 313.151 160.51 290.141 190.427 290.141C221.911 290.141 247.432 315.667 247.432 347.167Z" fill="#394064" fill-opacity="0.99"/>
<path d="M386.318 347.161C386.318 373.396 365.052 394.661 338.818 394.661C312.583 394.661 291.312 373.396 291.312 347.161C291.312 320.927 312.583 299.656 338.818 299.656C365.052 299.656 386.318 320.927 386.318 347.161Z" fill="#321B25" fill-opacity="0.99"/>
<path d="M362.604 347.161C362.604 360.297 351.953 370.943 338.818 370.943C325.682 370.943 315.031 360.297 315.031 347.161C315.031 334.026 325.682 323.375 338.818 323.375C351.953 323.375 362.604 334.026 362.604 347.161Z" fill="#9B878D" fill-opacity="0.99"/>
<path d="M338.818 375.349C323.276 375.349 310.63 362.703 310.63 347.161C310.63 331.615 323.276 318.974 338.818 318.974C354.359 318.974 367.005 331.615 367.005 347.161C367.005 362.703 354.359 375.349 338.818 375.349ZM338.818 327.776C328.13 327.776 319.438 336.474 319.438 347.161C319.438 357.849 328.13 366.542 338.818 366.542C349.505 366.542 358.198 357.849 358.198 347.161C358.198 336.474 349.505 327.776 338.818 327.776Z" fill="#321B25" fill-opacity="0.99"/>
<path d="M237.911 347.156C237.911 373.391 216.646 394.656 190.411 394.656C164.177 394.656 142.906 373.391 142.906 347.156C142.906 320.917 164.177 299.651 190.411 299.651C216.646 299.651 237.911 320.917 237.911 347.156Z" fill="#321B25" fill-opacity="0.99"/>
<path d="M214.193 347.156C214.193 360.292 203.547 370.937 190.411 370.937C177.276 370.937 166.625 360.292 166.625 347.156C166.625 334.016 177.276 323.37 190.411 323.37C203.547 323.37 214.193 334.016 214.193 347.156Z" fill="#9B878D" fill-opacity="0.99"/>
<path d="M190.411 375.339C174.865 375.339 162.224 362.698 162.224 347.156C162.224 331.609 174.865 318.969 190.411 318.969C205.953 318.969 218.599 331.609 218.599 347.156C218.599 362.698 205.953 375.339 190.411 375.339ZM190.411 327.771C179.724 327.771 171.026 336.469 171.026 347.156C171.026 357.844 179.724 366.536 190.411 366.536C201.099 366.536 209.792 357.844 209.792 347.156C209.792 336.469 201.099 327.771 190.411 327.771Z" fill="#321B25" fill-opacity="0.99"/>
<path d="M409.276 274.755V302.224C406.443 306.427 401.964 309.469 396.651 310.406C395.656 310.599 394.474 310.703 393.276 310.703H388.125C377.49 310.703 368.844 302.057 368.844 291.422V285.568C368.844 274.932 377.495 266.271 388.125 266.271H393.276C394.474 266.271 395.656 266.38 396.776 266.599C402.016 267.51 406.458 270.547 409.276 274.755Z" fill="#394064" fill-opacity="0.99"/>
<path d="M404.401 285.568V291.422C404.401 296.896 400.438 301.448 395.234 302.359C394.599 302.479 393.943 302.536 393.276 302.536H388.13C381.984 302.536 377.016 297.563 377.016 291.422V285.568C377.016 279.427 381.984 274.443 388.13 274.443H393.276C393.943 274.443 394.599 274.495 395.234 274.62C400.438 275.531 404.401 280.094 404.401 285.568Z" fill="#EA9810" fill-opacity="0.99"/>
<path d="M404.401 285.568V291.422C404.401 296.896 400.437 301.448 395.234 302.359C390.021 301.448 386.057 296.901 386.057 291.422V285.568C386.057 280.094 390.021 275.531 395.234 274.62C400.437 275.531 404.401 280.094 404.401 285.568Z" fill="#F4D009" fill-opacity="0.99"/>
<path d="M312.057 245.156H257.484C250.438 245.156 244.724 239.438 244.724 232.375V190.812C244.724 183.75 250.438 178.047 257.484 178.047H302.24C306.693 178.047 310.641 181.026 311.875 185.292L324.344 228.865C326.667 237.031 320.552 245.156 312.057 245.156Z" fill="#646467" fill-opacity="0.99"/>
<path d="M301.995 178.047L259.333 245.156H257.484C250.438 245.156 244.724 239.438 244.724 232.375V190.812C244.724 183.75 250.438 178.047 257.484 178.047H301.995Z" fill="#ACC1D3" fill-opacity="0.99"/>
<path d="M312.068 249.547H257.484C248.021 249.547 240.318 241.849 240.318 232.38V190.807C240.318 181.344 248.021 173.641 257.484 173.641H302.245C308.646 173.641 314.339 177.932 316.099 184.083L328.573 227.656C330.068 232.885 329.047 238.375 325.776 242.714C322.5 247.057 317.505 249.547 312.068 249.547ZM257.484 182.443C252.875 182.443 249.125 186.198 249.125 190.807V232.38C249.125 236.995 252.875 240.745 257.484 240.745H312.068C314.714 240.745 317.151 239.531 318.745 237.417C320.339 235.302 320.833 232.625 320.104 230.083L307.635 186.505C306.953 184.115 304.734 182.443 302.245 182.443H257.484Z" fill="#394064" fill-opacity="0.99"/>
<path d="M244.812 261.229V268C244.812 273.557 249.318 278.057 254.87 278.057H274.531C280.089 278.057 284.589 273.557 284.589 268V261.229H257.818" fill="#394064" fill-opacity="0.99"/>
<path d="M138.797 303.151H133.344C130.964 303.151 129.042 301.224 129.042 298.849V272.307C129.042 269.932 130.964 268.005 133.344 268.005H138.797C141.172 268.005 143.099 269.932 143.099 272.307V298.849C143.099 301.224 141.172 303.151 138.797 303.151Z" fill="#F4D009" fill-opacity="0.99"/>
<path d="M417.828 347.167H404.589C401.01 347.167 398.115 344.266 398.115 340.687V330.891C398.115 327.312 401.016 324.417 404.589 324.417H417.828C423.651 324.417 428.375 329.135 428.375 334.964V336.62C428.375 342.443 423.651 347.167 417.828 347.167Z" fill="#9B878D" fill-opacity="0.99"/>
<path d="M137.568 330.521V341.068C137.568 344.437 134.823 347.167 131.464 347.167H123.719C120.828 347.167 118.479 344.823 118.479 341.927V329.656C118.479 326.766 120.828 324.417 123.719 324.417H131.464C134.833 324.417 137.568 327.151 137.568 330.521Z" fill="#9B878D" fill-opacity="0.99"/>
<path d="M430.734 470.859V552.135C430.734 560.594 423.88 567.464 415.406 567.464H85.7083C84.5104 566.094 83.3125 564.729 82.1406 563.339C77.4167 557.823 72.875 552.135 68.5156 546.328C67.9167 545.531 67.3177 544.724 66.7344 543.932C65.7708 542.62 64.8125 541.297 63.8646 539.974C63.7812 539.849 63.6823 539.724 63.599 539.599C62.3021 537.786 61.0208 535.948 59.7656 534.109C55.8125 528.312 52.0208 522.391 48.4115 516.333C47.7135 515.177 47.0312 514.005 46.3646 512.833C44.4271 509.49 42.5312 506.104 40.7083 502.677C17.0104 458.417 2.78646 408.302 0.765625 355.068C6.60417 351.115 13.6094 348.786 21.1615 348.687L36.25 348.521L56.9375 348.297L334.141 346.542C348.661 346.542 361.396 356.115 365.49 369.974C365.516 370.057 365.531 370.141 365.557 370.229L368.193 379.396L385.427 439.635C385.844 441.115 386.484 442.479 387.323 443.703C388.198 445 389.271 446.141 390.51 447.089C391.698 447.995 393.031 448.703 394.484 449.208L422.234 458.891C427.318 460.661 430.734 465.464 430.734 470.859Z" fill="#F4D009" fill-opacity="0.99"/>
<path d="M36.25 348.521C19.0156 351.99 6.03125 367.844 6.03125 386.01V403.271C3.17708 387.557 1.39062 371.469 0.765625 355.068C6.60417 351.115 13.6094 348.786 21.1771 348.688L36.25 348.521Z" fill="#EA9810" fill-opacity="0.99"/>
<path d="M430.734 528.604V552.135C430.734 560.609 423.865 567.464 415.406 567.464H85.7083C79.0469 559.911 72.7083 552.052 66.7344 543.932H415.406C423.865 543.932 430.734 537.078 430.734 528.604Z" fill="#EA9810" fill-opacity="0.99"/>
<path d="M414.833 567.458H279.901C279.901 530.203 310.109 499.99 347.37 499.99C384.63 499.99 414.833 530.203 414.833 567.458Z" fill="#EA9810" fill-opacity="0.99"/>
<path d="M127.057 567.464H85.7084C84.5105 566.094 83.3125 564.729 82.1407 563.339C77.4167 557.823 72.875 552.135 68.5157 546.328C67.9167 545.531 67.3177 544.724 66.7344 543.932C65.7709 542.62 64.8125 541.297 63.8646 539.974C63.7813 539.849 63.6823 539.724 63.599 539.599C62.3021 537.786 61.0209 535.948 59.7657 534.109C55.8125 528.313 52.0209 522.391 48.4115 516.333C47.7136 515.177 47.0313 514.005 46.3646 512.833C44.4271 509.49 42.5313 506.104 40.7084 502.677C46.698 500.922 53.0365 499.99 59.599 499.99C96.8542 499.99 127.057 530.193 127.057 567.464Z" fill="#EA9810" fill-opacity="0.99"/>
<path d="M403.568 567.458C403.568 598.495 378.406 623.661 347.365 623.661C316.328 623.661 291.167 598.495 291.167 567.458C291.167 536.422 316.328 511.26 347.365 511.26C378.406 511.26 403.568 536.422 403.568 567.458Z" fill="#321B25" fill-opacity="0.99"/>
<path d="M115.786 567.464C115.786 576.391 113.698 584.849 109.99 592.344C101.479 584.474 93.3698 576.156 85.7084 567.464C79.0469 559.911 72.7084 552.052 66.7344 543.932C65.7709 542.62 64.8125 541.297 63.8646 539.974C58.4011 532.323 53.2448 524.437 48.4115 516.333C47.7136 515.177 47.0313 514.005 46.3646 512.833C50.6146 511.802 55.0417 511.26 59.599 511.26C90.625 511.26 115.786 536.422 115.786 567.464Z" fill="#321B25" fill-opacity="0.99"/>
<path d="M375.505 567.458C375.505 583 362.906 595.599 347.365 595.599C331.828 595.599 319.229 583 319.229 567.458C319.229 551.917 331.828 539.318 347.365 539.318C362.906 539.318 375.505 551.917 375.505 567.458Z" fill="#9B878D" fill-opacity="0.99"/>
<path d="M347.365 600.807C328.979 600.807 314.021 585.844 314.021 567.458C314.021 549.068 328.979 534.109 347.365 534.109C365.755 534.109 380.714 549.073 380.714 567.458C380.714 585.844 365.755 600.807 347.365 600.807ZM347.365 544.526C334.724 544.526 324.438 554.813 324.438 567.458C324.438 580.104 334.724 590.391 347.365 590.391C360.01 590.391 370.297 580.099 370.297 567.458C370.297 554.813 360.01 544.526 347.365 544.526Z" fill="#321B25" fill-opacity="0.99"/>
<path d="M87.7292 567.464C87.7292 568.187 87.698 568.911 87.6459 569.62C86.9896 568.911 86.349 568.187 85.7084 567.464C79.0469 559.911 72.7084 552.052 66.7344 543.932C65.7709 542.62 64.8125 541.297 63.8646 539.974C63.7813 539.849 63.6823 539.724 63.599 539.599C77.2396 541.536 87.7292 553.266 87.7292 567.464Z" fill="#9B878D" fill-opacity="0.99"/>
<path d="M59.7656 534.109C61.0208 535.948 62.3021 537.786 63.599 539.599C63.6823 539.724 63.7812 539.849 63.8646 539.974C64.8125 541.297 65.7708 542.62 66.7344 543.932C67.3177 544.724 67.9167 545.531 68.5156 546.328C75.5104 549.307 80.75 555.661 82.1406 563.339C83.3125 564.729 84.5104 566.094 85.7083 567.464C86.349 568.188 86.9896 568.911 87.6458 569.62C89.1354 571.281 90.6406 572.938 92.1562 574.568C92.6719 572.281 92.9375 569.901 92.9375 567.464C92.9375 549.125 78.0729 534.208 59.7656 534.109Z" fill="#321B25" fill-opacity="0.99"/>
<path d="M430.729 475.667V501.599C428.052 505.568 423.823 508.438 418.812 509.323C417.875 509.5 416.755 509.604 415.625 509.604H410.766C400.724 509.604 392.562 501.443 392.562 491.401V485.875C392.562 475.833 400.724 467.656 410.766 467.656H415.625C416.755 467.656 417.875 467.76 418.927 467.969C423.875 468.828 428.068 471.693 430.729 475.667Z" fill="#EA9810" fill-opacity="0.99"/>
<path d="M426.125 485.875V491.401C426.125 496.568 422.385 500.865 417.474 501.724C416.87 501.839 416.25 501.891 415.625 501.891H410.766C404.964 501.891 400.276 497.198 400.276 491.401V485.875C400.276 480.078 404.964 475.375 410.766 475.375H415.625C416.25 475.375 416.87 475.422 417.474 475.542C422.385 476.401 426.125 480.708 426.125 485.875Z" fill="#646467" fill-opacity="0.99"/>
<path d="M426.125 485.875V491.401C426.125 496.568 422.385 500.865 417.474 501.724C412.552 500.865 408.812 496.568 408.812 491.401V485.875C408.812 480.708 412.552 476.401 417.474 475.536C422.385 476.401 426.125 480.708 426.125 485.875Z" fill="#9B878D" fill-opacity="0.99"/>
<path d="M271.37 379.401H214.177C205.833 379.401 199.073 386.161 199.073 394.505V554.198H286.474V394.505C286.474 386.161 279.708 379.401 271.37 379.401Z" fill="#EA9810" fill-opacity="0.99"/>
<path d="M238.635 399.146V449.062C238.635 453.438 235.089 456.984 230.708 456.984H217.115C215.818 456.984 214.583 456.677 213.505 456.109C210.943 454.802 209.193 452.141 209.193 449.062V399.135C209.193 394.844 212.677 391.359 216.969 391.359H230.854C235.151 391.359 238.635 394.844 238.635 399.146Z" fill="#ACC1D3" fill-opacity="0.99"/>
<path d="M238.635 475.953V546.422C238.635 550.724 235.151 554.203 230.849 554.203H216.964C213.698 554.203 210.896 552.182 209.745 549.318V549.307C209.385 548.417 209.188 547.438 209.188 546.422V475.953C209.188 471.578 212.74 468.031 217.115 468.031H230.708C235.089 468.031 238.635 471.578 238.635 475.953Z" fill="#ACC1D3" fill-opacity="0.99"/>
<path d="M276.354 399.135V449.068C276.354 453.443 272.807 456.99 268.432 456.99H254.833C250.458 456.99 246.911 453.443 246.911 449.068V399.135C246.911 394.844 250.391 391.359 254.682 391.359H268.578C272.875 391.359 276.354 394.839 276.354 399.135Z" fill="#ACC1D3" fill-opacity="0.99"/>
<path d="M254.833 468.031H268.432C272.807 468.031 276.354 471.578 276.354 475.953V546.422C276.354 550.724 272.87 554.208 268.578 554.208H254.682C250.391 554.208 246.911 550.724 246.911 546.422V475.953C246.911 471.573 250.458 468.031 254.833 468.031Z" fill="#ACC1D3" fill-opacity="0.99"/>
<path d="M390.516 447.083C388.552 450.797 384.698 453.12 380.495 453.12H321.99C310.891 453.12 301.901 444.125 301.901 433.031V390.073C301.901 378.979 310.891 369.984 321.99 369.984H365.234C365.344 370.068 365.448 370.146 365.557 370.229L368.187 379.396L385.422 439.641C385.844 441.109 386.484 442.474 387.323 443.708C388.198 445.005 389.271 446.146 390.516 447.083Z" fill="#EA9810" fill-opacity="0.99"/>
<path d="M387.323 443.703H321.99C316.094 443.703 311.312 438.922 311.312 433.031V390.068C311.312 384.177 316.094 379.396 321.99 379.396H368.188L385.422 439.641C385.844 441.109 386.484 442.474 387.323 443.703Z" fill="#ACC1D3" fill-opacity="0.99"/>
<path d="M387.323 443.703H339.349L355.771 379.396H368.188L385.422 439.641C385.844 441.109 386.484 442.474 387.323 443.703Z" fill="#646467" fill-opacity="0.99"/>
<path d="M186.406 405.698V442.646C186.406 455.74 175.75 466.401 162.641 466.401H28.4895C26.875 466.401 25.2968 466.234 23.7812 465.927C15.9531 445.891 9.95829 424.938 6.03121 403.271C5.82288 402.156 5.62496 401.042 5.44788 399.917C8.03642 389.604 17.3854 381.943 28.4895 381.943H162.641C175.75 381.943 186.406 392.599 186.406 405.698Z" fill="#EA9810" fill-opacity="0.99"/>
<path d="M61.9948 398.536V449.818C61.9948 453.776 58.776 456.979 54.8229 456.979H28.5052C24.9791 456.979 21.7343 455.714 19.2395 453.583C17.4114 448.328 15.7135 443.021 14.151 437.646V405.714C14.151 397.786 20.5781 391.359 28.5052 391.359H54.8229C58.776 391.359 61.9948 394.568 61.9948 398.536Z" fill="#ACC1D3" fill-opacity="0.99"/>
<path d="M118.818 398.531V449.812C118.818 453.776 115.609 456.984 111.646 456.984H79.5C75.5365 456.984 72.3281 453.776 72.3281 449.812V398.531C72.3281 394.568 75.5365 391.359 79.5 391.359H111.646C115.609 391.359 118.818 394.568 118.818 398.531Z" fill="#ACC1D3" fill-opacity="0.99"/>
<path d="M176.99 405.708V442.641C176.99 450.568 170.573 456.99 162.646 456.99H136.328C132.365 456.99 129.151 453.776 129.151 449.818V398.531C129.151 394.568 132.365 391.359 136.328 391.359H162.646C170.573 391.359 176.99 397.781 176.99 405.708Z" fill="#ACC1D3" fill-opacity="0.99"/>
<path d="M186.406 488.885C186.406 492.047 183.844 494.609 180.682 494.609H36.5417C34.6355 490.833 32.8073 487.021 31.0521 483.161H180.682C182.255 483.161 183.693 483.802 184.734 484.833C185.766 485.875 186.406 487.297 186.406 488.885Z" fill="#321B25" fill-opacity="0.99"/>
<path d="M176.99 405.708V442.641C176.99 450.568 170.573 456.99 162.646 456.99H145.26L162.016 391.359H162.646C170.573 391.359 176.99 397.781 176.99 405.708Z" fill="#646467" fill-opacity="0.99"/>
<path d="M238.635 399.146V449.062C238.635 453.438 235.089 456.984 230.708 456.984H217.115C215.818 456.984 214.583 456.677 213.505 456.109L230.042 391.359H230.849C235.151 391.359 238.635 394.844 238.635 399.146Z" fill="#646467" fill-opacity="0.99"/>
<path d="M238.635 475.953V546.422C238.635 550.724 235.151 554.203 230.849 554.203H216.964C213.698 554.203 210.896 552.182 209.745 549.318V549.307L230.521 468.026H230.708C235.089 468.031 238.635 471.578 238.635 475.953Z" fill="#646467" fill-opacity="0.99"/>
<path d="M276.354 399.146V449.062C276.354 453.438 272.802 456.984 268.427 456.984H254.833C253.536 456.984 252.302 456.677 251.219 456.109L267.76 391.359H268.568C272.87 391.359 276.354 394.844 276.354 399.146Z" fill="#646467" fill-opacity="0.99"/>
<path d="M276.354 475.953V546.422C276.354 550.724 272.87 554.203 268.568 554.203H254.682C251.417 554.203 248.609 552.182 247.464 549.318V549.307L268.24 468.026H268.427C272.802 468.031 276.354 471.578 276.354 475.953Z" fill="#646467" fill-opacity="0.99"/>
<path d="M118.818 398.531V449.812C118.818 453.776 115.609 456.984 111.646 456.984H86.6041L103.359 391.359H111.646C115.609 391.359 118.818 394.568 118.818 398.531Z" fill="#646467" fill-opacity="0.99"/>
<path d="M61.9896 398.531V449.812C61.9896 453.776 58.7813 456.984 54.8177 456.984H29.4584L46.2136 391.359H54.8177C58.7813 391.359 61.9896 394.568 61.9896 398.531Z" fill="#646467" fill-opacity="0.99"/>
<path d="M442.76 526.286V543.88C442.76 547.609 439.734 550.62 436.01 550.62H416.583C412.865 550.62 409.839 547.609 409.839 543.88V526.286C409.839 522.568 412.865 519.547 416.583 519.547H436.01C439.74 519.547 442.76 522.568 442.76 526.286Z" fill="#646467" fill-opacity="0.99"/>
<path d="M442.76 526.286V543.88C442.76 547.609 439.734 550.62 436.01 550.62H430.589C426.87 550.62 423.849 547.609 423.849 543.88V526.286C423.849 522.568 426.87 519.547 430.589 519.547H436.01C439.74 519.547 442.76 522.568 442.76 526.286Z" fill="#9B878D" fill-opacity="0.99"/>
<path d="M307.042 87.0677C305.625 85.1927 307.156 82.5729 309.406 80.9115C313.932 77.5677 318.505 74.3073 323.13 71.1198C329.901 66.4271 338.26 64.2031 343.87 72.9792C347.083 77.9792 347.063 82.6146 344.542 86.3021C349.458 85.0677 353.677 85.599 357.625 91.7812C357.901 92.2135 358.182 92.651 358.453 93.0833C364.672 102.87 361.458 109.854 354.609 114.552C350.104 117.641 345.651 120.807 341.255 124.057C338.76 125.901 336.255 125.766 335.151 124.307C325.781 111.896 316.412 99.4844 307.042 87.0677ZM326.953 93.0937C329.198 91.4792 331.464 89.8854 333.734 88.3125C336.203 86.6042 336.005 83.6406 334.604 81.5781C333.167 79.4479 330.453 78.1823 327.932 79.9271C325.609 81.5365 323.302 83.1615 321.01 84.8073C322.99 87.5677 324.974 90.3333 326.953 93.0937ZM346.797 107.823C349.885 105.682 350.615 102.724 347.99 98.8281C347.771 98.5052 347.552 98.1771 347.333 97.8542C344.547 93.7187 341.625 93.5521 338.432 95.7656C336.302 97.2448 334.188 98.7344 332.083 100.245C334.932 104.219 337.781 108.198 340.635 112.172C342.677 110.703 344.729 109.255 346.797 107.823Z" fill="#F4D009" fill-opacity="0.99"/>
<path d="M367.328 69.5C370.714 67.5156 374.13 65.5729 377.563 63.6666C379.625 62.526 381.818 63.7656 382.938 65.8229C383.88 67.5625 384.052 70.1354 381.828 71.3698C378.453 73.2396 375.104 75.151 371.771 77.0989C373.87 80.6875 375.969 84.2708 378.073 87.8594C383.87 84.4687 389.74 81.1979 395.677 78.0469C397.672 76.9844 399.891 78.4791 401.141 80.8906C402.224 82.9739 402.49 85.7187 400.349 86.8594C392.63 90.9531 385.021 95.2656 377.537 99.7812C375.396 101.078 372.646 101.396 371.412 99.401C363.245 86.1927 355.073 72.9896 346.906 59.7812C345.667 57.7864 347.422 55.3177 349.818 53.875C358.151 48.8437 366.625 44.0416 375.219 39.4791C377.615 38.2135 379.823 39.9687 380.906 42.0469C382.156 44.4531 382.026 47.1719 379.896 48.2969C373.547 51.6614 367.266 55.1614 361.063 58.7969C363.151 62.3698 365.24 65.9323 367.328 69.5Z" fill="#F4D009" fill-opacity="0.99"/>
<path d="M406.13 49.0104C409.677 47.3281 413.245 45.6875 416.833 44.0937C418.995 43.1354 421.068 44.5521 422 46.7031C422.792 48.526 422.74 51.1042 420.417 52.1354C416.891 53.7031 413.385 55.3177 409.896 56.9635C411.677 60.7187 413.458 64.4792 415.234 68.2344C421.307 65.3594 427.443 62.6146 433.63 59.9948C435.713 59.1094 437.797 60.7969 438.833 63.3021C439.729 65.4687 439.755 68.2396 437.521 69.1823C429.469 72.5885 421.516 76.2187 413.667 80.0677C411.422 81.1667 408.656 81.2448 407.599 79.151C400.615 65.2812 393.63 51.4167 386.646 37.5469C385.583 35.4531 387.547 33.1458 390.052 31.9219C398.792 27.6354 407.646 23.5885 416.62 19.7969C419.115 18.7344 421.161 20.6823 422.057 22.8437C423.099 25.3594 422.724 28.0417 420.505 28.9844C413.88 31.7865 407.323 34.7292 400.823 37.8021C402.594 41.5365 404.359 45.2708 406.13 49.0104Z" fill="#F4D009" fill-opacity="0.99"/>
<path d="M428.141 18.7865C427.463 17.0885 428.615 14.875 431.297 13.8385C436.578 11.7865 441.896 9.82291 447.25 7.9427C457.521 4.33333 467.088 6.18229 470.677 17.9635C470.713 18.0833 470.75 18.1979 470.786 18.3125C474.385 30.1146 467.838 37.0052 457.88 40.5208C455.49 41.3646 453.104 42.2292 450.729 43.1094C452.562 48.0625 454.401 53.0156 456.234 57.9687C457.047 60.1771 454.755 62.2708 452.078 63.3021C449.396 64.3333 446.292 64.3073 445.417 62.1302C439.661 47.6771 433.901 33.2344 428.141 18.7865ZM442.292 20.3385C444.083 25.1771 445.875 30.0156 447.667 34.8542C450.088 33.9583 452.516 33.0781 454.948 32.2187C459.073 30.7656 460.844 27.7031 459.26 22.974C459.172 22.7187 459.088 22.4635 459 22.2083C457.417 17.4792 454.062 16.125 449.797 17.625C447.286 18.5104 444.781 19.4167 442.292 20.3385Z" fill="#F4D009" fill-opacity="0.99"/>
<path d="M67.1822 257.615C67.3749 255.276 70.2604 254.344 73.052 254.609C78.6458 255.146 84.2343 255.771 89.802 256.484C97.9791 257.51 105.687 261.443 104 271.719C103.052 277.583 99.9426 281.021 95.5989 282.083C100.088 284.448 102.87 287.661 101.682 294.901C101.599 295.406 101.516 295.917 101.432 296.422C99.5208 307.859 92.4687 310.917 84.2291 309.833C78.8176 309.13 73.3854 308.51 67.9426 307.995C64.8593 307.698 63.0781 305.932 63.2291 304.104C64.5468 288.609 65.8645 273.115 67.1822 257.615ZM77.9739 275.396C80.7291 275.698 83.4739 276.021 86.2187 276.365C89.1927 276.745 91.026 274.406 91.3645 271.932C91.7135 269.385 90.5364 266.635 87.4947 266.25C84.6926 265.896 81.8906 265.568 79.0833 265.26C78.7135 268.635 78.3437 272.016 77.9739 275.396ZM82.9114 299.609C86.6406 300.078 89.1614 298.365 89.8072 293.708C89.8593 293.323 89.9166 292.937 89.9687 292.547C90.6562 287.609 88.5937 285.531 84.7343 285.052C82.1614 284.729 79.5937 284.427 77.0156 284.146C76.4843 289.01 75.9531 293.87 75.4218 298.734C77.9218 299.005 80.4166 299.297 82.9114 299.609Z" fill="#E20304" fill-opacity="0.99"/>
<path d="M123.786 284.792C127.63 285.578 131.469 286.411 135.297 287.286C137.594 287.812 138.401 290.203 137.859 292.479C137.401 294.406 135.812 296.438 133.333 295.87C129.573 295.005 125.802 294.193 122.021 293.417C121.187 297.49 120.354 301.562 119.526 305.635C126.109 306.984 132.661 308.469 139.182 310.083C141.375 310.63 142.026 313.224 141.349 315.854C140.766 318.125 139.13 320.349 136.776 319.766C128.292 317.661 119.755 315.786 111.167 314.156C108.703 313.688 106.448 312.089 106.859 309.781C109.599 294.495 112.339 279.208 115.073 263.922C115.484 261.609 118.437 260.948 121.182 261.474C130.75 263.292 140.26 265.375 149.703 267.724C152.333 268.375 152.807 271.161 152.224 273.427C151.547 276.057 149.635 277.99 147.297 277.406C140.323 275.672 133.312 274.083 126.266 272.646C125.443 276.698 124.615 280.745 123.786 284.792Z" fill="#E20304" fill-opacity="0.99"/>
<path d="M166.354 295.448C170.115 296.568 173.87 297.729 177.604 298.938C179.849 299.667 180.448 302.109 179.708 304.333C179.083 306.214 177.318 308.099 174.901 307.318C171.229 306.13 167.542 304.99 163.844 303.891C162.661 307.875 161.474 311.859 160.292 315.844C166.729 317.755 173.13 319.807 179.49 321.99C181.625 322.724 182.052 325.365 181.151 327.927C180.37 330.141 178.542 332.219 176.25 331.427C167.979 328.583 159.63 325.974 151.224 323.599C148.818 322.917 146.708 321.13 147.318 318.865C151.38 303.88 155.443 288.891 159.5 273.901C160.109 271.635 163.109 271.229 165.797 271.99C175.161 274.635 184.453 277.536 193.667 280.703C196.229 281.583 196.458 284.401 195.677 286.609C194.776 289.172 192.703 290.922 190.427 290.141C183.625 287.802 176.776 285.609 169.885 283.563C168.708 287.526 167.531 291.49 166.354 295.448Z" fill="#E20304" fill-opacity="0.99"/>
<path d="M202.922 287.651C203.547 285.932 205.88 285.057 208.573 286.078C213.87 288.078 219.141 290.167 224.38 292.339C234.443 296.51 240.323 304.276 235.13 315.443C235.078 315.557 235.031 315.667 234.979 315.776C229.776 326.964 220.302 327.724 210.542 323.687C208.198 322.724 205.849 321.771 203.49 320.839C201.552 325.755 199.609 330.667 197.667 335.578C196.802 337.76 193.693 337.797 191.01 336.771C188.328 335.75 186.031 333.656 186.839 331.453C192.198 316.849 197.557 302.25 202.922 287.651ZM212.411 298.255C210.516 303.057 208.62 307.854 206.724 312.651C209.125 313.599 211.516 314.568 213.901 315.552C217.943 317.219 221.307 316.13 223.286 311.547C223.396 311.302 223.5 311.052 223.604 310.802C225.583 306.224 223.995 302.979 219.813 301.245C217.354 300.229 214.885 299.234 212.411 298.255Z" fill="#E20304" fill-opacity="0.99"/>
</g>
<defs>
<clipPath id="clip0_35_229">
<rect width="682.667" height="682.667" fill="white" transform="translate(0.5 0.5)"/>
</clipPath>
</defs>
</svg>
