<svg width="512" height="512" viewBox="0 0 512 512" fill="none" xmlns="http://www.w3.org/2000/svg">
<g clip-path="url(#clip0_25_117)">
<path d="M512 256C512 397.385 397.385 512 256 512C114.615 512 0 397.385 0 256C0 114.615 114.615 0 256 0C397.385 0 512 114.615 512 256Z" fill="#F1630B"/>
<path d="M499.628 254.545C499.628 373.838 402.921 470.545 283.628 470.545C164.335 470.545 67.628 373.838 67.628 254.545C67.628 135.251 164.334 38.545 283.628 38.545C402.922 38.545 499.628 135.252 499.628 254.545Z" fill="#F99409"/>
<path d="M476 126.5V436.5C476 442.023 471.523 446.5 466 446.5H60C54.477 446.5 50 442.023 50 436.5V126.5C50 120.977 54.477 116.5 60 116.5H466C471.523 116.5 476 120.977 476 126.5Z" fill="#FFF5F5"/>
<path d="M70 446.5H46C40.477 446.5 36 442.023 36 436.5V126.5C36 120.977 40.477 116.5 46 116.5H70C64.477 116.5 60 120.977 60 126.5V436.5C60 442.023 64.477 446.5 70 446.5Z" fill="#898387"/>
<path d="M476 75.5V126.5H59.883C54.425 126.5 50 122.075 50 116.617V82.34C50 73.039 57.54 65.5 66.84 65.5H466C471.523 65.5 476 69.977 476 75.5Z" fill="#F53532"/>
<path d="M70 65.5C64.477 65.5 60 69.977 60 75.5V126.5H36V75.5C36 69.977 40.477 65.5 46 65.5H70Z" fill="#BA022B"/>
<path d="M433.692 180H78.308C72.785 180 68.308 184.477 68.308 190V408.182C68.308 413.705 72.785 418.182 78.308 418.182H433.692C439.214 418.182 443.692 413.705 443.692 408.182V190C443.692 184.477 439.215 180 433.692 180ZM139.385 398.182H88.308V363.637H139.385V398.182ZM139.385 343.636H88.308V309.091H139.385V343.636ZM139.385 289.091H88.308V254.546H139.385V289.091ZM139.385 234.545H88.308V200H139.385V234.545ZM210.461 398.182H159.384V363.637H210.461V398.182ZM210.461 343.636H159.384V309.091H210.461V343.636ZM210.461 289.091H159.384V254.546H210.461V289.091ZM210.461 234.545H159.384V200H210.461V234.545ZM281.538 398.182H230.461V363.637H281.538V398.182ZM281.538 343.636H230.461V309.091H281.538V343.636ZM281.538 289.091H230.461V254.546H281.538V289.091ZM281.538 234.545H230.461V200H281.538V234.545ZM352.615 398.182H301.538V363.637H352.615V398.182ZM352.615 343.636H301.538V309.091H352.615V343.636ZM352.615 289.091H301.538V254.546H352.615V289.091ZM352.615 234.545H301.538V200H352.615V234.545ZM423.692 398.182H372.615V363.637H423.692V398.182ZM423.692 343.636H372.615V309.091H423.692V343.636ZM423.692 289.091H372.615V254.546H423.692V289.091ZM423.692 234.545H372.615V200H423.692V234.545Z" fill="#A6C1D9"/>
<path d="M95.362 56.5V102.383C95.362 107.906 90.884 112.383 85.362 112.383C79.84 112.383 75.362 107.906 75.362 102.383V56.5C75.362 50.977 79.84 46.5 85.362 46.5C90.884 46.5 95.362 50.977 95.362 56.5ZM125.362 46.5C119.84 46.5 115.362 50.977 115.362 56.5V102.383C115.362 107.906 119.84 112.383 125.362 112.383C130.884 112.383 135.362 107.906 135.362 102.383V56.5C135.362 50.977 130.884 46.5 125.362 46.5ZM426.638 46.5C421.116 46.5 416.638 50.977 416.638 56.5V102.383C416.638 107.906 421.116 112.383 426.638 112.383C432.16 112.383 436.638 107.906 436.638 102.383V56.5C436.638 50.977 432.161 46.5 426.638 46.5ZM386.638 46.5C381.116 46.5 376.638 50.977 376.638 56.5V102.383C376.638 107.906 381.116 112.383 386.638 112.383C392.16 112.383 396.638 107.906 396.638 102.383V56.5C396.638 50.977 392.161 46.5 386.638 46.5Z" fill="#70777D"/>
<path d="M126.346 270.815C126.346 277.719 120.75 283.315 113.846 283.315C106.942 283.315 101.346 277.719 101.346 270.815C101.346 263.911 106.942 258.315 113.846 258.315C120.75 258.315 126.346 263.911 126.346 270.815Z" fill="#64586C"/>
<path d="M113.846 225.276C88.736 225.276 68.308 245.705 68.308 270.815C68.308 295.925 88.736 316.354 113.846 316.354C138.956 316.354 159.385 295.925 159.385 270.815C159.385 245.705 138.956 225.276 113.846 225.276ZM113.846 296.354C99.764 296.354 88.308 284.897 88.308 270.815C88.308 256.733 99.765 245.276 113.846 245.276C127.928 245.276 139.385 256.733 139.385 270.815C139.385 284.897 127.928 296.354 113.846 296.354Z" fill="#BA022B"/>
<path d="M356 210C436.634 210 502 275.366 502 356C502 436.634 436.634 502 356 502C275.366 502 210 436.634 210 356C210 275.366 275.366 210 356 210Z" fill="#DF5646"/>
<path d="M356 200C269.981 200 200 269.981 200 356C200 442.019 269.981 512 356 512C442.019 512 512 442.019 512 356C512 269.981 442.019 200 356 200ZM356 492C281.01 492 220 430.991 220 356C220 281.009 281.01 220 356 220C430.99 220 492 281.009 492 356C492 430.991 430.99 492 356 492Z" fill="#BA022B"/>
<path d="M472 356C472 420.065 420.065 472 356 472C291.935 472 240 420.065 240 356C240 291.935 291.935 240 356 240C420.065 240 472 291.935 472 356Z" fill="#898387"/>
<path d="M472 356C472 380.239 464.565 402.742 451.852 421.352C433.242 434.065 410.739 441.5 386.5 441.5C322.435 441.5 270.5 389.565 270.5 325.5C270.5 301.261 277.935 278.758 290.648 260.148C309.258 247.435 331.761 240 356 240C420.065 240 472 291.935 472 356Z" fill="#FFF5F5"/>
<path d="M296.679 381.534L366.679 337.534C371.355 334.594 377.527 336.003 380.467 340.679C383.405 345.355 381.998 351.528 377.321 354.467L307.321 398.467C305.668 399.507 303.828 400.002 302.009 400.002C298.685 400.002 295.433 398.345 293.532 395.322C290.595 390.646 292.002 384.473 296.679 381.534Z" fill="#F53532"/>
<path d="M283.134 398.069C285.895 402.852 284.257 408.968 279.474 411.729C274.691 414.49 268.575 412.852 265.814 408.069C263.053 403.286 264.691 397.17 269.474 394.409C274.257 391.647 280.373 393.286 283.134 398.069ZM432.526 300.271C427.743 303.032 426.104 309.148 428.866 313.931C431.628 318.714 437.743 320.353 442.526 317.591C447.309 314.83 448.948 308.714 446.186 303.931C443.425 299.148 437.309 297.509 432.526 300.271ZM269.474 317.591C264.691 314.83 263.052 308.714 265.814 303.931C268.575 299.148 274.691 297.509 279.474 300.271C284.257 303.033 285.896 309.148 283.134 313.931C280.372 318.714 274.257 320.353 269.474 317.591ZM446.186 408.069C448.947 403.286 447.309 397.17 442.526 394.409C437.743 391.648 431.627 393.286 428.866 398.069C426.105 402.852 427.743 408.968 432.526 411.729C437.309 414.49 443.425 412.852 446.186 408.069ZM366 450.138C366 444.615 361.523 440.138 356 440.138C350.477 440.138 346 444.615 346 450.138C346 455.661 350.477 460.138 356 460.138C361.523 460.138 366 455.661 366 450.138Z" fill="#A6C1D9"/>
<path d="M366 266V386C366 391.523 361.522 396 356 396C350.478 396 346 391.523 346 386V266C346 260.477 350.478 256 356 256C361.522 256 366 260.477 366 266Z" fill="#747474"/>
<path d="M373.5 356C373.5 365.665 365.665 373.5 356 373.5C346.335 373.5 338.5 365.665 338.5 356C338.5 346.335 346.335 338.5 356 338.5C365.665 338.5 373.5 346.335 373.5 356Z" fill="#8B8287"/>
</g>
<defs>
<clipPath id="clip0_25_117">
<rect width="512" height="512" fill="white"/>
</clipPath>
</defs>
</svg>
