<svg width="513" height="513" viewBox="0 0 513 513" fill="none" xmlns="http://www.w3.org/2000/svg">
<g clip-path="url(#clip0_35_656)">
<path d="M51.371 150.5C46.798 150.5 43.934 145.51 46.287 141.589C46.305 141.559 46.323 141.53 46.34 141.5C89.178 70.204 167.268 22.5 256.5 22.5C349.437 22.5 430.287 74.247 471.811 150.5H51.371Z" fill="white" fill-opacity="0.99"/>
<path d="M501.5 267.5C501.5 338.135 471.608 401.788 423.785 446.5H89.215C41.392 401.788 11.5 338.135 11.5 267.5C11.5 221.422 24.22 178.316 46.341 141.5H466.66C488.78 178.316 501.5 221.422 501.5 267.5Z" fill="#394064" fill-opacity="0.99"/>
<path d="M150.488 72.989V431.5C150.488 437.023 146.011 441.5 140.488 441.5H96.5C90.977 441.5 86.5 437.023 86.5 431.5V72.989C86.5 67.466 90.977 62.989 96.5 62.989H140.488C146.011 62.989 150.488 67.467 150.488 72.989Z" fill="white" fill-opacity="0.99"/>
<path d="M296.138 72.989V431.5C296.138 437.023 291.661 441.5 286.138 441.5H136.733C131.21 441.5 126.733 437.023 126.733 431.5V72.989C126.733 67.466 131.21 62.989 136.733 62.989H286.138C291.661 62.989 296.138 67.467 296.138 72.989Z" fill="#ACC1D3" fill-opacity="0.99"/>
<path d="M202.277 392.544H160.405C138.314 392.544 120.405 374.635 120.405 352.544V118.5C120.405 115.739 122.644 113.5 125.405 113.5H162.277V352.544C162.277 374.635 180.185 392.544 202.277 392.544Z" fill="#F4D009" fill-opacity="0.99"/>
<path d="M262.234 118.5V352.544C262.234 374.635 244.325 392.544 222.234 392.544H192.819C170.728 392.544 152.819 374.635 152.819 352.544V118.5C152.819 115.739 155.058 113.5 157.819 113.5H257.234C259.995 113.5 262.234 115.739 262.234 118.5Z" fill="#F4D009" fill-opacity="0.99"/>
<path d="M177.527 204.8V154.8C177.527 152.039 179.766 149.8 182.527 149.8H232.527C235.288 149.8 237.527 152.039 237.527 154.8V204.8C237.527 207.561 235.288 209.8 232.527 209.8H182.527C179.765 209.8 177.527 207.562 177.527 204.8ZM150.488 350.97V300.97C150.488 298.209 152.727 295.97 155.488 295.97H205.488C208.249 295.97 210.488 298.209 210.488 300.97V350.97C210.488 353.731 208.249 355.97 205.488 355.97H155.488C152.727 355.97 150.488 353.731 150.488 350.97Z" fill="#F4D009" fill-opacity="0.99"/>
<path d="M138.636 228.924L173.991 193.569C175.944 191.616 179.109 191.616 181.062 193.569L216.417 228.924C218.37 230.877 218.37 234.042 216.417 235.995L181.062 271.35C179.109 273.303 175.944 273.303 173.991 271.35L138.636 235.995C136.683 234.043 136.683 230.877 138.636 228.924Z" fill="#EFDB61" fill-opacity="0.99"/>
<path d="M87.33 5.94401C87.72 3.61701 89.56 1.77701 91.887 1.38701C111.721 -1.93399 132.823 4.06701 148.14 19.384C163.457 34.701 169.458 55.803 166.137 75.637C165.747 77.964 163.907 79.804 161.58 80.194C141.746 83.515 120.644 77.514 105.326 62.197C90.01 46.88 84.009 25.778 87.33 5.94401Z" fill="#63784D" fill-opacity="0.99"/>
<path d="M202.466 103.699C204.131 103.978 205.448 105.295 205.727 106.96C208.104 121.155 203.809 136.258 192.847 147.22C181.885 158.182 166.782 162.477 152.587 160.1C150.922 159.821 149.605 158.504 149.326 156.839C146.949 142.644 151.244 127.541 162.206 116.579C173.169 105.617 188.271 101.323 202.466 103.699ZM201.52 254.736C203.185 255.015 204.502 256.332 204.781 257.997C207.158 272.192 202.863 287.295 191.901 298.257C180.939 309.219 165.836 313.514 151.641 311.137C149.976 310.858 148.659 309.541 148.38 307.876C146.003 293.681 150.298 278.578 161.26 267.616C172.223 256.653 187.325 252.359 201.52 254.736Z" fill="#829E76" fill-opacity="0.99"/>
<path d="M438.5 314.515C438.5 385.199 381.199 442.5 310.515 442.5C239.831 442.5 182.53 385.199 182.53 314.515C182.53 289.022 189.984 215.712 202.83 188.265C204.477 184.746 208.008 182.5 211.893 182.5H306.063C378.581 182.5 437.892 240.818 438.494 313.334C438.498 313.738 438.5 314.132 438.5 314.515Z" fill="white" fill-opacity="0.99"/>
<path d="M438.5 314.515C438.5 315.536 438.488 316.555 438.464 317.571C435.771 432.504 262.654 432.504 259.962 317.571C259.938 316.555 259.926 315.537 259.926 314.515C259.926 286.937 268.649 203.395 283.487 182.5H414.94C429.777 203.396 438.5 286.937 438.5 314.515Z" fill="#ACC1D3" fill-opacity="0.99"/>
<path d="M359.09 403.089C344.292 411.222 327.236 415.754 309.101 415.506C255.522 414.773 210.083 369.18 209.521 315.6C209.43 306.97 210.422 298.587 212.369 290.577C212.914 288.335 214.929 286.76 217.236 286.76H261.386C261.386 286.76 264.526 289.002 264.451 290.091C263.913 297.947 263.636 304.691 263.636 309.661C263.636 310.708 263.648 311.752 263.673 312.793C265.087 373.168 312.379 402.604 358.528 401.101C359.644 401.066 360.068 402.551 359.09 403.089Z" fill="#E20304" fill-opacity="0.99"/>
<path d="M492.482 186.818C492.813 201.949 488.662 216.089 481.265 228.004C479.369 231.059 476.797 233.63 473.742 235.527C461.827 242.924 447.687 247.075 432.556 246.744C392.663 245.87 360.129 213.335 359.257 173.442C358.926 158.287 363.091 144.125 370.511 132.199C372.386 129.186 374.923 126.648 377.936 124.774C389.863 117.354 404.024 113.189 419.18 113.52C459.073 114.391 491.608 146.925 492.482 186.818Z" fill="#EA9810" fill-opacity="0.99"/>
<path d="M481.699 227.295C468.557 248.996 444.722 263.5 417.5 263.5C376.079 263.5 342.5 229.921 342.5 188.5C342.5 161.278 357.003 137.443 378.705 124.301C371.85 135.62 367.904 148.897 367.904 163.096C367.904 204.517 401.483 238.096 442.904 238.096C457.103 238.096 470.38 234.15 481.699 227.295Z" fill="#F4D009" fill-opacity="0.99"/>
<path d="M417.5 128.5C450.637 128.5 477.5 155.363 477.5 188.5C477.5 221.637 450.637 248.5 417.5 248.5C384.363 248.5 357.5 221.637 357.5 188.5C357.5 155.363 384.363 128.5 417.5 128.5Z" fill="#EFDB61" fill-opacity="0.99"/>
<path d="M417.5 138.5C445.114 138.5 467.5 160.886 467.5 188.5C467.5 216.114 445.114 238.5 417.5 238.5C389.886 238.5 367.5 216.114 367.5 188.5C367.5 160.886 389.886 138.5 417.5 138.5Z" fill="#F4D009" fill-opacity="0.99"/>
<path d="M427.523 161.132C427.523 167.17 424.533 172.511 419.954 175.753C418.495 176.786 416.506 176.786 415.047 175.753C410.467 172.51 407.478 167.17 407.478 161.132C407.478 155.094 410.468 149.753 415.047 146.511C416.506 145.478 418.495 145.478 419.954 146.511C424.533 149.754 427.523 155.094 427.523 161.132ZM419.953 201.247C418.494 200.214 416.505 200.214 415.046 201.247C410.466 204.49 407.477 209.83 407.477 215.868C407.477 221.906 410.467 227.247 415.046 230.489C416.505 231.522 418.494 231.522 419.953 230.489C424.533 227.246 427.522 221.906 427.522 215.868C427.523 209.829 424.533 204.489 419.953 201.247ZM382.363 165.381C380.739 166.128 379.744 167.85 379.91 169.631C380.428 175.219 383.558 180.478 388.788 183.497C394.017 186.516 400.137 186.597 405.235 184.252C406.859 183.505 407.854 181.783 407.688 180.002C407.17 174.414 404.04 169.155 398.81 166.136C393.58 163.117 387.461 163.036 382.363 165.381ZM429.766 192.749C428.142 193.496 427.147 195.218 427.313 196.999C427.831 202.587 430.961 207.846 436.191 210.865C441.42 213.884 447.54 213.965 452.638 211.62C454.262 210.873 455.257 209.151 455.091 207.37C454.573 201.782 451.443 196.523 446.214 193.504C440.983 190.485 434.864 190.404 429.766 192.749ZM379.91 207.37C379.745 209.15 380.739 210.872 382.363 211.62C387.461 213.965 393.58 213.884 398.81 210.865C404.04 207.846 407.169 202.587 407.687 196.999C407.852 195.219 406.858 193.497 405.234 192.749C400.136 190.404 394.017 190.485 388.787 193.504C383.558 196.523 380.428 201.782 379.91 207.37ZM427.312 180.002C427.147 181.782 428.141 183.504 429.765 184.252C434.863 186.597 440.983 186.516 446.212 183.497C451.441 180.478 454.571 175.219 455.09 169.631C455.255 167.851 454.261 166.129 452.637 165.381C447.539 163.036 441.42 163.117 436.19 166.136C430.96 169.155 427.831 174.414 427.312 180.002Z" fill="#F4D009" fill-opacity="0.99"/>
<path d="M408.655 290.552C410.524 298.233 411.515 306.258 411.515 314.515C411.515 352.866 390.14 386.224 358.654 403.327C311.784 407.744 261.405 379.159 259.962 317.571C259.938 316.555 259.926 315.537 259.926 314.515C259.926 307.922 260.425 298.129 261.386 286.759H403.797C406.095 286.76 408.112 288.32 408.655 290.552Z" fill="#BA042D" fill-opacity="0.99"/>
<path d="M314.697 394.5C282.665 394.5 256.697 368.533 256.697 336.5C256.697 333.739 258.936 331.5 261.697 331.5H277.697C283.204 350.572 300.625 367.993 319.697 373.5V389.5C319.697 392.261 317.459 394.5 314.697 394.5Z" fill="#AD565C" fill-opacity="0.99"/>
<path d="M319.697 341.5V373.5H316.364C295.009 373.5 277.697 356.188 277.697 334.833V331.5H309.697C315.22 331.5 319.697 335.977 319.697 341.5Z" fill="#E1504E" fill-opacity="0.99"/>
<path d="M369.5 281.5C369.5 313.532 343.533 339.5 311.5 339.5C308.739 339.5 306.5 337.261 306.5 334.5V318.5C325.572 312.993 342.993 295.572 348.5 276.5H364.5C367.261 276.5 369.5 278.739 369.5 281.5Z" fill="#F4D009" fill-opacity="0.99"/>
<path d="M316.5 276.5H348.5V279.833C348.5 301.188 331.188 318.5 309.833 318.5H306.5V286.5C306.5 280.977 310.977 276.5 316.5 276.5Z" fill="#F4D009" fill-opacity="0.99"/>
<path d="M261.192 235.775C261.192 244.059 254.476 250.775 246.192 250.775C237.908 250.775 231.192 244.059 231.192 235.775C231.192 227.491 237.908 220.775 246.192 220.775C254.476 220.775 261.192 227.491 261.192 235.775ZM271.697 249.764C265.895 249.764 261.192 254.468 261.192 260.269C261.192 266.07 265.895 270.774 271.697 270.774C277.499 270.774 282.202 266.07 282.202 260.269C282.202 254.468 277.499 249.764 271.697 249.764Z" fill="#BA042D" fill-opacity="0.99"/>
<path d="M418.273 451.5C375.119 489.471 318.499 512.5 256.5 512.5C194.501 512.5 137.881 489.471 94.7271 451.5H418.273Z" fill="#AD565C" fill-opacity="0.99"/>
<path d="M452.5 436.5V456.5C452.5 459.261 450.261 461.5 447.5 461.5H65.5C62.739 461.5 60.5 459.261 60.5 456.5V436.5C60.5 433.739 62.739 431.5 65.5 431.5H447.5C450.261 431.5 452.5 433.739 452.5 436.5Z" fill="#AD565C" fill-opacity="0.99"/>
</g>
<defs>
<clipPath id="clip0_35_656">
<rect width="512" height="512" fill="white" transform="translate(0.5 0.5)"/>
</clipPath>
</defs>
</svg>
