<svg width="513" height="513" viewBox="0 0 513 513" fill="none" xmlns="http://www.w3.org/2000/svg">
<g clip-path="url(#clip0_35_534)">
<path d="M246.671 381.093C409.662 381.093 470.218 148.041 470.218 148.041C428.382 72.8648 348.139 21.9958 256.002 21.9958C120.691 21.9958 11 131.687 11 266.998C11 282.736 12.502 298.122 15.338 313.035C15.341 313.038 83.683 381.093 246.671 381.093Z" fill="#ACC1D3" fill-opacity="0.99"/>
<path d="M405.358 156.57C405.453 164.608 409.818 172.088 418.332 178.799C429.324 187.465 440.018 205.495 449.26 230.941C456.285 250.288 460.026 267.234 460.062 267.403L460.111 267.625L460.223 267.823C460.713 268.687 472.433 289.029 490.166 291.434C493.418 291.876 496.652 291.671 499.855 290.843C500.614 282.997 501.003 275.042 501.003 266.997C501.003 223.823 489.821 183.266 470.217 148.04C455.453 130.939 431.173 132.479 422.279 133.735C421.012 133.914 419.734 133.981 418.457 133.959C417.734 133.972 417.011 133.946 416.29 133.898C413.186 136.854 405.227 145.516 405.358 156.57Z" fill="white" fill-opacity="0.99"/>
<path d="M418.458 133.959C417.181 133.981 415.903 133.914 414.636 133.735C403.889 132.219 370.671 130.256 358.929 161.299C345.426 196.999 324.429 207.334 333.799 235.832C336.317 243.488 334.678 252.855 327.65 259.383C321.936 264.69 318.36 272.266 318.36 280.681C318.36 286.181 319.888 291.322 322.543 295.707C325.871 301.205 327.407 307.628 326.705 314.017C325.798 322.267 327.247 331.587 334.054 340.494H418.457H489.781C494.933 324.09 498.4 306.941 499.995 289.252C477.656 295.521 461.527 267.084 461.527 267.084C461.527 267.084 446.694 199.251 419.26 177.623C391.827 155.994 418.458 133.959 418.458 133.959Z" fill="#9B878D" fill-opacity="0.99"/>
<path d="M367.207 249.226C367.207 249.226 364.004 228.955 367.693 216.883C364.346 214.652 357.879 213.562 354.97 216.406C349.015 222.228 353.378 231.019 355.466 236.572C356.107 238.277 356.521 240.002 356.708 241.73C357.114 245.484 359.15 250.979 367.59 250.849C367.462 250.309 367.331 249.776 367.207 249.226Z" fill="#F6B072" fill-opacity="0.99"/>
<path d="M482.787 216.406C479.878 213.562 473.411 214.652 470.064 216.883C473.753 228.955 470.55 249.226 470.55 249.226C470.425 249.776 470.295 250.308 470.167 250.849C478.607 250.979 480.642 245.484 481.049 241.73C481.236 240.002 481.649 238.278 482.29 236.572C484.379 231.019 488.742 222.228 482.787 216.406Z" fill="#F6B072" fill-opacity="0.99"/>
<path d="M410.846 340.601C394.538 339.571 379.338 335.256 367.415 328.284C367.336 328.238 367.265 328.183 367.189 328.135C363.493 329.708 359.658 331.123 355.894 332.379V453.806H410.846V340.601Z" fill="#9B878D" fill-opacity="0.99"/>
<path d="M469.729 328.133C469.652 328.182 469.581 328.237 469.501 328.284C457.578 335.256 442.379 339.571 426.07 340.601V443.34C438.055 431.779 448.86 419.007 458.299 405.224L470.018 386.305C474.389 378.482 478.359 370.404 481.867 362.081V332.658C477.832 331.334 473.701 329.823 469.729 328.133Z" fill="#9B878D" fill-opacity="0.99"/>
<path d="M410.552 432.274C414.432 433.019 420.789 434.822 427.253 439.104V340.513C424.353 340.725 421.42 340.846 418.458 340.846C415.496 340.846 412.563 340.725 409.662 340.513V432.103C410.239 432.217 410.552 432.274 410.552 432.274Z" fill="#9B878D" fill-opacity="0.99"/>
<path d="M434.835 377.113V400.465C434.835 403.094 436.966 405.224 439.594 405.224H458.298C462.483 399.113 466.389 392.798 470.017 386.305V369.048C463.435 366.032 447.584 361.255 434.835 377.113Z" fill="#BA042D" fill-opacity="0.99"/>
<path d="M434.835 339.715V379.113C447.584 363.255 463.435 368.032 470.017 371.049V328.251C469.922 328.211 469.824 328.173 469.729 328.133C463.542 332.241 449.99 337.607 434.835 339.715Z" fill="#BA042D" fill-opacity="0.99"/>
<path d="M471.587 318.766L459.342 302.737C457.186 299.915 453.314 299.011 450.16 300.643C441.91 304.912 430.355 307.448 418.457 307.448C417.455 307.448 416.457 307.424 415.461 307.388L416.457 308.448C416.457 308.448 401.219 330.261 423.044 342.033C440.493 341.372 456.843 336.969 469.499 329.568C473.303 327.345 474.261 322.266 471.587 318.766Z" fill="#AD565C" fill-opacity="0.99"/>
<path d="M386.755 300.643C383.601 299.011 379.729 299.915 377.573 302.737L365.328 318.766C362.654 322.267 363.612 327.345 367.415 329.569C381.176 337.616 399.299 342.132 418.458 342.132C421.214 342.132 423.946 342.028 426.649 341.844C402.504 330.296 418.458 307.45 418.458 307.45C406.56 307.448 395.006 304.912 386.755 300.643Z" fill="#BA042D" fill-opacity="0.99"/>
<path d="M467.288 210.603C466.072 209.233 465.403 207.631 465.354 205.973C465.166 199.661 463.572 184.211 452.865 177.082C445.27 172.025 434.594 172.077 421.131 177.24C419.774 177.76 418.293 177.775 416.919 177.323C408.282 185.239 406.874 198.987 406.698 204.915C406.648 206.619 405.96 208.264 404.71 209.672C397.821 217.435 399.33 240.113 400.937 249.45C404.496 265.16 409.652 278.858 416.259 290.165C420.952 298.197 427.356 304.956 435.052 310.159C443.764 304.907 450.938 297.693 456.048 288.948C462.477 277.946 467.496 264.613 470.967 249.293C472.469 239.739 474.07 218.245 467.288 210.603Z" fill="#F6B072" fill-opacity="0.99"/>
<path d="M416.797 288.947C410.367 277.942 405.348 264.609 401.884 249.319C400.32 240.231 398.851 218.158 405.556 210.603C406.773 209.233 407.442 207.632 407.491 205.973C407.675 199.81 409.223 184.958 419.26 177.622C418.37 177.677 417.473 177.565 416.625 177.239C403.163 172.078 392.486 172.025 384.892 177.081C374.185 184.211 372.591 199.661 372.403 205.973C372.354 207.632 371.685 209.233 370.468 210.603C363.763 218.158 365.232 240.231 366.796 249.319C370.26 264.609 375.278 277.942 381.709 288.947C388.237 300.119 398.123 308.808 410.299 314.076C415.753 316.435 422.006 316.435 427.458 314.076C430.607 312.714 433.599 311.118 436.423 309.315C428.326 304.144 421.637 297.23 416.797 288.947Z" fill="#F6B072" fill-opacity="0.99"/>
<path d="M491.285 335.498C487.637 334.485 483.696 333.299 479.691 331.928V367.072C484.25 356.897 488.13 346.352 491.285 335.498Z" fill="#ACC1D3" fill-opacity="0.99"/>
<path d="M116.337 318.216C132.38 309.098 138.021 294.312 139.841 287.445C138.298 282.063 137.726 276.235 137.564 271.512C134.161 275.476 130.59 278.791 127.177 281.441C120.656 286.505 112.639 289.293 104.362 289.398C103.739 297.13 101.366 311.351 92.4541 319.578C92.4721 319.646 92.5001 319.709 92.5121 319.779C92.7561 321.224 91.5811 321.911 91.0601 322.657L92.4211 323.119C100.707 325.942 103.617 330.874 103.875 331.054C104.383 330.641 106.477 326.185 116.689 322.656C116.164 321.906 114.992 321.235 115.238 319.78C115.35 319.118 115.75 318.549 116.337 318.216Z" fill="#EA9810" fill-opacity="0.99"/>
<path d="M105.884 289.348C105.216 289.383 104.546 289.407 103.874 289.407C95.424 289.407 87.22 286.603 80.572 281.44C77.159 278.79 73.588 275.475 70.185 271.511C70.022 276.234 69.451 282.062 67.908 287.443C69.728 294.31 75.368 309.097 91.412 318.215C91.998 318.548 92.399 319.118 92.512 319.777C92.756 321.222 91.581 321.909 91.06 322.655C102.471 314.453 105.23 297.893 105.884 289.348Z" fill="#AD565C" fill-opacity="0.99"/>
<path d="M103.875 111.413C103.182 111.413 102.496 111.442 101.809 111.466C98.841 114.094 91.75 121.326 91.094 130.958C90.629 137.774 93.501 144.337 99.63 150.466C109.417 160.254 106.454 181.416 101.086 200.042H164.329V171.866C164.329 138.617 137.124 111.413 103.875 111.413Z" fill="#9B878D" fill-opacity="0.99"/>
<path d="M103.874 111.413C70.624 111.413 43.42 138.617 43.42 171.867V200.043H102.444C107.826 181.176 110.696 159.714 100.538 149.557C80.294 129.311 103.874 111.413 103.874 111.413Z" fill="white" fill-opacity="0.99"/>
<path d="M167.624 197.476C164.989 195.061 159.097 196.285 156.827 197.764C157.324 200.86 157.353 204.028 156.923 207.156L154.245 226.663C154.245 228.235 154.195 229.778 154.104 231.294C160.635 233.264 164.521 227.401 165.068 223.377C165.303 221.645 165.688 219.938 166.221 218.272C167.959 212.846 174.227 203.527 167.624 197.476Z" fill="#EA9810" fill-opacity="0.99"/>
<path d="M40.125 197.476C42.76 195.061 48.652 196.285 50.922 197.764C50.425 200.86 50.396 204.028 50.826 207.156L53.504 226.663C53.504 228.235 53.554 229.778 53.645 231.294C47.114 233.264 43.228 227.401 42.681 223.377C42.446 221.645 42.061 219.938 41.528 218.272C39.79 212.846 33.522 203.527 40.125 197.476Z" fill="#AD565C" fill-opacity="0.99"/>
<path d="M155.858 191.737C155.255 190.164 154.495 188.571 153.538 187.069C151.916 184.524 151.203 181.515 151.42 178.514C152.045 169.883 151.71 153.002 140.38 147.904C130.754 143.573 118.946 146.08 111.416 148.584C107.209 149.983 102.7 150.171 98.408 149.163C91.144 156.307 90.995 170.045 91.548 177.567C91.773 180.621 91.021 183.676 89.37 186.265C88.419 187.757 87.658 189.337 87.049 190.9C85.075 195.972 84.499 201.473 85.239 206.859L87.986 226.868C87.986 255.634 103.342 275.186 116.403 285.329C117.629 286.281 118.908 287.15 120.23 287.942C122.68 286.776 125.012 285.35 127.178 283.669C139.915 273.778 154.888 254.712 154.888 226.662L157.566 207.155C158.28 201.956 157.739 196.644 155.858 191.737Z" fill="#F8E5C2" fill-opacity="0.99"/>
<path d="M116.539 283.67C103.802 273.779 88.829 254.713 88.829 226.663L86.15 207.152C85.429 201.9 85.99 196.536 87.915 191.59C88.508 190.065 89.251 188.525 90.178 187.07C91.787 184.545 92.52 181.566 92.302 178.588C91.726 170.752 91.931 155.999 100.54 149.556C99.118 149.356 97.71 149.041 96.335 148.584C88.805 146.08 76.997 143.572 67.371 147.904C56.008 153.017 55.703 169.979 56.336 178.588C56.555 181.566 55.822 184.545 54.212 187.07C53.285 188.525 52.543 190.065 51.949 191.59C50.024 196.536 49.463 201.9 50.184 207.152L52.863 226.663C52.863 254.714 67.837 273.78 80.573 283.67C87.221 288.833 95.426 291.637 103.875 291.637C110.189 291.637 116.365 290.07 121.858 287.124C120 286.129 118.219 284.975 116.539 283.67Z" fill="#EA9810" fill-opacity="0.99"/>
<path d="M141.55 239.649C135.094 240.416 124.749 240.202 116.27 233.354C112.587 230.379 107.356 231.619 104.996 235.244C104.477 236.041 103.272 236.041 102.753 235.244C100.393 231.618 95.163 230.379 91.479 233.354C90.007 234.543 88.477 235.52 86.922 236.339C86.108 237.98 85.32 240.375 85.815 242.959C86.291 245.444 87.834 247.573 90.404 249.302C93.985 248.633 97.116 247.442 99.597 246.238C99.62 246.227 99.643 246.216 99.666 246.204C102.333 244.877 105.415 244.877 108.082 246.204C108.105 246.215 108.128 246.227 108.151 246.238C115.624 249.865 128.976 253.398 142.838 242.779C144.251 241.697 143.317 239.439 141.55 239.649Z" fill="#9B878D" fill-opacity="0.99"/>
<path d="M89.278 234.96C89.278 234.96 89.286 234.944 89.29 234.936C81.277 240.215 72.11 240.352 66.2 239.649C64.433 239.439 63.499 241.697 64.911 242.779C74.968 250.483 84.755 250.737 92.224 248.911C82.427 243.412 89.278 234.96 89.278 234.96Z" fill="#9B878D" fill-opacity="0.99"/>
<path d="M34.004 308.548C52.784 355.557 85.018 374.602 98.103 380.642C100.618 381.803 103.397 382.167 106.077 381.732C106.077 358.444 106.077 338.577 106.077 335.302C106.077 326.738 92.73 322.206 92.73 322.206L91.936 321.651L74.111 342.067C70.833 345.844 64.815 345.162 62.451 340.76C57.973 332.425 51.657 319.595 46.992 305.812C46.726 305.026 46.629 304.209 46.687 303.406C42.379 304.921 38.163 306.637 34.004 308.548Z" fill="#9B878D" fill-opacity="0.99"/>
<path d="M109.646 380.642C122.731 374.602 154.966 355.556 173.745 308.548C169.586 306.637 165.37 304.922 161.062 303.407C161.119 304.21 161.023 305.027 160.757 305.813C156.092 319.597 149.776 332.426 145.298 340.761C142.931 345.169 136.915 345.841 133.636 342.066L115.813 321.651L115.018 322.206C115.018 322.206 101.672 326.738 101.672 335.302V381.732C104.352 382.166 107.131 381.803 109.646 380.642Z" fill="#9B878D" fill-opacity="0.99"/>
<path d="M174.348 306.367H173.849C155.084 353.562 122.756 372.664 109.647 378.715C105.985 380.405 101.766 380.405 98.104 378.715C91.162 375.51 78.828 368.642 65.974 355.883C65.799 356.984 65.802 358.157 66.003 359.405C63.479 359.355 58.841 359.441 53.4 360.329C45.235 361.661 38.253 364.36 32.856 368.224C43.758 392.214 58.408 414.141 76.069 433.246C83.15 423.526 93.9249 416.119 110.297 414.781C114.331 414.451 116.477 412.887 121.23 410.206C131.137 404.62 141.185 400.25 151.955 397.174C157.528 405.321 163.98 411.748 170.011 416.431C177.874 422.537 187.577 425.854 197.571 425.854C198.506 425.854 199.438 425.815 200.367 425.758C200.367 419.638 200.367 413.038 200.367 405.955C200.367 371.712 221.187 348.436 233.035 337.959C212.584 317.786 174.348 306.367 174.348 306.367Z" fill="#63784D" fill-opacity="0.99"/>
<path d="M33.901 306.367H33.392C33.392 306.367 25.679 308.675 15.338 313.035C19.104 332.842 25.26 351.799 33.486 369.604C47.368 359.437 67.909 360.981 67.909 360.981C67.485 359.577 67.32 358.33 67.351 357.22C55.513 345.816 43.084 329.462 33.901 306.367Z" fill="#63784D" fill-opacity="0.99"/>
<path d="M172.683 303.819C170.465 302.657 168.214 301.549 165.932 300.497C164.106 299.656 161.948 300.492 161.159 302.341C154.011 319.091 136.964 350.872 106.662 363.27C104.879 363.999 102.87 363.999 101.087 363.27C91.552 359.369 83.331 353.546 76.317 346.879C76.322 346.971 76.326 347.064 76.331 347.15C74.032 347.596 69.712 348.863 67.389 352.278C66.08 354.203 65.61 356.486 65.964 359.083C78.821 371.846 91.16 378.722 98.103 381.928C101.765 383.618 105.984 383.618 109.646 381.928C122.874 375.822 155.673 356.433 174.357 308.295C175.017 306.594 174.299 304.666 172.683 303.819Z" fill="#829E76" fill-opacity="0.99"/>
<path d="M46.59 302.341C45.801 300.492 43.643 299.656 41.817 300.497C39.534 301.549 37.283 302.657 35.065 303.819C33.45 304.665 32.731 306.593 33.391 308.294C42.762 332.438 55.684 349.347 67.907 360.978C64.457 349.544 77.977 348.418 77.977 348.418C77.977 348.418 77.976 348.411 77.976 348.41C61.73 333.683 51.664 314.229 46.59 302.341Z" fill="#63784D" fill-opacity="0.99"/>
<path d="M141.262 284.131C140.523 283.723 139.604 284.15 139.435 284.977C138.336 290.36 133.568 307.315 115.861 317.378C114.117 318.369 113.7 320.696 115.019 322.207L132.911 342.7C136.626 346.979 143.466 346.209 146.147 341.217C150.68 332.777 156.996 319.932 161.67 306.122C162.507 303.649 161.912 300.915 160.148 298.991C154.706 293.053 148.329 288.033 141.262 284.131Z" fill="#9B878D" fill-opacity="0.99"/>
<path d="M66.4879 284.131C67.2269 283.723 68.1459 284.15 68.3149 284.977C69.4139 290.36 74.1819 307.315 91.8889 317.378C93.6329 318.369 94.0499 320.696 92.7309 322.207L74.8389 342.7C71.1239 346.979 64.2839 346.209 61.6029 341.217C57.0699 332.777 50.7539 319.932 46.0799 306.122C45.2429 303.649 45.8379 300.915 47.6019 298.991C53.0429 293.053 59.4199 288.033 66.4879 284.131Z" fill="#9B878D" fill-opacity="0.99"/>
<path d="M274.571 290.21C280.465 297.146 290.159 299.932 303.398 298.476C346.051 293.765 358.225 369.271 358.343 370.035L358.396 370.262C358.601 370.906 363.552 386.077 375.408 389.56C381.11 391.236 387.338 389.894 393.977 385.58C393.604 384.65 393.232 383.741 392.863 382.867C388.492 372.523 387.651 361.055 390.366 350.158C394.361 334.123 395.976 309.499 388.73 284.949C381.431 260.218 367.477 251.279 355.674 248.904C354.571 248.682 353.58 248.098 352.754 247.335C349.559 244.382 340.037 237.275 322.41 237.275C309.23 237.275 282.561 243.974 268.226 271.86C268.516 278.069 270.075 284.918 274.571 290.21Z" fill="#EFDB61" fill-opacity="0.99"/>
<path d="M393.399 384.162C369.433 399.978 359.826 369.806 359.826 369.806C359.826 369.806 347.861 292.083 303.234 296.984C274.55 300.134 269.584 282.303 269.696 269.161C261.262 283.937 256.392 305.144 259.573 335.311C260.114 340.44 260.431 345.591 260.432 350.749V352.288C260.432 370.166 246.726 371.954 237.19 402.347C233.835 413.04 235.647 423.362 239.402 432.254H403.447C403.911 414.09 398.488 396.505 393.399 384.162Z" fill="#EFDB61" fill-opacity="0.99"/>
<path d="M343.996 460.132C332.266 465.207 318.813 465.206 307.082 460.132C306.887 460.048 306.697 459.956 306.503 459.871C306.379 459.964 306.267 460.064 306.141 460.156C305.833 460.404 298.607 466.328 298.121 475.422C297.908 479.392 299.018 483.306 301.414 487.119C309.352 489.842 316.98 494.308 320.823 503.299C339.73 498.125 357.731 490.758 374.519 481.46V441.865C365.349 449.177 355.118 455.32 343.996 460.132Z" fill="#9B878D" fill-opacity="0.99"/>
<path d="M307.082 460.132C296.531 455.568 286.781 449.807 277.979 442.986V491.068C281.242 488.631 283.651 485.858 285.417 482.995C290.787 484.319 297.54 485.511 303.859 488.021C292.687 472.944 307.082 461.324 307.082 461.324C307.43 461.069 307.75 460.798 308.086 460.536C307.752 460.401 307.414 460.276 307.082 460.132Z" fill="#9B878D" fill-opacity="0.99"/>
<path d="M350.958 398.263C350.958 394.829 350.958 395.858 350.958 393.634C344.971 398.987 334.704 405.806 326.248 406.01C325.734 405.998 325.214 405.959 324.688 405.899L324.774 406.293C324.871 406.891 326.226 415.666 324.709 426.473C323.275 436.679 318.899 450.8 306.14 460.156C306.094 460.193 305.884 460.368 305.579 460.646C306.081 460.87 306.576 461.105 307.082 461.324C318.814 466.398 332.266 466.398 343.996 461.324C355.118 456.512 365.348 450.368 374.518 443.057V419.778C361.966 414.533 350.958 407.347 350.958 398.263Z" fill="#F6B072" fill-opacity="0.99"/>
<path d="M301.539 398.263C301.539 407.347 290.531 414.533 277.979 419.777V444.177C286.781 450.998 296.531 456.759 307.082 461.323C332.494 442.695 326.249 406.01 326.249 406.01C317.794 405.805 307.527 398.986 301.54 393.634C301.539 395.977 301.539 394.577 301.539 398.263Z" fill="#F6B072" fill-opacity="0.99"/>
<path d="M385.937 315.817C383.238 313.179 377.238 314.189 374.132 316.26C377.555 327.461 374.583 346.269 374.583 346.269C374.467 346.779 374.346 347.273 374.228 347.775C382.059 347.895 383.948 342.797 384.325 339.314C384.498 337.711 384.882 336.111 385.477 334.529C387.414 329.375 391.463 321.218 385.937 315.817Z" fill="#F6B072" fill-opacity="0.99"/>
<path d="M351.122 395.652C355.027 391.995 358.396 387.796 361.126 383.124C367.091 372.916 371.747 360.544 374.968 346.33C376.097 339.153 377.284 324.713 374.355 315.713C372.617 309.53 373.61 311.343 366.657 304.39C359.705 297.437 364.065 288.526 355.974 280.434C352.957 277.417 350.171 276.559 348.196 276.429C345.921 276.279 343.718 275.623 341.663 274.635C336.31 272.061 325.521 269.272 313.074 279.284C305.815 285.124 303.751 293.825 301.789 303.551C304.126 324.276 314.828 395.859 351.122 395.652Z" fill="#F6B072" fill-opacity="0.99"/>
<path d="M352.168 394.642C310.578 393.424 303.237 296.982 303.237 296.982L303.234 296.984C299.49 312 299.194 330.917 279.86 345.638C278.976 346.311 278.574 347.444 278.832 348.525C282.021 361.802 286.493 373.439 292.152 383.124C298.209 393.49 307.382 401.552 318.679 406.44C323.739 408.629 329.541 408.629 334.6 406.44C341.266 403.556 347.185 399.558 352.168 394.642Z" fill="#F6B072" fill-opacity="0.99"/>
<path d="M228.812 480.995C231.152 484.789 234.611 488.43 239.707 491.33C250.507 497.477 263.862 497.451 274.639 491.263C276.384 490.261 277.924 489.168 279.303 488.015V419.214C262.368 426.545 241.945 430.274 241.945 430.274C234.684 431.668 218.748 436.739 209.668 454.899C205.288 463.659 202.652 476.456 201.278 491.082C209.437 484.687 220.704 482.995 228.812 480.995Z" fill="#BA042D" fill-opacity="0.99"/>
<path d="M373.194 419.214V482.2C394.272 470.697 413.468 456.183 430.217 439.244C422.79 433.393 415.025 431.133 410.551 430.274C410.552 430.274 390.129 426.546 373.194 419.214Z" fill="#BA042D" fill-opacity="0.99"/>
<path d="M242.188 394.173C236.615 402.32 230.163 408.747 224.132 413.43C216.269 419.536 206.566 422.853 196.572 422.853C188.29 422.853 180.211 420.569 173.21 416.313C165.411 422.315 161.627 429.431 160.499 431.855C154.691 432.598 122.687 437.849 122.687 462.977V472.562C144.108 486.477 167.834 497.144 193.174 503.849C199.53 488.036 217.337 485.826 228.812 482.995C231.152 486.789 234.611 490.43 239.707 493.33C245.629 496.701 252.318 498.202 258.931 497.863V400.217C253.496 397.844 247.947 395.817 242.188 394.173Z" fill="#321B25" fill-opacity="0.99"/>
<path d="M169.012 413.43C162.981 408.747 156.529 402.32 150.956 394.173C140.186 397.249 130.137 401.619 120.231 407.205C115.477 409.886 113.331 411.45 109.298 411.78C92.32 413.168 81.348 421.074 74.288 431.327C88.935 447.514 105.717 461.731 124.188 473.539C124.188 470.406 124.188 466.904 124.188 462.977C124.188 436.537 161.528 433.246 161.528 433.246C161.528 433.246 165.109 424.255 174.621 417.134C172.67 416.043 170.792 414.812 169.012 413.43Z" fill="#5D3C4F" fill-opacity="0.99"/>
<path d="M235.691 392.491C229.641 386.441 228.107 374.971 227.831 366.946C224.674 370.624 221.36 373.7 218.194 376.158C212.025 380.948 204.413 383.55 196.572 383.55C195.885 383.55 195.201 383.523 194.519 383.483L195.096 384.141C195.136 385.602 195.137 390.118 193.888 395.125C191.908 403.058 187.879 408.435 181.914 411.105C178.572 412.602 175.693 414.401 173.211 416.311C180.212 420.566 188.291 422.851 196.573 422.851C206.567 422.851 216.27 419.534 224.133 413.428C230.164 408.745 236.616 402.318 242.189 394.171C240.051 393.562 237.889 392.998 235.691 392.491Z" fill="#F6B072" fill-opacity="0.99"/>
<path d="M165.313 366.946C165.037 374.971 163.503 386.441 157.453 392.491C155.255 392.998 153.093 393.562 150.956 394.172C156.529 402.319 162.981 408.746 169.012 413.429C170.792 414.811 172.67 416.042 174.62 417.132C176.904 415.422 179.526 413.819 182.527 412.475C198.027 405.534 196.572 383.55 196.572 383.55C188.732 383.55 181.119 380.948 174.951 376.158C171.785 373.7 168.471 370.623 165.313 366.946Z" fill="#F6B072" fill-opacity="0.99"/>
<path d="M196.572 218.398C195.954 218.398 195.343 218.425 194.729 218.445C192.308 220.612 186.868 226.317 185.968 234.511C185.229 241.241 187.746 248.014 193.447 254.64C202.518 265.182 198.899 284.674 193.512 300.633H252.664V274.49C252.665 243.64 227.423 218.398 196.572 218.398Z" fill="#394064" fill-opacity="0.99"/>
<path d="M196.572 218.398C165.721 218.398 140.48 243.64 140.48 274.49V300.633H194.753C200.156 284.481 203.684 264.776 194.318 253.891C176.608 233.31 196.572 218.398 196.572 218.398Z" fill="#5C658F" fill-opacity="0.99"/>
<path d="M255.722 298.252C253.277 296.011 247.81 297.147 245.704 298.519C246.166 301.392 246.192 304.331 245.793 307.234L243.308 325.334C243.308 326.793 243.262 328.225 243.177 329.631C249.237 331.459 252.843 326.019 253.35 322.285C253.568 320.678 253.925 319.094 254.42 317.548C256.034 312.513 261.849 303.866 255.722 298.252Z" fill="#F6B072" fill-opacity="0.99"/>
<path d="M137.422 298.252C139.867 296.011 145.334 297.147 147.44 298.519C146.979 301.392 146.952 304.331 147.351 307.234L149.836 325.334C149.836 326.793 149.882 328.225 149.967 329.631C143.907 331.459 140.301 326.019 139.794 322.285C139.576 320.678 139.219 319.094 138.724 317.548C137.111 312.513 131.296 303.866 137.422 298.252Z" fill="#F6B072" fill-opacity="0.99"/>
<path d="M244.805 292.927C244.246 291.468 243.54 289.99 242.652 288.596C241.147 286.235 240.485 283.442 240.687 280.658C241.267 272.649 240.956 256.987 230.443 252.256C221.511 248.237 210.556 250.564 203.569 252.887C199.902 254.106 195.99 254.323 192.228 253.571C185.711 260.272 185.58 272.819 186.088 279.726C186.297 282.563 185.598 285.402 184.064 287.808C183.18 289.195 182.473 290.662 181.908 292.115C180.074 296.827 179.539 301.938 180.226 306.943L182.779 325.534C182.779 352.262 197.046 370.428 209.182 379.852C210.161 380.612 211.18 381.311 212.226 381.961C214.325 380.923 216.326 379.677 218.194 378.227C230.012 369.05 243.905 351.359 243.905 325.332L246.39 307.232C247.053 302.408 246.55 297.48 244.805 292.927Z" fill="#F6B072" fill-opacity="0.99"/>
<path d="M209.301 378.228C197.483 369.051 183.59 351.36 183.59 325.333L181.104 307.229C180.435 302.356 180.956 297.379 182.742 292.79C183.293 291.375 183.981 289.946 184.842 288.596C186.335 286.253 187.016 283.489 186.813 280.726C186.282 273.497 186.464 259.92 194.319 253.89C192.715 253.726 191.123 253.401 189.577 252.887C182.59 250.564 171.634 248.237 162.702 252.256C152.159 257 151.876 272.739 152.463 280.726C152.666 283.489 151.986 286.253 150.492 288.596C149.631 289.946 148.943 291.376 148.392 292.79C146.606 297.379 146.085 302.356 146.754 307.229L149.24 325.333C149.24 351.36 163.133 369.05 174.951 378.228C181.12 383.018 188.732 385.62 196.572 385.62C202.62 385.62 208.528 384.066 213.747 381.159C212.2 380.298 210.711 379.323 209.301 378.228Z" fill="#F6B072" fill-opacity="0.99"/>
<path d="M230.031 346.19C228.649 337.949 222.703 329.698 214.765 327.898L202.632 324.333C200.523 323.714 198.411 324.796 197.562 326.632C197.407 326.967 196.938 326.967 196.783 326.632C195.934 324.795 193.822 323.713 191.713 324.332L181.719 327.268C180.52 329.099 178.809 332.464 179.417 336.095C179.881 338.869 181.603 341.226 184.511 343.123C185.685 342.687 186.895 342.328 188.137 342.054L190.304 341.576C193.463 340.879 195.905 337.795 196.801 334.51C196.904 334.133 197.44 334.133 197.543 334.51C198.439 337.795 200.881 340.879 204.04 341.576L206.207 342.054C212.436 343.429 217.893 346.914 221.754 351.786C220.955 355.339 218.449 360.738 210.683 363.482C209.048 364.06 207.367 364.133 205.808 363.794C204.452 366.659 202.793 371.655 204.756 376.265C205.911 378.977 208.139 381.124 211.398 382.694C223.266 376.354 238.031 365.343 242.927 339.146C243.352 336.874 243.567 334.564 243.567 332.253C241.604 337.107 237.518 342.942 230.031 346.19Z" fill="#394064" fill-opacity="0.99"/>
<path d="M207.009 363.965C203.082 363.661 199.63 360.776 199.119 356.625C199.111 356.555 199.102 356.484 199.094 356.413C198.985 355.401 198.138 354.624 197.107 354.624C196.076 354.624 195.229 355.401 195.12 356.413C195.112 356.484 195.104 356.555 195.095 356.625C194.428 362.049 188.741 365.327 183.53 363.486C176.36 360.953 173.276 356.155 171.951 352.637C175.39 347.932 180.27 344.408 185.913 342.653C175.881 336.849 182.513 327.985 183.516 326.744L179.582 327.9C171.488 329.735 165.461 338.279 164.236 346.68C155.954 343.557 151.643 337.362 149.576 332.258V332.26C149.576 334.568 149.791 336.875 150.215 339.144C155.369 366.767 171.434 377.506 183.577 383.695C191.707 387.838 201.351 387.842 209.482 383.702C210.514 383.176 211.577 382.615 212.658 382.016C201.903 377.375 205.031 367.99 207.009 363.965Z" fill="#394064" fill-opacity="0.99"/>
<path d="M186.87 433.229C186.937 424.983 191.896 420.015 197.261 417.041C193.114 414.248 188.437 413 185.73 412.476C185.656 413.012 185.43 413.537 185.04 413.984L178.59 421.372C182.919 424.109 185.121 428.362 185.936 433.229H186.87Z" fill="#5D3C4F" fill-opacity="0.99"/>
<path d="M204.467 462.976C206.365 462.976 207.903 461.438 207.903 459.54V438.068C207.903 433.148 208.516 425.582 214.553 421.372L208.103 413.984C207.712 413.537 207.488 413.012 207.413 412.476C201.75 413.573 185.671 417.822 185.671 432.799V459.54C185.671 461.438 187.21 462.976 189.108 462.976H204.467Z" fill="#5D3C4F" fill-opacity="0.99"/>
<path d="M161.883 378.655C162.569 378.276 163.421 378.673 163.578 379.44C164.598 384.434 169.022 400.166 185.451 409.503C187.069 410.422 187.456 412.581 186.232 413.983L169.631 432.998C166.184 436.968 159.838 436.254 157.35 431.622C153.144 423.791 147.284 411.873 142.947 399.059C142.17 396.765 142.723 394.228 144.359 392.443C149.408 386.934 155.325 382.275 161.883 378.655Z" fill="#5D3C4F" fill-opacity="0.99"/>
<path d="M231.262 378.655C230.576 378.276 229.724 378.673 229.567 379.44C228.548 384.434 224.123 400.166 207.694 409.503C206.076 410.422 205.689 412.581 206.912 413.983L223.513 432.998C226.96 436.968 233.306 436.254 235.794 431.622C240 423.791 245.86 411.873 250.197 399.059C250.974 396.765 250.421 394.228 248.785 392.443C243.736 386.934 237.819 382.275 231.262 378.655Z" fill="#5D3C4F" fill-opacity="0.99"/>
<path d="M285.417 480.995C283.095 484.759 279.672 488.373 274.64 491.262C266.996 495.651 258.058 496.924 249.652 495.109C246.635 495.58 234.88 497.88 230.232 505.737C229.359 507.213 228.798 508.792 228.533 510.463C237.551 511.473 246.715 511.998 256.003 511.998C278.702 511.998 300.675 508.897 321.535 503.12C315.643 486.148 297.195 483.9 285.417 480.995Z" fill="#F4D009" fill-opacity="0.99"/>
<path d="M239.708 491.33C234.612 488.429 231.152 484.789 228.813 480.995C216.909 483.931 198.186 486.194 192.506 503.674C204.671 506.929 217.208 509.27 230.039 510.627C232.01 498.727 250.545 496.498 250.545 496.498C250.884 496.159 251.21 495.813 251.523 495.461C247.423 494.804 243.414 493.44 239.708 491.33Z" fill="#F4D009" fill-opacity="0.99"/>
<path d="M281.67 479.952C275.199 477.845 272.528 471.347 271.429 466.049C266.988 467.816 262.285 468.72 257.574 468.776C257.883 473.036 258.105 486.436 249.831 495.081C249.276 495.164 248.324 495.329 247.138 495.595C256.25 498.279 266.228 497.221 274.64 492.391C280.11 489.249 283.681 485.253 285.999 481.136C284.436 480.76 282.974 480.377 281.67 479.952Z" fill="#F6B072" fill-opacity="0.99"/>
<path d="M250.598 496.441C259.617 487.364 259.418 473.322 259.079 468.735C253.564 469.014 248.002 468.121 242.798 466.05C241.7 471.348 239.029 477.846 232.557 479.953C231.254 480.377 229.793 480.76 228.231 481.136C230.565 485.282 234.171 489.307 239.708 492.458C243.135 494.409 246.82 495.733 250.598 496.441Z" fill="#F6B072" fill-opacity="0.99"/>
<path d="M286.99 68.4758C275.19 63.0618 261.269 68.7168 256.586 80.8248L254.998 84.9308C254.214 86.9578 252.005 88.0438 249.921 87.4268L245.7 86.1768C233.252 82.4898 220.273 90.0598 217.352 102.709C213.859 117.839 226.36 131.878 241.793 130.163C251.449 129.089 262.085 129.348 272.003 132.657C274.206 133.392 276.562 132.233 277.326 130.04C280.763 120.165 287.054 111.586 293.802 104.595C304.586 93.4228 301.104 74.9508 286.99 68.4758Z" fill="#BA042D" fill-opacity="0.99"/>
<path d="M171.274 1.62378C180.579 -2.64522 191.558 1.81378 195.25 11.3628L196.502 14.6008C197.12 16.1998 198.862 17.0558 200.506 16.5688L203.835 15.5828C213.651 12.6748 223.887 18.6448 226.19 28.6198C228.944 40.5518 219.086 51.6228 206.916 50.2698C199.301 49.4228 190.914 49.6268 183.092 52.2368C181.355 52.8168 179.497 51.9028 178.895 50.1738C176.185 42.3868 171.223 35.6208 165.902 30.1078C157.398 21.2978 160.144 6.72978 171.274 1.62378Z" fill="#BA042D" fill-opacity="0.99"/>
<path d="M279.877 96.9998C285.469 96.9998 290.002 92.4667 290.002 86.8748C290.002 81.2829 285.469 76.7498 279.877 76.7498C274.285 76.7498 269.752 81.2829 269.752 86.8748C269.752 92.4667 274.285 96.9998 279.877 96.9998Z" fill="#BA042D" fill-opacity="0.99"/>
<path d="M210.439 39.8758C215.651 39.8758 219.877 35.6502 219.877 30.4378C219.877 25.2253 215.651 20.9998 210.439 20.9998C205.227 20.9998 201.001 25.2253 201.001 30.4378C201.001 35.6502 205.227 39.8758 210.439 39.8758Z" fill="#AD565C" fill-opacity="0.99"/>
<path d="M427.217 91.7798C398.492 63.7018 362.894 42.6298 323.178 31.3278C318.41 45.6428 313.916 72.1398 335.027 93.2508C360.804 119.026 399.078 115.517 427.217 91.7798Z" fill="#ACC1D3" fill-opacity="0.99"/>
<path d="M294.633 202.452C300.956 186 288.365 165.854 266.51 157.453C244.654 149.053 221.811 155.579 215.487 172.031C209.164 188.482 221.755 208.629 243.61 217.029C265.466 225.43 288.309 218.903 294.633 202.452Z" fill="#ACC1D3" fill-opacity="0.99"/>
<path d="M288.202 375.326C286.812 374.588 285.548 373.64 284.466 372.498C280.103 367.894 266.11 356.385 240.939 364.557C240.554 364.682 240.185 364.813 239.806 364.941C238.175 367.234 236.742 370.221 237.243 373.263C237.801 376.647 240.587 379.336 245.522 381.257C249.284 382.722 251.519 384.867 252.167 387.634C253.693 394.16 246.318 402.33 246.243 402.412L246.063 402.609L241.541 419.781H299.712C301.706 413.221 308.491 386.093 288.202 375.326Z" fill="#394064" fill-opacity="0.99"/>
<path d="M247.046 403.145C247.046 403.145 262.204 386.584 245.917 380.244C234.429 375.772 238.334 368.338 241.633 364.345C241.401 364.418 241.174 364.48 240.94 364.556C212.969 373.638 201.373 389.643 214.666 419.781H242.667L247.046 403.145Z" fill="#5C658F" fill-opacity="0.99"/>
<path d="M303.251 419.332C300.341 415.937 296.451 417.284 294.368 418.405C294.06 420.507 293.617 422.733 293.005 425.076C292.476 427.102 292.273 429.191 292.425 431.276C292.602 433.701 292.633 437.411 291.838 441.617C297.174 444.044 298.862 441.511 299.391 439.502C299.787 437.999 300.382 436.559 301.194 435.234C303.513 431.446 307.189 423.927 303.251 419.332Z" fill="#F6B072" fill-opacity="0.99"/>
<path d="M221.809 431.276C221.961 429.192 221.758 427.102 221.229 425.076C220.617 422.732 220.174 420.506 219.866 418.405C217.783 417.284 213.893 415.937 210.983 419.332C207.044 423.927 210.721 431.446 213.04 435.234C213.852 436.559 214.447 437.999 214.843 439.502C215.372 441.51 217.06 444.044 222.396 441.617C221.601 437.411 221.632 433.7 221.809 431.276Z" fill="#F6B072" fill-opacity="0.99"/>
<path d="M293.02 414.397C288.204 412.468 281.189 408.047 275.672 398.496C274.301 396.122 271.339 395.2 268.846 396.34C264.225 398.455 256.266 401.521 245.911 403.351C245.453 404.276 245.043 405.284 244.712 406.396C244.268 407.889 244.174 409.476 244.398 411.023C244.734 413.349 245.204 415.803 245.839 418.379C246.423 420.749 246.647 423.193 246.479 425.632C245.931 433.587 246.64 453.367 265.227 464.57C266.918 465.589 268.664 466.466 270.445 467.221C272.471 466.478 274.454 465.58 276.357 464.487C293.037 454.909 293.692 438.097 293.2 431.3C293.049 429.215 293.246 427.115 293.774 425.092C294.418 422.626 294.875 420.29 295.185 418.093C295.41 416.509 294.504 414.991 293.02 414.397Z" fill="#F8E5C2" fill-opacity="0.99"/>
<path d="M265.376 463.897C247.233 452.961 246.54 433.653 247.075 425.887C247.239 423.507 247.02 421.121 246.45 418.807C245.83 416.292 245.372 413.897 245.043 411.626C244.825 410.116 244.916 408.566 245.35 407.109C245.795 405.613 246.384 404.303 247.046 403.144C242.318 404.035 237.073 404.68 231.384 404.85C228.477 404.937 225.688 406.089 223.596 408.109C221.992 409.657 220.375 411.843 219.434 414.832C219.032 416.108 218.947 417.465 219.149 418.787C219.453 420.775 219.879 422.873 220.453 425.075C220.982 427.101 221.185 429.19 221.033 431.275C220.537 438.075 221.179 454.983 238.004 464.559C248.251 470.391 260.589 471.151 271.389 466.869C269.329 466.056 267.317 465.067 265.376 463.897Z" fill="#F6B072" fill-opacity="0.99"/>
</g>
<defs>
<clipPath id="clip0_35_534">
<rect width="512" height="512" fill="white" transform="translate(0.5 0.5)"/>
</clipPath>
</defs>
</svg>
