<svg width="513" height="513" viewBox="0 0 513 513" fill="none" xmlns="http://www.w3.org/2000/svg">
<g clip-path="url(#clip0_35_169)">
<path d="M490.351 244.148C495.964 243.07 501.155 247.287 501.235 253.002C501.251 254.166 501.26 255.332 501.26 256.5C501.26 307.044 486.283 354.09 460.525 393.442H275.406L3.64358 230.976C2.57768 230.339 1.97575 229.134 2.11576 227.901C16.2995 103.167 122.136 6.24341 250.636 6.12078C251.768 6.11975 252.899 6.12589 254.027 6.14019C259.685 6.21071 263.869 11.3471 262.811 16.9065C260.539 28.8297 259.358 41.1401 259.375 53.7286C259.52 161.008 346.269 247.633 453.549 247.631C466.132 247.631 478.435 246.435 490.351 244.148Z" fill="#E20304" fill-opacity="0.99"/>
<path d="M318.328 383.223C211.09 383.223 124.157 296.289 124.157 189.051C124.157 104.719 177.918 32.945 253.038 6.12994C389.606 7.28271 500.096 117.774 501.249 254.342C474.434 329.462 402.66 383.223 318.328 383.223Z" fill="#E20304" fill-opacity="0.99"/>
<path d="M398.041 403.662L308.863 400.144L306.609 391.593H171.617L153.389 311.344H60.8527L40.3563 241.656C45.0594 190.378 71.3809 145.08 110.488 114.267C112.367 112.786 115.002 112.78 116.881 114.261C134.804 128.381 150.042 145.545 161.745 164.932C179.294 111.423 207.424 64.7075 242.891 28.8286C244.904 26.7919 248.184 26.7929 250.197 28.8286C285.827 64.872 314.053 111.853 331.584 165.672C343.483 148.811 357.226 133.537 372.491 120.195C374.499 118.439 377.507 118.496 379.428 120.348C388.061 128.671 411.394 152.932 430.425 188.53C468.317 259.412 454.874 346.829 398.041 403.662Z" fill="white" fill-opacity="0.99"/>
<path d="M60.8527 311.345L40.3563 241.656C45.0594 190.379 71.3798 145.081 110.487 114.268C112.355 112.796 114.984 112.766 116.852 114.239C117.914 115.076 118.966 115.923 120.01 116.78C100.096 150.717 90.9166 190.58 95.9109 231.239L130.72 294.996L60.8527 311.345Z" fill="#F4D009" fill-opacity="0.99"/>
<path d="M129.163 189.568C190.139 203.048 245.233 240.307 279.661 296.43L296.551 387.097L179.941 445.112L117.814 376.951C93.8168 315.639 97.3313 249.223 123.36 192.457C124.375 190.24 126.784 189.043 129.163 189.568Z" fill="#F4D009" fill-opacity="0.99"/>
<path d="M346.017 354.884L173.211 249.056C177.819 189.235 203.542 136.366 241.781 100.31C243.755 98.4483 246.841 98.4534 248.817 100.315C278.88 128.665 301.205 167.406 311.616 211.747C330.88 201.603 351.471 194.144 372.762 189.581C374.382 189.234 376.071 189.701 377.288 190.825C394.025 206.286 413.666 237.483 408.26 311.686C406.587 334.667 365.668 366.917 346.017 354.884Z" fill="#F4D009" fill-opacity="0.99"/>
<path d="M317.381 311.881H173.211C177.819 252.059 203.542 199.191 241.781 163.135C243.753 161.275 246.838 161.275 248.811 163.135C287.05 199.191 312.773 252.059 317.381 311.881Z" fill="#EA9810" fill-opacity="0.99"/>
<path d="M512.5 433.7C512.5 473.928 479.889 506.539 439.661 506.539C439.661 506.539 252.856 506.879 250.879 506.879C181.372 506.879 118.481 478.557 73.1151 432.822C46.8181 406.311 65.9062 361.167 103.247 361.136L439.661 360.861C479.889 360.861 512.5 393.472 512.5 433.7Z" fill="#9A4916" fill-opacity="0.99"/>
<path d="M439.661 360.861C466.622 360.861 490.16 375.509 502.754 397.281C490.16 419.052 466.621 433.7 439.661 433.7H244.748C217.787 433.7 194.249 419.052 181.655 397.281C194.249 375.509 217.787 360.861 244.748 360.861H439.661Z" fill="#EA9810" fill-opacity="0.99"/>
<path d="M419.149 300.282C419.149 340.51 386.539 373.12 346.311 373.12H39.6777C33.1699 373.12 27.2334 369.378 24.4486 363.497C15.0823 343.712 8.23318 322.502 4.315 300.282C4.27003 300.028 4.22609 299.762 4.18215 299.488C-1.81469 261.608 27.8425 227.444 66.1944 227.444H346.31C386.538 227.443 419.149 260.053 419.149 300.282Z" fill="#9A4916" fill-opacity="0.99"/>
<path d="M348.549 227.476C394.942 228.877 394.942 298.847 348.549 300.248C347.806 300.27 347.059 300.282 346.31 300.282H4.31496C1.8081 286.065 0.5 271.436 0.5 256.5C0.5 246.672 1.06616 236.976 2.16885 227.443H346.311C347.059 227.443 347.806 227.454 348.549 227.476ZM253.606 361.201H23.3765C35.9537 388.485 53.2943 413.12 74.3312 434.04H253.606C280.567 434.04 304.105 419.393 316.699 397.621C304.106 375.849 280.567 361.201 253.606 361.201Z" fill="#EA9810" fill-opacity="0.99"/>
<path d="M328.749 87.3469C325.756 84.3536 325.756 79.5003 328.749 76.507L346.815 58.4408C349.809 55.4475 354.662 55.4475 357.655 58.4408C360.649 61.4342 360.649 66.2874 357.655 69.2807L339.589 87.3469C336.595 90.3402 331.743 90.3402 328.749 87.3469Z" fill="#EA9810" fill-opacity="0.99"/>
<path d="M463.591 206.935C466.585 203.942 471.438 203.942 474.431 206.935L484.03 216.534C487.024 219.528 487.024 224.381 484.03 227.374C481.037 230.368 476.184 230.368 473.19 227.374L463.591 217.775C460.598 214.782 460.598 209.928 463.591 206.935Z" fill="#F4D009" fill-opacity="0.99"/>
<path d="M459.358 403.662C459.358 409.306 415.891 413.881 362.272 413.881C308.654 413.881 265.187 409.306 265.187 403.662C265.187 398.017 308.654 393.442 362.272 393.442C415.891 393.442 459.358 398.017 459.358 403.662ZM260.077 250.368C206.458 250.368 162.991 254.944 162.991 260.588C162.991 266.232 206.458 270.807 260.077 270.807C313.696 270.807 357.163 266.232 357.163 260.588C357.163 254.944 313.696 250.368 260.077 250.368ZM275.406 383.223C275.406 388.867 252.529 393.442 224.308 393.442C196.088 393.442 173.211 388.867 173.211 383.223C173.211 377.578 196.088 373.003 224.308 373.003C252.529 373.003 275.406 377.578 275.406 383.223ZM152.771 403.662C152.771 409.29 109.548 413.856 56.1353 413.881C50.8641 407.367 45.9137 400.584 41.3068 393.554C45.9986 393.48 50.7997 393.442 55.6847 393.442C109.305 393.442 152.771 398.017 152.771 403.662ZM14.8074 281.027C10.3548 281.027 5.9716 280.995 1.67734 280.934C1.03146 274.262 0.646183 267.513 0.53479 260.697C5.19287 260.626 9.95825 260.588 14.8074 260.588C68.4264 260.588 111.893 265.163 111.893 270.807C111.893 276.452 68.4264 281.027 14.8074 281.027Z" fill="#9A4916" fill-opacity="0.99"/>
<path d="M398.041 104.74C398.041 100.507 401.473 97.0749 405.706 97.0749H419.281C423.514 97.0749 426.946 100.507 426.946 104.74C426.946 108.972 423.514 112.404 419.281 112.404H405.706C401.473 112.404 398.041 108.972 398.041 104.74ZM173.702 76.507L155.636 58.4408C152.643 55.4475 147.789 55.4475 144.796 58.4408C141.803 61.4342 141.803 66.2874 144.796 69.2807L162.862 87.3469C165.855 90.3402 170.709 90.3402 173.702 87.3469C176.695 84.3536 176.695 79.5003 173.702 76.507ZM53.4403 278.782L71.5065 260.716C74.4998 257.722 74.4998 252.869 71.5065 249.876C68.5132 246.882 63.6599 246.882 60.6666 249.876L42.6005 267.942C39.6071 270.935 39.6071 275.788 42.6005 278.782C45.5948 281.775 50.447 281.775 53.4403 278.782Z" fill="white" fill-opacity="0.99"/>
<path d="M346.311 373.121C306.082 373.121 273.472 340.51 273.472 300.282C273.472 260.053 306.082 227.443 346.311 227.443C386.539 227.443 419.149 260.053 419.149 300.282C419.149 340.509 386.538 373.121 346.311 373.121ZM512.5 433.7C512.5 393.472 479.889 360.861 439.661 360.861C399.433 360.861 366.822 393.472 366.822 433.7C366.822 473.928 399.433 506.539 439.661 506.539C479.889 506.539 512.5 473.927 512.5 433.7ZM326.445 434.04C326.445 393.812 293.834 361.201 253.606 361.201C213.378 361.201 180.767 393.812 180.767 434.04C180.767 474.269 213.378 506.879 253.606 506.879C293.834 506.879 326.445 474.269 326.445 434.04Z" fill="#F6B072" fill-opacity="0.99"/>
<path d="M357.862 372.21C354.1 372.81 350.241 373.121 346.311 373.121C306.083 373.121 273.472 340.51 273.472 300.282C273.472 260.053 306.082 227.443 346.311 227.443C350.241 227.443 354.1 227.754 357.862 228.353C344.707 230.449 332.727 236.067 322.917 244.21C319.371 247.154 322.635 252.844 326.941 251.199C332.749 248.979 339.054 247.764 345.641 247.764C374.581 247.764 398.041 271.224 398.041 300.164C398.041 329.104 374.581 352.564 345.641 352.564C338.864 352.564 332.387 351.277 326.442 348.935C322.157 347.247 318.87 352.932 322.385 355.907C332.292 364.291 344.468 370.075 357.862 372.21ZM253.606 381.641C246.475 381.641 239.677 383.065 233.479 385.645C229.221 387.418 225.779 381.763 229.278 378.758C239.257 370.189 251.581 364.275 265.156 362.112C261.394 361.512 257.535 361.201 253.605 361.201C213.378 361.201 180.766 393.812 180.766 434.04C180.766 474.268 213.376 506.879 253.605 506.879C257.535 506.879 261.394 506.568 265.156 505.969C251.58 503.805 239.257 497.892 229.278 489.323C225.779 486.318 229.221 480.663 233.479 482.436C239.675 485.016 246.475 486.44 253.605 486.44C282.545 486.44 306.005 462.98 306.005 434.04C306.006 405.101 282.546 381.641 253.606 381.641ZM440.221 381.641C432.425 381.641 425.026 383.343 418.377 386.397C414.139 388.343 410.474 382.778 413.933 379.651C424.149 370.416 436.994 364.036 451.211 361.772C447.449 361.173 443.59 360.861 439.66 360.861C399.432 360.861 366.821 393.472 366.821 433.7C366.821 473.928 399.432 506.539 439.66 506.539C443.59 506.539 447.449 506.227 451.211 505.628C437.764 503.486 425.545 497.663 415.616 489.225C412.038 486.183 415.496 480.491 419.822 482.322C426.092 484.974 432.985 486.44 440.221 486.44C469.161 486.44 492.621 462.98 492.621 434.04C492.621 405.101 469.161 381.641 440.221 381.641Z" fill="#F6B072" fill-opacity="0.99"/>
<path d="M290.025 434.04C290.025 454.154 273.72 470.46 253.606 470.46C233.492 470.46 217.186 454.154 217.186 434.04C217.186 413.926 233.492 397.621 253.606 397.621C273.72 397.621 290.025 413.926 290.025 434.04ZM439.661 397.281C419.547 397.281 403.242 413.586 403.242 433.7C403.242 453.814 419.547 470.119 439.661 470.119C459.775 470.119 476.081 453.814 476.081 433.7C476.081 413.586 459.775 397.281 439.661 397.281ZM346.311 263.862C326.196 263.862 309.891 280.167 309.891 300.282C309.891 320.396 326.196 336.701 346.311 336.701C366.425 336.701 382.73 320.396 382.73 300.282C382.73 280.167 366.424 263.862 346.311 263.862Z" fill="#EA9810" fill-opacity="0.99"/>
<path d="M290.025 434.04C290.025 439.835 288.672 445.314 286.263 450.177C281.4 452.585 275.921 453.939 270.127 453.939C250.013 453.939 233.707 437.634 233.707 417.519C233.707 411.725 235.06 406.246 237.469 401.382C242.333 398.974 247.811 397.62 253.606 397.62C273.72 397.621 290.025 413.926 290.025 434.04ZM439.661 397.281C433.867 397.281 428.388 398.635 423.524 401.042C421.117 405.906 419.763 411.385 419.763 417.18C419.763 437.294 436.068 453.6 456.182 453.6C461.976 453.6 467.455 452.246 472.319 449.838C474.726 444.974 476.081 439.496 476.081 433.701C476.081 413.586 459.775 397.281 439.661 397.281ZM346.31 263.862C340.516 263.862 335.037 265.216 330.174 267.624C327.766 272.487 326.412 277.966 326.412 283.762C326.412 303.876 342.717 320.181 362.831 320.181C368.626 320.181 374.105 318.828 378.968 316.419C381.376 311.556 382.73 306.077 382.73 300.283C382.73 280.167 366.425 263.862 346.31 263.862Z" fill="#EFDB61" fill-opacity="0.99"/>
<path d="M366.75 300.282C366.75 311.57 357.599 320.721 346.311 320.721C335.022 320.721 325.871 311.57 325.871 300.282C325.871 288.993 335.022 279.843 346.311 279.843C357.599 279.843 366.75 288.993 366.75 300.282ZM253.606 413.601C242.317 413.601 233.167 422.752 233.167 434.04C233.167 445.329 242.317 454.48 253.606 454.48C264.894 454.48 274.045 445.329 274.045 434.04C274.045 422.752 264.894 413.601 253.606 413.601ZM439.661 413.261C428.373 413.261 419.222 422.413 419.222 433.7C419.222 444.989 428.373 454.139 439.661 454.139C450.95 454.139 460.1 444.989 460.1 433.7C460.1 422.412 450.95 413.261 439.661 413.261Z" fill="#F6B072" fill-opacity="0.99"/>
<path d="M366.75 300.282C366.75 303.417 366.043 306.388 364.781 309.044C362.125 310.306 359.155 311.012 356.019 311.012C344.731 311.012 335.58 301.862 335.58 290.573C335.58 287.438 336.286 284.467 337.548 281.811C340.203 280.549 343.174 279.843 346.311 279.843C357.598 279.843 366.75 288.993 366.75 300.282ZM439.661 413.261C436.525 413.261 433.555 413.967 430.899 415.229C429.637 417.885 428.931 420.855 428.931 423.991C428.931 435.28 438.081 444.431 449.37 444.431C452.505 444.431 455.476 443.724 458.132 442.462C459.394 439.806 460.1 436.836 460.1 433.7C460.1 422.412 450.95 413.261 439.661 413.261ZM253.606 413.601C250.47 413.601 247.5 414.307 244.844 415.57C243.581 418.226 242.875 421.195 242.875 424.332C242.875 435.62 252.026 444.771 263.314 444.771C266.451 444.771 269.421 444.065 272.077 442.803C273.339 440.147 274.045 437.177 274.045 434.04C274.045 422.752 264.894 413.601 253.606 413.601Z" fill="#F6B072" fill-opacity="0.99"/>
</g>
<defs>
<clipPath id="clip0_35_169">
<rect width="512" height="512" fill="white" transform="translate(0.5 0.5)"/>
</clipPath>
</defs>
</svg>
