<svg width="513" height="513" viewBox="0 0 513 513" fill="none" xmlns="http://www.w3.org/2000/svg">
<g clip-path="url(#clip0_35_620)">
<path d="M181.258 500.008L492.045 342.218C499.581 318.66 503.665 293.557 503.665 267.498C503.665 132.187 393.974 22.496 258.663 22.496C123.352 22.496 13.662 132.187 13.662 267.498C13.662 375.758 83.883 467.606 181.258 500.008Z" fill="#321B25" fill-opacity="0.99"/>
<path d="M14.186 209.514C0.759039 229.899 16.944 257.586 41.46 255.663C46.062 255.302 50.618 256.491 54.562 258.891C61.761 263.273 74.273 266.544 84.551 246.731C99.968 217.011 108.287 202.477 108.287 202.477L101.143 190.103L93.999 177.729C93.999 177.729 77.252 177.667 43.806 176.159C21.508 175.153 18.085 187.624 18.281 196.05C18.408 201.587 16.802 205.542 14.186 209.514Z" fill="#BA042D" fill-opacity="0.99"/>
<path d="M163.213 245.098C145.183 216.887 136.756 202.415 136.756 202.415H131.914V218.445C129.546 220.448 120.963 228.437 120.963 238.947V271.133C120.963 279.071 123.804 286.135 128.963 291.023C132.3 294.185 136.46 296.268 141.222 297.224C144.396 294.699 147.125 291.439 149.136 287.428C151.268 283.176 153.89 279.808 158.749 277.151C166.144 273.106 175.232 263.906 163.213 245.098Z" fill="#E1504E" fill-opacity="0.99"/>
<path d="M122.463 271.133V238.947C122.463 227.614 133.414 219.156 133.414 219.156V202.415H122.467H108.178C108.178 202.415 99.751 216.887 81.721 245.098C69.701 263.906 78.79 273.106 86.185 277.149C90.235 279.364 93.543 282.715 95.532 286.881C104.487 305.642 128.788 308.664 142.7 295.967C129.448 293.901 122.463 283.135 122.463 271.133Z" fill="#BA042D" fill-opacity="0.99"/>
<path d="M40.854 99.878C16.487 98.442 0.601029 126.303 14.524 146.572C17.138 150.377 18.386 154.917 18.279 159.533C18.084 167.959 21.507 180.43 43.804 179.424C77.251 177.915 93.997 177.853 93.997 177.853L101.141 165.479L108.285 153.104C108.285 153.104 99.965 138.57 84.549 108.85C74.271 89.037 61.759 92.308 54.56 96.69C49.83 99.572 45.602 100.158 40.854 99.878Z" fill="#BA042D" fill-opacity="0.99"/>
<path d="M158.749 78.433C153.889 75.775 151.267 72.408 149.136 68.156C147.314 64.521 144.896 61.511 142.098 59.097C136.988 60.193 131.353 62.278 127.166 66.246C123.054 70.143 120.969 75.257 120.969 81.447L120.97 116.144C120.964 116.316 120.839 120.395 122.189 125.078C123.908 131.043 127.259 135.288 131.916 137.423V153.167H136.758C136.758 153.167 145.185 138.695 163.215 110.484C175.232 91.677 166.144 82.477 158.749 78.433Z" fill="#AD565C" fill-opacity="0.99"/>
<path d="M108.178 153.168H122.467H133.414V136.427C121.914 132.032 122.467 116.197 122.467 116.197C122.467 116.197 122.467 105.197 122.467 81.447C122.467 67.21 134.124 62.14 143.464 60.36C129.698 46.823 104.654 49.588 95.532 68.701C93.543 72.867 90.236 76.218 86.185 78.433C78.79 82.477 69.701 91.677 81.721 110.484C99.751 138.696 108.178 153.168 108.178 153.168Z" fill="#E1504E" fill-opacity="0.99"/>
<path d="M230.748 209.514C244.175 229.899 227.99 257.586 203.474 255.663C198.871 255.302 194.316 256.491 190.372 258.891C183.173 263.273 170.661 266.544 160.383 246.731C144.966 217.011 136.647 202.477 136.647 202.477L143.791 190.103L150.935 177.729C150.935 177.729 167.682 177.667 201.128 176.159C223.426 175.153 226.849 187.624 226.653 196.05C226.526 201.587 228.132 205.542 230.748 209.514Z" fill="#AD565C" fill-opacity="0.99"/>
<path d="M204.08 99.878C228.447 98.442 244.333 126.303 230.41 146.572C227.796 150.377 226.548 154.917 226.655 159.533C226.85 167.959 223.427 180.43 201.13 179.424C167.683 177.915 150.937 177.853 150.937 177.853L143.793 165.479L136.649 153.104C136.649 153.104 144.969 138.57 160.385 108.85C170.663 89.037 183.175 92.308 190.374 96.69C195.104 99.572 199.332 100.158 204.08 99.878Z" fill="#AD565C" fill-opacity="0.99"/>
<path d="M172.475 175.41C171.417 165.319 163.32 157.123 153.244 155.925C152.314 155.814 151.395 155.763 150.489 155.766C147.136 155.779 144.479 153.123 144.492 149.77C144.496 148.862 144.444 147.941 144.333 147.01C143.133 136.935 134.935 128.84 124.844 127.783C111.614 126.398 100.441 136.736 100.441 149.684V149.762C100.449 151.885 99.388 153.727 97.759 154.793C98.614 157.044 100.006 159.469 102.294 161.295C105.573 163.912 109.916 164.709 115.203 163.669C129.186 160.921 135.186 183.618 135.879 186.476C135.587 188.098 134.703 194.75 138.735 199.441C140.314 201.277 142.435 202.544 145.046 203.27C145.991 201.214 148.056 199.81 150.496 199.818H150.573C163.524 199.817 173.863 188.643 172.475 175.41Z" fill="#F4D009" fill-opacity="0.99"/>
<path d="M100.442 205.814C100.439 206.721 100.491 207.642 100.601 208.572C101.8 218.647 109.998 226.742 120.089 227.8C133.32 229.186 144.493 218.848 144.493 205.899C144.493 205.873 144.493 205.848 144.493 205.822C144.488 204.334 145.009 202.984 145.881 201.942C134.582 199.149 137.414 186.447 137.414 186.447C137.414 186.447 131.414 158.947 114.914 162.197C104.66 164.217 100.587 158.416 98.971 153.735C97.878 154.988 96.267 155.773 94.445 155.766C93.537 155.763 92.617 155.815 91.685 155.925C81.61 157.125 73.515 165.323 72.458 175.415C71.073 188.645 81.411 199.817 94.359 199.817H94.437C97.793 199.805 100.455 202.458 100.442 205.814Z" fill="#F4D009" fill-opacity="0.99"/>
<path d="M122.467 196.958C133.052 196.958 141.633 188.377 141.633 177.792C141.633 167.207 133.052 158.626 122.467 158.626C111.882 158.626 103.301 167.207 103.301 177.792C103.301 188.377 111.882 196.958 122.467 196.958Z" fill="#EFDB61" fill-opacity="0.99"/>
<path d="M304.882 109.413C295.602 123.501 306.788 142.636 323.731 141.307C326.912 141.058 330.06 141.879 332.786 143.538C337.761 146.567 346.409 148.827 353.512 135.134C364.167 114.594 369.917 104.55 369.917 104.55L364.979 95.9981L360.041 87.4461C360.041 87.4461 348.467 87.4031 325.352 86.3611C309.942 85.6661 307.576 94.2851 307.711 100.108C307.8 103.935 306.69 106.668 304.882 109.413Z" fill="#BA042D" fill-opacity="0.99"/>
<path d="M398.147 163.26C390.586 178.341 368.422 178.221 361.101 162.883C359.727 160.004 357.441 157.688 354.641 156.157C349.53 153.362 343.249 147.004 351.556 134.006C364.017 114.509 369.841 104.507 369.841 104.507H379.716H389.591C389.591 104.507 395.415 114.509 407.876 134.006C416.183 147.004 409.902 153.362 404.791 156.157C401.432 157.994 399.62 160.322 398.147 163.26Z" fill="#BA042D" fill-opacity="0.99"/>
<path d="M323.313 33.643C306.472 32.651 295.494 51.906 305.116 65.914C306.922 68.544 307.785 71.681 307.711 74.871C307.576 80.694 309.942 89.313 325.352 88.618C348.467 87.575 360.041 87.533 360.041 87.533L364.979 78.981L369.917 70.429C369.917 70.429 364.167 60.385 353.512 39.845C346.409 26.152 337.762 28.413 332.786 31.441C329.516 33.431 326.594 33.836 323.313 33.643Z" fill="#BA042D" fill-opacity="0.99"/>
<path d="M398.147 11.719C390.586 -3.36198 368.422 -3.24198 361.101 12.096C359.727 14.975 357.441 17.291 354.641 18.822C349.53 21.617 343.249 27.975 351.556 40.973C364.017 60.47 369.841 70.472 369.841 70.472H379.716H389.591C389.591 70.472 395.415 60.47 407.876 40.973C416.183 27.975 409.902 21.617 404.791 18.822C401.432 16.985 399.62 14.657 398.147 11.719Z" fill="#E1504E" fill-opacity="0.99"/>
<path d="M454.551 109.413C463.831 123.501 452.645 142.636 435.702 141.307C432.521 141.058 429.373 141.879 426.647 143.538C421.672 146.567 413.024 148.827 405.921 135.134C395.266 114.594 389.516 104.55 389.516 104.55L394.454 95.9981L399.392 87.4461C399.392 87.4461 410.966 87.4031 434.081 86.3611C449.491 85.6661 451.857 94.2851 451.722 100.108C451.633 103.935 452.743 106.668 454.551 109.413Z" fill="#E1504E" fill-opacity="0.99"/>
<path d="M436.12 33.643C452.961 32.651 463.939 51.906 454.317 65.914C452.51 68.544 451.648 71.681 451.722 74.871C451.857 80.694 449.491 89.313 434.081 88.618C410.966 87.575 399.392 87.533 399.392 87.533L394.454 78.981L389.516 70.429C389.516 70.429 395.266 60.385 405.921 39.845C413.024 26.152 421.671 28.413 426.647 31.441C429.917 33.431 432.839 33.836 436.12 33.643Z" fill="#E1504E" fill-opacity="0.99"/>
<path d="M315.151 504.97C319.818 496.464 322.242 492.227 322.242 492.227L311.403 473.454L300.564 454.681C300.564 454.681 275.159 454.587 224.418 452.298C190.591 450.772 185.398 469.692 185.694 482.475C185.858 489.535 184.158 494.899 181.257 500.008C205.59 508.105 231.612 512.5 258.664 512.5C276.88 512.5 294.622 510.484 311.704 506.713L315.151 504.97Z" fill="#BA042D" fill-opacity="0.99"/>
<path d="M219.943 336.576C182.976 334.398 158.877 376.664 179.999 407.415C183.964 413.188 185.858 420.075 185.695 427.077C185.399 439.86 190.592 458.779 224.419 457.254C275.16 454.965 300.565 454.871 300.565 454.871L311.404 436.098L322.243 417.325C322.243 417.325 309.621 395.276 286.233 350.189C270.641 320.131 251.659 325.093 240.737 331.741C233.559 336.111 227.146 337.001 219.943 336.576Z" fill="#BA042D" fill-opacity="0.99"/>
<path d="M344.755 358.947C344.755 358.947 344.755 346.447 344.755 310.971C344.755 288.78 363.696 281.43 377.882 279.036C357.608 255.806 317.252 259.195 302.893 289.278C299.876 295.599 294.858 300.682 288.713 304.042C277.495 310.177 263.706 324.134 281.941 352.666C309.293 395.464 322.077 417.419 322.077 417.419H343.754H365.431C365.431 417.419 367.419 414.006 371.484 407.278C345.367 390.866 344.755 358.947 344.755 358.947Z" fill="#E1504E" fill-opacity="0.99"/>
<path d="M398.797 304.043C391.424 300.011 387.447 294.902 384.213 288.452C382.416 284.867 380.224 281.698 377.757 278.895C363.489 281.133 343.756 288.321 343.756 310.971V358.947C343.756 358.947 344.379 391.457 371.215 407.729C377.429 397.438 388.736 379.006 405.57 352.666C423.804 324.135 410.015 310.177 398.797 304.043Z" fill="#AD565C" fill-opacity="0.99"/>
<path d="M386.945 454.871C386.945 454.871 395.742 454.905 413.249 455.396L419.658 452.157C452.925 423.129 478.274 385.267 492.046 342.218C484.987 338.201 476.669 336.04 467.568 336.576C460.365 337 453.951 336.11 446.774 331.741C435.852 325.093 416.87 320.13 401.278 350.189C377.89 395.276 365.268 417.325 365.268 417.325L376.107 436.098L386.945 454.871Z" fill="#AD565C" fill-opacity="0.99"/>
<path d="M306.018 420.039C308.63 426.78 314.626 434.697 328.413 434.697C352.413 434.697 359.913 467.947 359.913 467.947C359.913 467.947 359.41 480.868 371.163 485.177C388.679 476.108 404.965 464.994 419.695 452.137C419.67 451.812 419.653 451.489 419.619 451.163C418.013 435.854 405.73 423.42 390.445 421.602C389.035 421.434 387.64 421.356 386.265 421.361C381.179 421.381 377.148 417.351 377.168 412.265C377.173 410.888 377.094 409.491 376.927 408.078C375.107 392.793 362.669 380.513 347.361 378.909C327.29 376.807 310.341 392.491 310.341 412.134V412.252C310.353 415.582 308.631 418.451 306.018 420.039Z" fill="#F4D009" fill-opacity="0.99"/>
<path d="M360.914 466.947C360.914 466.947 353.414 433.697 329.414 433.697C315.785 433.697 309.767 425.959 307.107 419.27C305.531 420.585 303.492 421.37 301.244 421.361C299.867 421.356 298.47 421.434 297.058 421.603C281.773 423.423 269.492 435.861 267.89 451.171C265.789 471.241 281.473 488.19 301.115 488.19H301.234C306.324 488.172 310.362 492.197 310.342 497.287C310.337 498.663 310.416 500.06 310.583 501.471C310.797 503.272 311.164 505.029 311.661 506.734C333.219 501.98 353.711 494.387 372.726 484.368C360.4 480.269 360.914 466.947 360.914 466.947Z" fill="#F4D009" fill-opacity="0.99"/>
<path d="M343.755 483.852C359.813 483.852 372.831 470.834 372.831 454.776C372.831 438.718 359.813 425.7 343.755 425.7C327.697 425.7 314.679 438.718 314.679 454.776C314.679 470.834 327.697 483.852 343.755 483.852Z" fill="#EFDB61" fill-opacity="0.99"/>
<path d="M414.277 85.844C413.546 78.87 407.95 73.205 400.987 72.377C400.344 72.301 399.709 72.265 399.083 72.267C396.766 72.276 394.93 70.44 394.939 68.123C394.941 67.496 394.906 66.859 394.829 66.216C394 59.253 388.334 53.658 381.36 52.928C372.216 51.97 364.495 59.115 364.495 68.064V68.118C364.5 69.585 363.767 70.858 362.641 71.595C363.232 73.151 364.194 74.827 365.775 76.088C368.041 77.897 371.043 78.447 374.697 77.729C384.361 75.83 388.508 91.516 388.986 93.491C388.784 94.612 388.173 99.209 390.96 102.451C392.051 103.72 393.517 104.595 395.321 105.097C395.974 103.676 397.401 102.705 399.088 102.711H399.141C408.091 102.712 415.236 94.989 414.277 85.844Z" fill="#F4D009" fill-opacity="0.99"/>
<path d="M364.495 106.856C364.492 107.483 364.529 108.119 364.605 108.762C365.434 115.725 371.099 121.32 378.073 122.05C387.217 123.008 394.939 115.863 394.939 106.914C394.939 106.896 394.939 106.878 394.939 106.861C394.935 105.832 395.296 104.9 395.899 104.18C388.09 102.25 390.047 93.472 390.047 93.472C390.047 93.472 385.9 74.466 374.497 76.713C367.41 78.109 364.595 74.1 363.479 70.865C362.723 71.731 361.61 72.274 360.351 72.269C359.724 72.267 359.087 72.302 358.444 72.379C351.481 73.208 345.886 78.874 345.156 85.849C344.199 94.992 351.344 102.713 360.292 102.713H360.346C362.664 102.703 364.503 104.537 364.495 106.856Z" fill="#F4D009" fill-opacity="0.99"/>
<path d="M379.716 100.736C387.032 100.736 392.962 94.8056 392.962 87.49C392.962 80.1744 387.032 74.244 379.716 74.244C372.4 74.244 366.47 80.1744 366.47 87.49C366.47 94.8056 372.4 100.736 379.716 100.736Z" fill="#EFDB61" fill-opacity="0.99"/>
<path d="M446.129 217.915C440.275 214.837 435.473 210.034 432.395 204.181C431.668 202.799 430.247 201.881 428.685 201.878C428.675 201.878 428.666 201.878 428.656 201.878C428.647 201.878 428.637 201.878 428.628 201.878C427.066 201.881 425.645 202.799 424.918 204.181C421.84 210.035 417.037 214.837 411.183 217.915C409.8 218.642 408.882 220.063 408.879 221.625V221.653V221.681C408.882 223.243 409.8 224.664 411.183 225.391C417.037 228.469 421.84 233.272 424.918 239.126C425.645 240.508 427.066 241.426 428.628 241.429H428.656H428.685C430.247 241.426 431.668 240.508 432.395 239.126C435.473 233.272 440.275 228.47 446.129 225.392C447.511 224.665 448.43 223.244 448.433 221.681C448.433 221.672 448.433 221.662 448.433 221.653C448.433 221.644 448.433 221.634 448.433 221.625C448.43 220.063 447.512 218.642 446.129 217.915Z" fill="#F4D009" fill-opacity="0.99"/>
<path d="M225.606 26.545C221.532 24.403 218.19 21.06 216.047 16.986C215.541 16.024 214.552 15.385 213.465 15.383C213.458 15.383 213.452 15.383 213.445 15.383C213.439 15.383 213.432 15.383 213.426 15.383C212.339 15.385 211.35 16.024 210.844 16.986C208.702 21.06 205.359 24.403 201.285 26.545C200.323 27.051 199.684 28.04 199.682 29.127V29.146C199.682 29.146 199.682 29.159 199.682 29.165C199.684 30.252 200.323 31.241 201.285 31.747C205.359 33.889 208.702 37.232 210.844 41.306C211.35 42.268 212.339 42.907 213.426 42.909H213.445H213.465C214.552 42.907 215.541 42.268 216.047 41.306C218.189 37.232 221.531 33.89 225.606 31.747C226.568 31.241 227.207 30.252 227.209 29.164C227.209 29.157 227.209 29.151 227.209 29.145C227.209 29.139 227.209 29.132 227.209 29.126C227.207 28.04 226.568 27.051 225.606 26.545Z" fill="#F4D009" fill-opacity="0.99"/>
<path d="M121.187 359.522C113.338 355.395 106.899 348.956 102.772 341.107C101.798 339.254 99.892 338.023 97.798 338.019C97.785 338.019 97.772 338.019 97.759 338.019C97.747 338.019 97.734 338.019 97.722 338.019C95.627 338.023 93.722 339.254 92.748 341.107C88.621 348.956 82.181 355.395 74.332 359.522C72.478 360.497 71.247 362.403 71.243 364.497V364.534V364.571C71.247 366.665 72.478 368.571 74.332 369.546C82.181 373.673 88.621 380.113 92.747 387.961C93.722 389.815 95.627 391.045 97.722 391.049H97.759H97.798C99.892 391.045 101.797 389.814 102.772 387.961C106.899 380.112 113.338 373.673 121.187 369.546C123.041 368.571 124.272 366.665 124.276 364.571C124.276 364.558 124.276 364.546 124.276 364.534C124.276 364.521 124.276 364.509 124.276 364.497C124.272 362.403 123.041 360.497 121.187 359.522Z" fill="#F4D009" fill-opacity="0.99"/>
</g>
<defs>
<clipPath id="clip0_35_620">
<rect width="512" height="512" fill="white" transform="translate(0.5 0.5)"/>
</clipPath>
</defs>
</svg>
