<svg width="513" height="513" viewBox="0 0 513 513" fill="none" xmlns="http://www.w3.org/2000/svg">
<g clip-path="url(#clip0_35_684)">
<path d="M256.5 22.496C121.189 22.496 11.498 132.187 11.498 267.498C11.498 303.809 19.406 338.269 33.58 369.265L50.613 375.064L43.62 388.844C57.267 412.734 74.82 434.102 95.408 452.084L109.362 450.773L112.61 465.795C117.199 469.13 121.908 472.31 126.729 475.327L141.862 473.189L145.976 486.2C169.557 498.141 195.331 506.371 222.533 510.144L234.112 502.73L244.523 512.204C248.492 512.396 252.484 512.5 256.5 512.5C391.811 512.5 501.502 402.809 501.502 267.498C501.502 132.187 391.811 22.496 256.5 22.496Z" fill="#F4D009" fill-opacity="0.99"/>
<path d="M200.158 450.312C173.594 441.613 143.295 450.971 126.729 475.327C132.963 479.228 139.382 482.861 145.976 486.2C156.897 471.524 175.676 465.849 192.407 470.911L207.362 462.314L200.158 450.312Z" fill="#394064" fill-opacity="0.99"/>
<path d="M358.479 2.59796C353.508 -1.01204 346.542 0.154958 343.018 5.18796L309.346 53.277L327.352 65.885L361.024 17.796C364.464 12.884 363.331 6.12096 358.479 2.59796Z" fill="#394064" fill-opacity="0.99"/>
<path d="M110.775 375.189L150.666 318.219L132.66 305.61L92.7711 362.578C90.0451 366.471 85.0941 368.06 80.5781 366.581C65.0231 361.487 48.1901 362.592 33.5801 369.266C36.6401 375.959 39.9911 382.492 43.6201 388.845C56.7181 383.209 72.3541 384.266 84.8671 393.028C87.4821 394.859 89.8171 396.94 91.8841 399.206H108.417L111.122 387.933C108.206 384.228 108.072 379.05 110.775 375.189Z" fill="#394064" fill-opacity="0.99"/>
<path d="M478.06 86.3289C473.088 82.7189 466.123 83.8859 462.599 88.9189L428.927 137.008L446.933 149.616L480.605 101.527C484.045 96.6149 482.912 89.8529 478.06 86.3289Z" fill="#394064" fill-opacity="0.99"/>
<path d="M230.356 458.92L270.247 401.949L252.241 389.341L212.352 446.309C209.626 450.202 204.675 451.791 200.159 450.312C200.159 450.312 185.399 456.906 192.408 470.911C196.602 472.18 200.669 474.112 204.448 476.758C215.805 484.71 222.08 497.252 222.533 510.145C229.768 511.148 237.101 511.848 244.524 512.205C244.638 497.697 239.88 483.313 230.704 471.663C227.787 467.96 227.653 462.781 230.356 458.92Z" fill="#394064" fill-opacity="0.99"/>
<path d="M292.862 351.246L269.562 354.869C259.126 347.562 245.283 347.185 234.557 354.06C229.293 357.435 224.586 361.872 220.778 367.311C216.735 373.085 214.1 379.423 212.799 385.918C210.381 397.997 215.66 410.33 225.751 417.396L248.351 433.221L288.612 404.066L296.736 373.897L292.862 351.246Z" fill="#AD565C" fill-opacity="0.99"/>
<path d="M309.689 405.374C312.107 393.295 306.828 380.962 296.737 373.896C296.737 373.896 237.747 373.073 248.352 433.22L252.945 436.436C263.036 443.502 276.431 444.244 286.954 437.841C292.613 434.398 297.667 429.754 301.71 423.98C305.753 418.207 308.388 411.868 309.689 405.374Z" fill="#AD565C" fill-opacity="0.99"/>
<path d="M309.487 324.135H293.06L268.089 306.65C259.382 300.553 247.27 302.689 241.173 311.396C235.076 320.103 237.212 332.215 245.919 338.312L296.737 373.895L316.752 359.814L317.56 341.29L309.487 324.135Z" fill="#63784D" fill-opacity="0.99"/>
<path d="M342.531 358.775L317.56 341.29C317.552 341.291 286.137 345.426 296.737 373.896L320.361 390.438C329.068 396.535 341.181 394.399 347.277 385.692C353.374 376.984 351.238 364.872 342.531 358.775Z" fill="#829E76" fill-opacity="0.99"/>
<path d="M358.801 254.064L338.042 259.777L287.774 268.64C274.212 271.031 266.739 285.969 273.213 298.124C278.282 307.643 284.925 316.451 293.059 324.134L317.558 341.289L350.751 305.313L362.65 277.008L358.801 254.064Z" fill="#BA042D" fill-opacity="0.99"/>
<path d="M362.652 277.009C362.652 277.009 304.955 291.733 317.56 341.29C327.132 346.09 337.204 349.235 347.411 350.82L364.696 333.481L369.109 313.629L362.652 277.009Z" fill="#E1504E" fill-opacity="0.99"/>
<path d="M371.515 327.277L369.109 313.629C357.856 316.4 340.314 324.905 347.411 350.821C347.871 350.892 348.33 350.979 348.79 351.044C362.426 352.969 373.906 340.838 371.515 327.277Z" fill="#AD565C" fill-opacity="0.99"/>
<path d="M425.037 180.887L421.268 165.982L402.437 165.063L378.813 148.521C370.106 142.424 357.994 144.56 351.897 153.267C345.8 161.974 347.936 174.086 356.643 180.183L377.272 194.628L384.279 222.065L403.141 212.157L424.706 202.315L425.037 180.887Z" fill="#829E76" fill-opacity="0.99"/>
<path d="M453.255 200.645L430.521 184.727L428.866 179.565L425.037 180.887C425.037 180.887 392.03 183.898 403.141 212.157L403.409 212.929L404.861 218.231L411.972 218.925L431.084 232.307C439.791 238.404 451.903 236.268 458 227.561C464.098 218.854 461.962 206.742 453.255 200.645Z" fill="#829E76" fill-opacity="0.99"/>
<path d="M446.248 102.535C435.812 95.228 421.968 94.851 411.243 101.727C405.979 105.102 401.272 109.539 397.463 114.978C393.42 120.752 390.785 127.09 389.485 133.585C387.067 145.664 392.346 157.997 402.437 165.063L425.037 180.887L468.828 154.118V118.347L446.248 102.535Z" fill="#AD565C" fill-opacity="0.99"/>
<path d="M486.374 153.04C488.792 140.961 483.513 128.628 473.422 121.562L468.828 118.346C468.828 118.346 420.259 124.101 425.037 180.887L429.63 184.103C439.721 191.169 453.116 191.911 463.639 185.508C469.298 182.065 474.352 177.421 478.395 171.647C482.439 165.873 485.074 159.535 486.374 153.04Z" fill="#AD565C" fill-opacity="0.99"/>
<path d="M403.142 212.157L380.561 196.346C370.125 189.039 356.281 188.662 345.556 195.538C340.292 198.913 335.585 203.35 331.777 208.789C327.734 214.563 325.099 220.901 323.799 227.395C321.381 239.474 326.66 251.807 336.751 258.873L362.653 277.009L404.864 244.814L403.142 212.157Z" fill="#AD565C" fill-opacity="0.99"/>
<path d="M420.687 246.851C423.105 234.772 417.826 222.439 407.735 215.373L403.141 212.157C403.141 212.157 349.052 221.804 362.651 277.009L363.943 277.914C374.034 284.98 387.429 285.723 397.952 279.319C403.611 275.876 408.665 271.232 412.708 265.458C416.752 259.684 419.387 253.346 420.687 246.851Z" fill="#AD565C" fill-opacity="0.99"/>
<path d="M173.281 267.514L149.981 271.136C139.545 263.829 125.701 263.452 114.976 270.328C109.712 273.703 105.006 278.14 101.197 283.579C97.154 289.353 94.519 295.69 93.218 302.186C90.8 314.265 96.079 326.598 106.17 333.664L128.77 349.489L169.031 320.333L177.155 290.164L173.281 267.514Z" fill="#AD565C" fill-opacity="0.99"/>
<path d="M190.108 321.642C192.526 309.563 187.247 297.23 177.156 290.164C177.156 290.164 118.166 289.341 128.771 349.488L133.364 352.704C143.455 359.77 156.85 360.512 167.373 354.109C173.032 350.666 178.086 346.022 182.129 340.248C186.172 334.475 188.807 328.137 190.108 321.642Z" fill="#AD565C" fill-opacity="0.99"/>
<path d="M189.906 240.404H173.479L148.508 222.919C139.801 216.822 127.689 218.958 121.592 227.665C115.495 236.372 117.631 248.484 126.338 254.581L177.156 290.164L197.171 276.083L197.979 257.559L189.906 240.404Z" fill="#39412D" fill-opacity="0.99"/>
<path d="M222.95 275.044L197.979 257.559C197.971 257.56 166.556 261.695 177.156 290.165L200.78 306.707C209.487 312.804 221.6 310.668 227.696 301.961C233.793 293.253 231.657 281.141 222.95 275.044Z" fill="#63784D" fill-opacity="0.99"/>
<path d="M239.22 170.333L218.461 176.046L168.193 184.909C154.631 187.3 147.158 202.238 153.632 214.393C158.701 223.911 165.344 232.719 173.478 240.403L197.977 257.557L231.17 221.581L243.069 193.276L239.22 170.333Z" fill="#BA042D" fill-opacity="0.99"/>
<path d="M243.071 193.278C243.071 193.278 185.374 208.002 197.979 257.559C207.551 262.359 217.623 265.504 227.83 267.089L245.115 249.75L249.528 229.898L243.071 193.278Z" fill="#BA042D" fill-opacity="0.99"/>
<path d="M251.934 243.545L249.527 229.897C238.274 232.668 220.732 241.173 227.829 267.089C228.289 267.16 228.748 267.247 229.208 267.312C242.845 269.238 254.325 257.107 251.934 243.545Z" fill="#E1504E" fill-opacity="0.99"/>
<path d="M305.456 97.155L301.687 82.25L282.856 81.331L259.232 64.789C250.525 58.692 238.413 60.828 232.316 69.535C226.219 78.242 228.355 90.354 237.062 96.451L257.691 110.896L264.698 138.333L283.56 128.425L305.125 118.583L305.456 97.155Z" fill="#63784D" fill-opacity="0.99"/>
<path d="M333.674 116.913L310.94 100.995L309.285 95.833L305.456 97.155C305.456 97.155 272.449 100.166 283.56 128.425L283.828 129.197L285.28 134.499L292.391 135.193L311.503 148.575C320.21 154.672 332.322 152.536 338.419 143.829C344.517 135.122 342.381 123.01 333.674 116.913Z" fill="#829E76" fill-opacity="0.99"/>
<path d="M326.667 18.8029C316.231 11.4959 302.387 11.1189 291.662 17.9949C286.398 21.3699 281.691 25.8069 277.882 31.2459C273.839 37.0199 271.204 43.358 269.904 49.853C267.486 61.932 272.765 74.2649 282.856 81.3309L305.456 97.1559L349.247 70.387V34.6139L326.667 18.8029Z" fill="#AD565C" fill-opacity="0.99"/>
<path d="M366.793 69.309C369.211 57.23 363.932 44.897 353.841 37.831L349.247 34.615C349.247 34.615 300.678 40.37 305.456 97.155L310.049 100.371C320.14 107.437 333.535 108.18 344.058 101.776C349.716 98.333 354.771 93.689 358.814 87.915C362.858 82.142 365.493 75.804 366.793 69.309Z" fill="#AD565C" fill-opacity="0.99"/>
<path d="M283.561 128.425L260.98 112.614C250.544 105.307 236.7 104.93 225.975 111.806C220.711 115.181 216.004 119.618 212.196 125.057C208.153 130.831 205.518 137.169 204.217 143.663C201.799 155.742 207.078 168.075 217.169 175.141L243.07 193.277L285.281 161.082L283.561 128.425Z" fill="#AD565C" fill-opacity="0.99"/>
<path d="M301.106 163.12C303.524 151.041 298.245 138.708 288.154 131.642L283.56 128.426C283.56 128.426 229.471 138.073 243.07 193.278L244.362 194.183C254.453 201.249 267.848 201.991 278.371 195.588C284.03 192.145 289.084 187.5 293.127 181.727C297.171 175.952 299.806 169.615 301.106 163.12Z" fill="#AD565C" fill-opacity="0.99"/>
<path d="M91.885 399.205C104.958 413.534 106.906 435.515 95.409 452.085C100.929 456.907 106.671 461.478 112.611 465.796C112.843 465.477 113.087 465.17 113.314 464.845C130.006 441.006 128.268 409.699 111.123 387.932C111.123 387.932 93.809 386.323 91.885 399.205Z" fill="#394064" fill-opacity="0.99"/>
<path d="M147.394 140.179C139.995 140.179 133.996 134.18 133.996 126.781C133.996 123.64 133.526 122.694 132.269 120.169C126.164 107.892 126.16 95.3609 132.27 83.0789C133.526 80.5539 133.996 79.6089 133.996 76.4679C133.996 69.0689 139.994 63.0699 147.394 63.0699C154.793 63.0699 160.792 69.0689 160.792 76.4679C160.792 85.9059 158.066 91.3859 156.261 95.0129C155.005 97.5379 154.535 98.4829 154.535 101.624C154.535 104.764 155.005 105.709 156.261 108.235C158.065 111.862 160.792 117.343 160.792 126.781C160.792 134.18 154.794 140.179 147.394 140.179Z" fill="#EA9810" fill-opacity="0.99"/>
<path d="M95.038 202.751C87.639 202.751 81.64 196.752 81.64 189.353C81.64 186.212 81.17 185.266 79.913 182.741C73.808 170.464 73.804 157.934 79.914 145.651C81.17 143.126 81.64 142.181 81.64 139.04C81.64 131.641 87.638 125.642 95.038 125.642C102.438 125.642 108.436 131.641 108.436 139.04C108.436 148.478 105.71 153.958 103.905 157.585C102.649 160.11 102.179 161.055 102.179 164.196C102.179 167.336 102.649 168.281 103.905 170.807C105.709 174.434 108.436 179.915 108.436 189.353C108.436 196.752 102.437 202.751 95.038 202.751Z" fill="#EA9810" fill-opacity="0.99"/>
<path d="M199.75 77.608C192.351 77.608 186.352 71.609 186.352 64.21C186.352 61.069 185.882 60.124 184.625 57.598C178.52 45.321 178.516 32.791 184.626 20.508C185.882 17.983 186.352 17.037 186.352 13.897C186.353 6.499 192.351 0.5 199.75 0.5C207.149 0.5 213.148 6.499 213.148 13.898C213.148 23.336 210.422 28.816 208.617 32.443C207.361 34.968 206.891 35.913 206.891 39.053C206.891 42.193 207.361 43.138 208.617 45.664C210.421 49.291 213.148 54.772 213.148 64.21C213.148 71.609 207.15 77.608 199.75 77.608Z" fill="#EA9810" fill-opacity="0.99"/>
</g>
<defs>
<clipPath id="clip0_35_684">
<rect width="512" height="512" fill="white" transform="translate(0.5 0.5)"/>
</clipPath>
</defs>
</svg>
