<svg width="513" height="513" viewBox="0 0 513 513" fill="none" xmlns="http://www.w3.org/2000/svg">
<g clip-path="url(#clip0_35_422)">
<path d="M394.218 472.338C389.673 475.244 383.9 475.529 379.167 472.94C342.742 453.017 300.944 441.692 256.5 441.692C212.135 441.692 170.407 452.977 134.028 472.834C129.185 475.477 123.275 475.216 118.629 472.24C47.852 426.915 0.851963 347.716 0.501963 257.515C0.215963 183.976 31.202 117.425 80.898 70.477C81.968 69.467 86.711 69.215 87.798 68.223C122.28 36.744 163.053 16.894 210.734 7.968C213.054 7.534 214.029 4.019 216.37 3.648C229.449 1.576 242.852 0.5 256.501 0.5C397.885 0.5 512.5 115.116 512.5 256.5C512.5 347.187 465.346 426.86 394.218 472.338Z" fill="#BA042D" fill-opacity="0.99"/>
<path d="M244.785 17.84C356.711 17.84 447.445 108.574 447.445 220.5C447.445 332.426 356.711 423.16 244.785 423.16C132.859 423.16 42.126 332.426 42.126 220.5C42.126 108.574 132.859 17.84 244.785 17.84Z" fill="#AD565C" fill-opacity="0.99"/>
<path d="M380.09 232.167C380.09 234.928 377.852 237.167 375.09 237.167H366.757V245.5C366.757 248.261 364.519 250.5 361.757 250.5C358.995 250.5 356.757 248.261 356.757 245.5V237.167H348.423C345.661 237.167 343.423 234.928 343.423 232.167C343.423 229.406 345.661 227.167 348.423 227.167H356.757V218.834C356.757 216.073 358.995 213.834 361.757 213.834C364.519 213.834 366.757 216.073 366.757 218.834V227.167H375.09C377.851 227.167 380.09 229.405 380.09 232.167Z" fill="#EA9810" fill-opacity="0.99"/>
<path d="M427.379 172.625C427.379 175.386 425.141 177.625 422.379 177.625H414.046V185.958C414.046 188.719 411.808 190.958 409.046 190.958C406.284 190.958 404.046 188.719 404.046 185.958V177.625H395.712C392.95 177.625 390.712 175.386 390.712 172.625C390.712 169.864 392.95 167.625 395.712 167.625H404.046V159.292C404.046 156.531 406.284 154.292 409.046 154.292C411.808 154.292 414.046 156.531 414.046 159.292V167.625H422.379C425.141 167.625 427.379 169.864 427.379 172.625Z" fill="#ACC1D3" fill-opacity="0.99"/>
<path d="M227.877 73.441C233.939 61.828 292.205 55.942 303.259 56.686C318.846 57.734 331.021 65.445 328.793 98.575C326.877 127.063 314.936 165.069 301.717 174.494C301.05 175.153 300.329 175.823 299.549 176.505C287.049 187.43 264.372 197.158 258.203 190.1C252.035 183.042 264.712 161.871 277.211 150.947C277.406 150.777 277.599 150.61 277.792 150.447C275.316 141.371 273.568 130.815 272.685 120.252C266.554 119.178 260.007 116.972 253.569 113.611C233.317 103.039 221.815 85.055 227.877 73.441Z" fill="#F8E5C2" fill-opacity="0.99"/>
<path d="M181.917 14.137C181.923 14.125 181.93 14.113 181.936 14.101C183.002 12.074 184.93 10.628 187.135 10.009C196.666 7.33199 206.422 5.19399 216.368 3.62799C235.874 5.29199 261.158 13.143 286.83 26.543C328.593 48.343 357.719 77.699 358.69 97.139C358.747 98.278 358.345 113.691 356.167 122.866C349.572 150.646 331.517 186.157 316.923 193.269C316.157 193.809 315.334 194.351 314.452 194.894C300.319 203.604 276.346 209.453 271.429 201.473C266.511 193.494 282.511 174.707 296.644 165.997C296.864 165.862 297.083 165.729 297.299 165.6C295.652 149.249 296.944 128.813 300.588 112.148C285.6 108.314 268.922 101.911 252.078 93.118C203.732 67.882 172.32 32.521 181.917 14.137Z" fill="#F8E5C2" fill-opacity="0.99"/>
<path d="M312.5 218.5C312.5 246.114 290.114 268.5 262.5 268.5C234.886 268.5 212.5 246.114 212.5 218.5C212.5 190.886 234.886 168.5 262.5 168.5C290.114 168.5 312.5 190.886 312.5 218.5Z" fill="#EA9810" fill-opacity="0.99"/>
<path d="M312.734 216.967C312.837 221.826 312.074 226.532 310.925 230.998C310.14 234.048 307.325 236.138 304.175 236.138H304.165C299.624 236.138 296.243 231.872 297.372 227.474C298.222 224.161 298.18 221.096 298.039 217.486C297.295 198.485 281.9 183.167 262.885 182.968C257.033 182.907 251.499 183.776 246.595 186.195C241.914 188.504 236.436 185.174 236.436 179.955C236.436 177.284 237.956 174.848 240.349 173.663C247.445 170.151 255.492 168.198 264.003 168.405C289.372 169.02 312.14 188.862 312.734 216.967Z" fill="#EA9810" fill-opacity="0.99"/>
<path d="M298.5 218.5C298.5 238.382 282.382 254.5 262.5 254.5C242.618 254.5 226.5 238.382 226.5 218.5C226.5 198.618 242.618 182.5 262.5 182.5C282.382 182.5 298.5 198.618 298.5 218.5Z" fill="#EA9810" fill-opacity="0.99"/>
<path d="M298.5 218.5C298.5 222.707 297.778 226.745 296.452 230.498C290.617 236.075 282.709 239.5 274 239.5C256.051 239.5 241.5 224.949 241.5 207C241.5 198.292 244.925 190.383 250.502 184.548C254.255 183.222 258.293 182.5 262.5 182.5C282.382 182.5 298.5 198.618 298.5 218.5Z" fill="#EFDB61" fill-opacity="0.99"/>
<path d="M262.5 241.5C259.739 241.5 257.5 239.261 257.5 236.5V200.5C257.5 197.739 259.739 195.5 262.5 195.5C265.261 195.5 267.5 197.739 267.5 200.5V236.5C267.5 239.261 265.261 241.5 262.5 241.5Z" fill="#EA9810" fill-opacity="0.99"/>
<path d="M80.8979 70.477C114.099 39.108 155.511 16.438 201.772 6.36301C203.441 6.00001 260.575 47.18 260.575 47.18L244.623 77.74L229.152 107.379C226.136 113.157 225.501 119.864 227.291 126.13C238.245 164.481 241.092 210.938 233.94 226.922C233.286 228.741 232.27 230.372 230.877 231.725C224.172 238.24 214.927 241.662 205.735 232.202C204.173 230.595 203.473 228.412 203.431 225.942C203.189 211.704 199.287 197.754 193.124 184.916C184.253 166.437 175.414 145.402 167.989 127.243L167.912 127.055C163.352 115.891 154.854 106.788 144.028 101.473L80.8979 70.477Z" fill="#F8E5C2" fill-opacity="0.99"/>
<path d="M151.724 84.556C164.878 91.014 175.204 102.075 180.745 115.641L180.838 115.869C189.86 137.934 200.6 163.494 211.38 185.948C218.869 201.547 212.06 238.711 205.736 232.202C204.174 230.595 203.474 228.412 203.432 225.942C203.19 211.704 199.288 197.754 193.125 184.917C184.253 166.438 175.415 145.403 167.99 127.244L167.913 127.056C163.353 115.892 154.855 106.789 144.029 101.474L80.8979 70.477C85.7769 65.867 90.8359 61.446 96.0649 57.227L151.724 84.556Z" fill="#F8E5C2" fill-opacity="0.99"/>
<path d="M394.5 332.5V472.157C354.678 497.693 307.318 512.5 256.5 512.5C205.682 512.5 158.322 497.693 118.5 472.157V332.5C118.5 310.409 136.409 292.5 158.5 292.5H178.5V260.5C178.5 254.977 182.977 250.5 188.5 250.5H324.5C330.023 250.5 334.5 254.977 334.5 260.5V292.5H354.5C376.591 292.5 394.5 310.409 394.5 332.5Z" fill="#394064" fill-opacity="0.99"/>
<path d="M394.5 332.5V373.5C394.5 432.595 346.595 480.5 287.5 480.5C228.406 480.5 180.5 432.595 180.5 373.5V332.5C180.5 310.409 198.409 292.5 220.5 292.5H354.5C376.591 292.5 394.5 310.409 394.5 332.5Z" fill="#ACC1D3" fill-opacity="0.99"/>
<path d="M171.5 267.5C171.5 264.739 173.739 262.5 176.5 262.5H336.5C339.261 262.5 341.5 264.739 341.5 267.5C341.5 270.261 339.261 272.5 336.5 272.5H176.5C173.739 272.5 171.5 270.261 171.5 267.5ZM336.5 282.5H176.5C173.739 282.5 171.5 284.739 171.5 287.5C171.5 290.261 173.739 292.5 176.5 292.5H336.5C339.261 292.5 341.5 290.261 341.5 287.5C341.5 284.739 339.261 282.5 336.5 282.5ZM356.757 315.5C350.647 315.5 345.693 320.453 345.693 326.564V361.883C345.693 367.993 350.646 372.947 356.757 372.947C362.867 372.947 367.821 367.994 367.821 361.883V326.564C367.82 320.453 362.867 315.5 356.757 315.5Z" fill="#ACC1D3" fill-opacity="0.99"/>
<path d="M256.5 512.5C219.859 512.5 185.016 504.802 153.5 490.936V469C153.5 464.858 156.858 461.5 161 461.5H174.935C175.421 459.096 177.074 456.979 179.524 456.007L230.102 435.953C232.631 434.95 235.23 437.238 234.556 439.873L231.587 451.5C231.587 451.5 257.33 512.5 256.5 512.5Z" fill="#EA9810" fill-opacity="0.99"/>
<path d="M284.349 402.48C285.594 398.529 289.806 396.335 293.756 397.58L355.752 417.112C359.703 418.357 361.896 422.568 360.652 426.519C359.408 430.47 355.195 432.663 351.245 431.419L289.249 411.887C285.298 410.643 283.104 406.431 284.349 402.48ZM356 461.5H280.073C280.446 460.443 280.591 459.28 280.443 458.065C279.982 454.263 276.575 451.5 272.745 451.5H231.587L245.184 446.109C249.002 444.595 251.164 440.334 249.765 436.472C248.318 432.477 243.868 430.494 239.947 432.048L230.809 435.671C215.689 441.666 205.76 456.283 205.76 472.549C205.76 493.564 222.14 511.076 243.127 512.156C247.557 512.385 252.015 512.5 256.5 512.5C294.698 512.5 330.942 504.134 363.5 489.134V469C363.5 464.858 360.142 461.5 356 461.5Z" fill="#EA9810" fill-opacity="0.99"/>
<path d="M251.471 480.718C251.471 484.86 248.113 488.218 243.971 488.218H189.753C185.611 488.218 182.253 484.86 182.253 480.718C182.253 476.576 185.611 473.218 189.753 473.218H243.971C248.113 473.218 251.471 476.576 251.471 480.718ZM328.236 356.708C326.709 352.857 322.35 350.974 318.5 352.5L258.076 376.458C254.225 377.985 252.342 382.344 253.868 386.194C255.395 390.045 259.754 391.928 263.604 390.402L324.028 366.444C327.879 364.917 329.763 360.558 328.236 356.708ZM319.787 483.782H277.475C273.333 483.782 269.975 487.14 269.975 491.282C269.975 495.424 273.333 498.782 277.475 498.782H319.787C323.929 498.782 327.287 495.424 327.287 491.282C327.287 487.14 323.929 483.782 319.787 483.782Z" fill="#EA9810" fill-opacity="0.99"/>
</g>
<defs>
<clipPath id="clip0_35_422">
<rect width="512" height="512" fill="white" transform="translate(0.5 0.5)"/>
</clipPath>
</defs>
</svg>
