<svg width="684" height="684" viewBox="0 0 684 684" fill="none" xmlns="http://www.w3.org/2000/svg">
<g clip-path="url(#clip0_35_443)">
<path d="M668.177 349.328C668.177 533.703 518.713 683.166 334.339 683.166C324.26 683.166 314.286 682.718 304.438 681.843C291.396 680.687 278.568 676.171 266 673.557C252.505 670.75 239.307 669.734 226.464 665.354C95.0262 620.5 0.500229 495.953 0.500229 349.328C0.500229 164.953 149.964 15.4896 334.339 15.4896C518.713 15.4896 668.177 164.953 668.177 349.328Z" fill="#5C658F" fill-opacity="0.99"/>
<path d="M454.479 236.562C469.76 251.838 469.76 276.609 454.479 291.89L385.323 361.047C337.021 409.349 258.427 409.349 210.125 361.047L200.901 351.828C183.109 334.031 154.151 334.031 136.354 351.828C118.557 369.62 118.557 398.578 136.354 416.375L274.672 554.687C309 589.015 318.901 638.64 304.438 681.817C277.391 679.416 251.266 673.807 226.464 665.343C236.688 647.864 234.318 624.989 219.344 610.015L81.0262 471.698C32.7242 423.396 32.7242 344.802 81.0262 296.5C129.333 248.198 207.927 248.198 256.229 296.5L265.448 305.719C283.245 323.515 312.203 323.515 329.995 305.719L399.156 236.562C414.432 221.286 439.203 221.286 454.479 236.562Z" fill="#ACC1D3" fill-opacity="0.99"/>
<path d="M465.713 260.078C456.047 264.692 444.135 263.041 436.109 255.073C430.979 249.984 422.703 249.896 417.599 255.005L355.573 317.031C351.63 320.968 351.63 327.354 355.573 331.291L385.323 361.047C380.62 365.755 375.62 369.995 370.396 373.781L336.036 339.422C334.068 337.448 331.073 336.989 328.557 338.187C322.63 341.005 316.401 342.968 310.052 344.073C306.953 344.609 304.708 347.333 304.708 350.479V397.067C298.188 397.437 291.646 397.291 285.146 396.63V349.38C285.146 346.375 283.146 343.698 280.229 342.968C273.693 341.333 267.344 338.765 261.396 335.271C258.802 333.75 255.516 334.099 253.385 336.224L219.828 369.781C216.479 367.067 213.24 364.161 210.125 361.047L205.516 356.437L237.787 324.161C240.333 321.614 240.333 317.489 237.787 314.942C225.245 302.396 210.109 293.995 194.089 289.708C189.974 288.609 185.953 291.776 185.953 296.031V341.875C179.714 339.328 173.026 338.213 166.391 338.531V293.317C166.391 289.458 163.063 286.448 159.224 286.817C144.083 288.265 129.224 293.229 115.974 301.698C112.438 303.958 111.849 308.875 114.818 311.844L146.927 343.953C143.125 346.005 139.557 348.62 136.354 351.823C134.792 353.39 133.37 355.047 132.078 356.771L100.156 324.843C97.3439 322.031 92.6877 322.375 90.3023 325.557C81.021 337.953 75.0627 352.062 72.4325 366.661C71.7137 370.656 74.8127 374.317 78.8648 374.317H124.073C122.672 380.76 122.672 387.442 124.073 393.88H78.8596C74.8231 393.88 71.7137 397.521 72.4273 401.494C75.4377 418.307 82.8596 434.479 94.6929 448.13C97.1773 450.994 101.573 451.156 104.25 448.474L136.354 416.375L150.188 430.203L117.912 462.479C115.365 465.026 115.365 469.156 117.912 471.698L139.427 493.213C141.974 495.76 146.104 495.76 148.651 493.213L180.922 460.942L194.755 474.776L162.479 507.047C159.932 509.593 159.932 513.724 162.479 516.27L183.995 537.786C186.542 540.333 190.672 540.333 193.219 537.786L225.49 505.51L239.323 519.343L207.047 551.614C204.5 554.161 204.5 558.291 207.047 560.838L228.563 582.354C231.109 584.901 235.24 584.901 237.787 582.354L270.057 550.078L274.667 554.687C277.787 557.802 280.693 561.046 283.406 564.395L249.854 597.947C247.776 600.02 247.302 603.255 248.797 605.781C252.813 612.567 255.609 619.875 257.193 627.39C257.823 630.385 260.495 632.505 263.552 632.505H310.505C311.016 639.015 311.016 645.557 310.505 652.067H263.563C260.505 652.067 257.828 654.182 257.203 657.171C256.068 662.557 254.307 667.843 251.922 672.901C243.297 670.713 234.807 668.187 226.464 665.338C236.688 647.859 234.318 624.989 219.344 610.015L81.0262 471.698C32.4377 423.109 32.7294 343.864 81.896 295.635C130.594 247.88 209.12 249.39 257.349 297.62L265.448 305.719C283.245 323.515 312.203 323.515 330 305.719L399.156 236.562C414.432 221.286 439.203 221.286 454.479 236.562C461.062 243.146 464.802 251.489 465.713 260.078Z" fill="#394064" fill-opacity="0.99"/>
<path d="M682.807 89.9739C679.354 109.818 651.5 120.198 631.104 119.802C609.739 119.391 583.818 106.922 583.38 92.9583C582.703 71.6406 641.208 40 668.885 59.151C678.276 65.651 684.807 78.4687 682.807 89.9739ZM571.432 8.38018C560.87 23.6458 578.323 55.9218 590.083 55.552C597.786 55.3072 604.666 41.0052 604.896 29.2239C605.109 17.9687 599.385 2.60414 588.437 0.697895C582.088 -0.406272 575.015 3.19789 571.432 8.38018Z" fill="#ACC1D3" fill-opacity="0.99"/>
<path d="M682.807 89.9739C679.354 109.818 651.5 120.198 631.104 119.802C609.745 119.391 583.818 106.922 583.38 92.9583C583.297 90.3385 584.109 87.5676 585.646 84.7499C598.047 90.4999 615.135 94.3697 630.443 94.5937C647.609 94.8489 668.817 90.6145 682.922 82.2499C683.25 84.8333 683.245 87.4374 682.807 89.9739ZM597.021 51.5468C587.177 42.4843 578.406 20.2708 586.635 8.3802C588.26 6.03124 590.604 4.01562 593.271 2.60416C591.786 1.68229 590.187 1.00521 588.437 0.703123C582.088 -0.401043 575.015 3.20312 571.432 8.3802C560.87 23.651 578.323 55.9218 590.083 55.552C592.541 55.4739 594.916 53.9479 597.021 51.5468Z" fill="#5C658F" fill-opacity="0.99"/>
<path d="M603.864 127.755L594.64 136.974C589.547 142.068 581.291 142.068 576.198 136.974L546.693 107.469C541.599 102.375 541.599 94.1197 546.693 89.026L555.911 79.802C561.005 74.7135 569.26 74.7135 574.354 79.802L603.864 109.312C608.953 114.406 608.953 122.661 603.864 127.755Z" fill="#BA042D" fill-opacity="0.99"/>
<path d="M603.864 164.64L594.64 173.859C589.875 178.625 582.338 178.932 577.213 174.776L453.411 327.708L456.323 330.62C461.417 335.713 461.417 343.969 456.323 349.062L447.104 358.281C442.01 363.375 433.755 363.375 428.661 358.281L325.385 255.005C320.292 249.911 320.292 241.656 325.385 236.562L334.609 227.344C339.703 222.25 347.958 222.25 353.052 227.344L355.964 230.255L508.896 106.453C504.739 101.333 505.042 93.7916 509.807 89.026L519.031 79.8072C524.12 74.7135 532.38 74.7135 537.474 79.8072L603.864 146.198C608.953 151.292 608.953 159.547 603.864 164.64Z" fill="#BA042D" fill-opacity="0.99"/>
<path d="M456.323 330.62C461.417 335.713 461.417 343.969 456.323 349.062C451.234 354.151 442.974 354.151 437.885 349.062L362.271 273.448C357.177 268.354 357.177 260.099 362.271 255.005C367.365 249.911 375.62 249.911 380.714 255.005L456.323 330.62ZM547.328 144.984C542.609 140.266 535.088 139.87 529.901 144.073L441.99 215.234C423.297 230.37 421.203 258.588 438.203 275.609C455.141 292.568 483.036 291.114 498.114 272.484L577.219 174.771C576.864 174.489 576.526 174.187 576.203 173.859L547.328 144.984ZM603.864 146.198L555.911 98.2447C550.818 93.1562 542.562 93.1562 537.469 98.2447C532.38 103.338 532.38 111.594 537.469 116.687L585.422 164.635C590.51 169.729 598.771 169.729 603.864 164.635C608.953 159.547 608.953 151.292 603.864 146.198Z" fill="#BA042D" fill-opacity="0.99"/>
</g>
<defs>
<clipPath id="clip0_35_443">
<rect width="682.667" height="682.667" fill="white" transform="translate(0.5 0.5)"/>
</clipPath>
</defs>
</svg>
