<svg width="684" height="684" viewBox="0 0 684 684" fill="none" xmlns="http://www.w3.org/2000/svg">
<g clip-path="url(#clip0_35_452)">
<path d="M683.167 342.109C683.167 530.042 530.802 680 342.891 682.391C157.75 684.74 29.0625 552.354 2.60937 342.109C-20.849 155.651 154.958 1.83344 342.891 1.83344C530.818 1.83344 683.167 154.182 683.167 342.109Z" fill="#394064" fill-opacity="0.99"/>
<path d="M625.38 73.5105L618.005 118.193H67.7812L60.4062 73.5105C56.8125 51.7917 72.7812 31.7084 94.7708 30.3334C101.255 29.9271 108.396 29.5001 116.104 29.0417C172.229 25.7761 258.615 21.7501 342.896 21.7501C438.739 21.7501 537.312 26.9584 591.005 30.3334C612.989 31.7084 628.963 51.7917 625.38 73.5105Z" fill="#9B878D" fill-opacity="0.99"/>
<path d="M127 90.7188C121.526 91.3803 116.531 87.5209 115.833 82.0678C115.229 77.2813 114.625 72.4896 114.021 67.7032C113.323 62.2501 117.286 57.2553 122.87 56.5782C128.458 55.9063 133.49 59.8126 134.12 65.2761C134.672 70.0678 135.229 74.8646 135.781 79.6563C136.406 85.1198 132.474 90.0573 127 90.7188Z" fill="#646467" fill-opacity="0.99"/>
<path d="M183.323 84.7656C177.838 85.2604 172.963 81.2552 172.432 75.7813C171.969 70.9792 171.51 66.1719 171.047 61.3698C170.521 55.9011 174.625 51.0261 180.224 50.5157C185.818 50.0104 190.734 54.0677 191.193 59.5469C191.604 64.3542 192.016 69.1615 192.422 73.974C192.885 79.4531 188.807 84.2709 183.323 84.7656Z" fill="#646467" fill-opacity="0.99"/>
<path d="M239.76 80.5157C234.266 80.8438 229.516 76.6927 229.151 71.2084C228.833 66.3907 228.516 61.5782 228.203 56.7604C227.838 51.2761 232.083 46.5261 237.693 46.1875C243.297 45.849 248.088 50.0573 248.38 55.5469C248.646 60.3646 248.911 65.1823 249.177 70.0052C249.474 75.4948 245.255 80.1823 239.76 80.5157Z" fill="#646467" fill-opacity="0.99"/>
<path d="M465.896 80.5157C460.401 80.1823 456.182 75.4948 456.479 70C456.745 65.1823 457.01 60.3646 457.271 55.5417C457.568 50.0521 462.354 45.849 467.963 46.1876C473.568 46.5261 477.818 51.2761 477.453 56.7605C477.135 61.573 476.823 66.3907 476.505 71.2084C476.141 76.6928 471.391 80.8438 465.896 80.5157Z" fill="#646467" fill-opacity="0.99"/>
<path d="M296.276 77.9636C290.776 78.1302 286.151 73.8386 285.953 68.3438C285.781 63.5156 285.609 58.6927 285.443 53.8698C285.239 48.3802 289.63 43.7552 295.239 43.5886C300.854 43.4219 305.51 47.7656 305.641 53.2656C305.76 58.0886 305.88 62.9115 306 67.7396C306.13 73.2344 301.776 77.7969 296.276 77.9636Z" fill="#646467" fill-opacity="0.99"/>
<path d="M352.828 77.1146C347.323 77.1146 342.838 72.6823 342.802 67.1875C342.776 62.3594 342.75 57.5313 342.724 52.7084C342.687 47.2084 347.213 42.724 352.828 42.724C358.443 42.724 362.969 47.2136 362.932 52.7084C362.906 57.5313 362.88 62.3594 362.854 67.1875C362.823 72.6823 358.333 77.1146 352.828 77.1146Z" fill="#646467" fill-opacity="0.99"/>
<path d="M409.38 77.9636C403.88 77.7969 399.526 73.2344 399.656 67.7396C399.776 62.9115 399.896 58.0886 400.016 53.2656C400.146 47.7708 404.802 43.4219 410.417 43.5886C416.026 43.7604 420.417 48.3802 420.213 53.8698C420.047 58.6927 419.875 63.5156 419.703 68.3438C419.505 73.8386 414.885 78.1302 409.38 77.9636Z" fill="#646467" fill-opacity="0.99"/>
<path d="M522.333 84.7657C516.849 84.2709 512.771 79.4532 513.234 73.974C513.64 69.1667 514.052 64.3594 514.458 59.5469C514.922 54.073 519.833 50.0105 525.432 50.5157C531.031 51.0261 535.135 55.9011 534.604 61.3698C534.146 66.1771 533.687 70.9792 533.224 75.7865C532.698 81.2552 527.823 85.2604 522.333 84.7657Z" fill="#646467" fill-opacity="0.99"/>
<path d="M578.656 90.7188C573.182 90.0573 569.25 85.1198 569.875 79.6563C570.432 74.8646 570.984 70.0677 571.542 65.2709C572.167 59.8125 577.203 55.9011 582.786 56.5782C588.37 57.2552 592.333 62.25 591.635 67.7032C591.031 72.4896 590.427 77.2813 589.823 82.0677C589.13 87.5261 584.13 91.3802 578.656 90.7188Z" fill="#646467" fill-opacity="0.99"/>
<path d="M634.838 517.01C611.297 556.234 580.073 590.302 543.255 617.177C487.047 658.193 417.797 682.385 342.896 682.385C267.979 682.385 198.729 658.177 142.521 617.167C130.214 608.177 118.521 598.385 107.531 587.859C85.6875 566.927 66.6146 543.109 50.9479 517.01C47.6146 393.318 52.2396 269.625 64.8385 145.927C65.7708 136.677 66.7552 127.443 67.7812 118.193C75.0052 117.094 82.2396 116.042 89.4635 115.042C101.698 113.333 113.922 111.734 126.156 110.276C282.865 91.5261 439.604 93.1095 596.323 115.042C603.547 116.042 610.781 117.094 618.005 118.193C619.031 127.443 620.021 136.677 620.948 145.927C633.531 269.625 638.156 393.318 634.838 517.01Z" fill="#9B878D" fill-opacity="0.99"/>
<path d="M126.156 110.276L113.99 118.193H67.7812L60.4062 73.5105C56.8125 51.7917 72.7812 31.7084 94.7708 30.3334C101.255 29.9272 108.396 29.5001 116.104 29.0417C109.323 61.1511 126.156 110.276 126.156 110.276Z" fill="#646467" fill-opacity="0.99"/>
<path d="M107.531 587.859C85.6875 566.927 66.6146 543.109 50.9479 517.01C47.6146 393.318 52.2396 269.625 64.8385 145.927C65.7708 136.677 66.7552 127.443 67.7812 118.193C75.0052 117.094 82.2396 116.042 89.4635 115.042C101.698 113.333 113.922 111.734 126.156 110.276C101.281 186.094 104.854 469.469 107.531 587.859Z" fill="#646467" fill-opacity="0.99"/>
<path d="M508.927 204.568C398.234 195.615 287.547 195.615 176.854 204.568C152.255 206.557 132.661 226.016 130.375 250.589C121.094 350.271 121.094 449.953 130.375 549.641C132.661 574.214 152.255 593.672 176.854 595.661C287.547 604.615 398.234 604.615 508.927 595.661C533.526 593.672 553.12 574.214 555.406 549.641C564.687 449.953 564.687 350.271 555.406 250.589C553.12 226.016 533.526 206.557 508.927 204.568Z" fill="#ACC1D3" fill-opacity="0.99"/>
<path d="M470.432 415.318L420.276 428.755L370.667 400.115L420.276 371.469L470.432 384.911C471.635 385.234 472.844 385.385 474.036 385.385C480.167 385.385 485.781 381.297 487.443 375.089C489.427 367.682 485.031 360.068 477.62 358.078L454.297 351.828L475.031 339.854C481.677 336.021 483.953 327.526 480.114 320.885C476.281 314.24 467.786 311.964 461.146 315.802L440.406 327.776L446.656 304.448C448.641 297.036 444.245 289.422 436.833 287.437C429.432 285.453 421.812 289.849 419.823 297.26L406.385 347.417L356.776 376.057V318.776L393.495 282.057C398.917 276.635 398.917 267.839 393.495 262.417C388.068 256.99 379.276 256.99 373.854 262.417L356.776 279.49V255.542C356.776 247.87 350.557 241.656 342.885 241.656C335.219 241.656 329 247.87 329 255.542V279.49L311.922 262.417C306.5 256.99 297.708 256.99 292.281 262.417C286.859 267.839 286.859 276.635 292.281 282.057L329 318.776V376.057L279.391 347.417L265.953 297.26C263.963 289.849 256.349 285.448 248.943 287.437C241.531 289.422 237.135 297.036 239.12 304.448L245.37 327.776L224.63 315.802C217.99 311.969 209.495 314.24 205.656 320.885C201.823 327.526 204.099 336.021 210.74 339.854L231.479 351.828L208.156 358.078C200.745 360.062 196.349 367.682 198.333 375.089C199.995 381.297 205.609 385.385 211.74 385.385C212.927 385.385 214.141 385.234 215.344 384.911L265.505 371.474L315.109 400.115L265.505 428.755L215.344 415.312C207.932 413.328 200.318 417.724 198.333 425.135C196.349 432.547 200.745 440.161 208.156 442.146L231.479 448.396L210.74 460.37C204.099 464.203 201.823 472.698 205.656 479.344C208.229 483.797 212.901 486.286 217.698 486.286C220.052 486.286 222.443 485.687 224.63 484.427L245.37 472.453L239.12 495.776C237.135 503.187 241.531 510.802 248.943 512.786C250.146 513.109 251.354 513.266 252.547 513.266C258.677 513.266 264.292 509.172 265.953 502.969L279.391 452.807L329 424.167V481.448L292.281 518.167C286.859 523.594 286.859 532.385 292.281 537.807C297.708 543.234 306.5 543.234 311.922 537.807L329 520.734V544.682C329 552.354 335.219 558.573 342.885 558.573C350.557 558.573 356.776 552.354 356.776 544.682V520.734L373.854 537.807C376.562 540.521 380.12 541.88 383.672 541.88C387.229 541.88 390.781 540.521 393.495 537.807C398.917 532.385 398.917 523.594 393.495 518.167L356.776 481.448V424.167L406.385 452.807L419.823 502.969C421.484 509.172 427.099 513.266 433.229 513.266C434.422 513.266 435.63 513.109 436.833 512.786C444.245 510.802 448.641 503.187 446.656 495.776L440.406 472.453L461.146 484.427C463.333 485.687 465.719 486.286 468.073 486.286C472.875 486.286 477.542 483.797 480.114 479.344C483.953 472.698 481.677 464.203 475.031 460.37L454.292 448.396L477.62 442.146C485.031 440.161 489.427 432.547 487.443 425.135C485.458 417.724 477.838 413.328 470.432 415.318Z" fill="white" fill-opacity="0.99"/>
</g>
<defs>
<clipPath id="clip0_35_452">
<rect width="682.667" height="682.667" fill="white" transform="translate(0.5 0.5)"/>
</clipPath>
</defs>
</svg>
