<svg width="512" height="512" viewBox="0 0 512 512" fill="none" xmlns="http://www.w3.org/2000/svg">
<path d="M452.011 414C482.769 373.052 501 322.156 501 267C501 131.69 391.31 22 256 22C120.69 22 11 131.69 11 267C11 322.156 29.231 373.052 59.989 414H452.011Z" fill="#ABBFD3"/>
<path d="M328.194 90H383.194C391.478 90 398.194 96.716 398.194 105C398.194 113.284 391.478 120 383.194 120H293.5V150H471.308C451.33 113.314 422.246 82.308 387.096 60H328.195C319.911 60 313.195 66.716 313.195 75C313.195 83.284 319.91 90 328.194 90Z" fill="#8A8488"/>
<path d="M338.747 246.415C342.93 245.012 347.372 244.261 351.957 244.261C356.541 244.261 360.983 245.011 365.166 246.414L384.392 183.911C391.104 162.09 374.787 139.999 351.957 139.999C329.126 139.999 312.81 162.09 319.522 183.911L338.747 246.415Z" fill="#7A7E6D"/>
<path d="M346.51 244.625C348.299 244.392 350.116 244.262 351.958 244.262C353.799 244.262 355.615 244.393 357.404 244.625L367.945 158.053C369.113 148.457 361.624 140 351.957 140C342.29 140 334.801 148.456 335.969 158.053L346.51 244.625Z" fill="#5B5A36"/>
<path d="M104.171 221H76.75V172C76.75 154.327 62.423 140 44.75 140C27.077 140 12.75 154.327 12.75 172V243C12.75 260.673 27.077 275 44.75 275H107.85L104.171 221Z" fill="#7A7E6D"/>
<path d="M105.125 235H54.75V141.603C51.603 140.568 48.244 140.001 44.75 140.001C41.256 140.001 37.897 140.569 34.75 141.603V240C34.75 248.271 41.479 255 49.75 255H106.487L105.125 235Z" fill="#5B5A36"/>
<path d="M262.5 86C244.827 86 230.5 100.327 230.5 118V150H205.667L201.988 204H262.5C280.173 204 294.5 189.673 294.5 172V118C294.5 100.327 280.173 86 262.5 86Z" fill="#7A7E6D"/>
<path d="M262.5 86C259.006 86 255.647 86.568 252.5 87.602V163H204.781L203.418 183H257.5C265.771 183 272.5 176.271 272.5 168V87.602C269.353 86.568 265.994 86 262.5 86Z" fill="#5B5A36"/>
<path d="M116.318 414H188.682L212.475 64.805C215.185 29.855 187.556 0 152.5 0C117.444 0 89.815 29.855 92.525 64.805L116.318 414Z" fill="#919F86"/>
<path d="M135.679 414H169.321L180.415 48C181.676 13.049 168.817 0 152.5 0C136.183 0 123.324 13.049 124.585 48L135.679 414Z" fill="#5B5A36"/>
<path d="M183.349 47.333C184.599 46.083 186.022 44.97 187.578 44.023L188.982 43.169L187.578 42.315C186.021 41.368 184.598 40.254 183.349 39.005C180.719 36.375 178.827 33.181 177.765 29.728C170.5 31.207 164.276 35.545 160.323 41.523C159.665 42.517 159.665 43.821 160.323 44.815C164.276 50.793 170.5 55.131 177.765 56.61C178.827 53.158 180.719 49.963 183.349 47.333Z" fill="#B20000"/>
<path d="M198.836 23.519C200.085 24.768 201.198 26.19 202.146 27.748L203 29.153L203.854 27.748C204.8 26.191 205.915 24.769 207.165 23.519C209.799 20.885 212.975 18.988 216.44 17.927C214.96 10.665 210.622 4.44399 204.647 0.492994C203.653 -0.164006 202.35 -0.164006 201.355 0.492994C195.38 4.44399 191.042 10.665 189.562 17.927C193.026 18.988 196.201 20.884 198.836 23.519Z" fill="#B20000"/>
<path d="M207.165 62.82C205.915 61.57 204.801 60.147 203.854 58.591L203 57.185L202.146 58.59C201.199 60.148 200.085 61.571 198.836 62.819C196.202 65.453 193.026 67.349 189.561 68.41C191.041 75.672 195.379 81.893 201.354 85.844C202.349 86.502 203.652 86.502 204.646 85.844C210.622 81.893 214.959 75.672 216.439 68.41C212.974 67.35 209.799 65.454 207.165 62.82Z" fill="#B20000"/>
<path d="M245.676 41.523C241.723 35.545 235.499 31.206 228.234 29.728C227.172 33.181 225.28 36.375 222.65 39.005C221.402 40.254 219.979 41.367 218.421 42.315L217.017 43.169L218.421 44.023C219.979 44.97 221.4 46.084 222.65 47.333C225.28 49.963 227.172 53.157 228.234 56.61C235.499 55.131 241.724 50.793 245.676 44.815C246.334 43.821 246.334 42.518 245.676 41.523Z" fill="#B20000"/>
<path d="M218.941 43.169C220.512 42.214 222 41.07 223.358 39.712C229.056 34.015 231.207 26.118 229.821 18.756C229.592 17.538 228.632 16.578 227.414 16.349C220.051 14.964 212.155 17.115 206.458 22.812C205.1 24.17 203.956 25.658 203.001 27.229C202.046 25.658 200.902 24.17 199.544 22.812C193.847 17.115 185.95 14.963 178.588 16.349C177.37 16.578 176.41 17.538 176.181 18.756C174.796 26.119 176.947 34.015 182.644 39.712C184.002 41.07 185.49 42.214 187.061 43.169C185.49 44.124 184.002 45.268 182.644 46.626C176.946 52.323 174.795 60.22 176.181 67.582C176.41 68.8 177.37 69.76 178.588 69.989C185.951 71.374 193.847 69.223 199.544 63.526C200.902 62.168 202.046 60.68 203.001 59.109C203.956 60.68 205.1 62.168 206.458 63.526C212.155 69.223 220.052 71.375 227.414 69.989C228.632 69.76 229.592 68.8 229.821 67.582C231.206 60.219 229.055 52.323 223.358 46.626C222 45.268 220.511 44.124 218.941 43.169Z" fill="#FE646F"/>
<path d="M203 55.169C209.627 55.169 215 49.7964 215 43.169C215 36.5416 209.627 31.169 203 31.169C196.373 31.169 191 36.5416 191 43.169C191 49.7964 196.373 55.169 203 55.169Z" fill="#FFD15B"/>
<path d="M201.917 43.169C201.917 38.509 204.578 34.479 208.459 32.491C206.82 31.652 204.968 31.169 203.001 31.169C196.374 31.169 191.001 36.542 191.001 43.169C191.001 49.796 196.374 55.169 203.001 55.169C204.969 55.169 206.821 54.686 208.459 53.847C204.578 51.859 201.917 47.829 201.917 43.169Z" fill="#FFC344"/>
<path d="M184.442 95.974C185.424 95.377 186.355 94.661 187.204 93.812C190.509 90.507 191.906 86.019 191.399 81.712C191.235 80.314 190.134 79.213 188.736 79.049C184.429 78.542 179.941 79.939 176.636 83.244C175.787 84.093 175.071 85.024 174.474 86.006C173.877 85.024 173.161 84.093 172.312 83.244C169.007 79.939 164.519 78.542 160.212 79.049C158.814 79.213 157.713 80.314 157.549 81.712C157.042 86.019 158.439 90.508 161.744 93.812C162.593 94.661 163.524 95.377 164.506 95.974C163.524 96.571 162.593 97.287 161.744 98.136C158.439 101.441 157.042 105.929 157.549 110.236C157.713 111.634 158.814 112.735 160.212 112.899C164.519 113.406 169.007 112.009 172.312 108.704C173.161 107.855 173.877 106.924 174.474 105.942C175.071 106.924 175.787 107.855 176.636 108.704C179.941 112.009 184.429 113.406 188.736 112.899C190.134 112.735 191.235 111.634 191.399 110.236C191.906 105.929 190.509 101.44 187.204 98.136C186.355 97.286 185.424 96.571 184.442 95.974Z" fill="#FE646F"/>
<path d="M236.254 273.885L237.658 273.031L236.254 272.177C235.137 271.498 234.116 270.698 233.219 269.802C229.71 266.294 228.031 261.448 228.612 256.509C228.75 255.334 229.667 254.417 230.842 254.279C231.468 254.205 232.107 254.168 232.738 254.168C237.045 254.168 241.092 255.844 244.135 258.887C245.031 259.784 245.831 260.805 246.51 261.922L247.365 263.327L248.219 261.921C248.898 260.805 249.697 259.784 250.594 258.887C252.866 256.615 255.697 255.107 258.778 254.488L257.584 236.252C256.538 220.266 240.322 209.853 225.35 215.553C210.378 221.253 205.193 239.814 215.043 252.448L233.449 276.058C234.291 275.247 235.226 274.511 236.254 273.885Z" fill="#919F86"/>
<path d="M232.737 254.167C237.044 254.167 241.091 255.843 244.134 258.886C245.03 259.783 245.83 260.804 246.509 261.921L247.364 263.326L248.218 261.92C248.602 261.289 249.034 260.697 249.491 260.132L240.459 223.472C238.823 216.83 231.741 213.119 225.348 215.553C218.955 217.987 216.135 225.468 219.33 231.517L231.339 254.25C231.805 254.208 232.272 254.167 232.737 254.167Z" fill="#5B5A36"/>
<path d="M288.457 287.11C281.335 276.603 269.69 271.602 258.296 272.285L257.071 273.03L258.475 273.884C259.593 274.564 260.614 275.363 261.509 276.259C265.019 279.768 266.698 284.613 266.117 289.552C265.978 290.727 265.061 291.644 263.887 291.782C263.261 291.856 262.622 291.893 261.991 291.893C257.684 291.893 253.637 290.217 250.594 287.174C249.697 286.277 248.898 285.256 248.219 284.14L247.365 282.734L246.51 284.139C245.831 285.256 245.031 286.277 244.135 287.174C241.092 290.217 237.044 291.893 232.738 291.893C232.107 291.893 231.468 291.856 230.842 291.782C230.458 291.737 230.106 291.602 229.795 291.408C221.442 308.619 229.079 330.231 247.834 337.684L328.976 369.931L321.146 335.334L288.457 287.11Z" fill="#7A7E6D"/>
<path d="M261.999 291.894C261.996 291.894 261.994 291.894 261.991 291.894C257.684 291.894 253.637 290.218 250.594 287.175C249.697 286.278 248.898 285.257 248.219 284.141L247.365 282.735L246.51 284.14C245.831 285.257 245.031 286.278 244.135 287.175C241.092 290.218 237.044 291.894 232.738 291.894C232.18 291.894 231.618 291.854 231.062 291.796C230.538 296.608 232.632 301.57 237.019 304.434L327.526 363.524L325.358 353.947L261.999 291.894Z" fill="#5B5A36"/>
<path d="M462.894 254.793C447.628 249.936 432.017 261.236 431.863 277.256L431.519 313.028C432.908 312.783 434.321 312.614 435.758 312.545L436.979 312.486L436.68 311.301C436.187 309.342 436.051 307.372 436.278 305.446C436.417 304.271 437.334 303.354 438.508 303.216C439.134 303.142 439.773 303.105 440.404 303.105C444.711 303.105 448.758 304.781 451.801 307.824C452.698 308.72 453.497 309.741 454.176 310.858L455.03 312.264L455.885 310.859C456.565 309.741 457.364 308.72 458.26 307.824C460.591 305.492 463.515 303.972 466.69 303.384L475.241 291.056C484.372 277.893 478.161 259.65 462.894 254.793Z" fill="#919F86"/>
<path d="M440.403 303.105C444.71 303.105 448.757 304.781 451.8 307.824C452.141 308.165 452.453 308.539 452.764 308.914L470.308 271.834C473.503 265.08 470.013 257.059 462.893 254.793C455.773 252.528 448.289 257.058 446.995 264.416L440.186 303.117C440.259 303.117 440.332 303.105 440.403 303.105Z" fill="#5B5A36"/>
<path d="M469.656 340.833C465.35 340.833 461.302 339.157 458.26 336.114C457.364 335.217 456.564 334.196 455.885 333.079L455.03 331.674L454.176 333.08C453.497 334.196 452.698 335.217 451.801 336.114C448.758 339.157 444.711 340.834 440.405 340.834C439.773 340.834 439.135 340.796 438.509 340.723C437.333 340.585 436.415 339.668 436.278 338.493C435.697 333.554 437.377 328.709 440.886 325.2C441.782 324.304 442.803 323.505 443.92 322.825L445.324 321.971L443.92 321.117C442.802 320.437 441.781 319.638 440.886 318.742C438.85 316.706 437.452 314.213 436.732 311.52C427.329 311.69 417.951 315.713 411.269 323.762L375.689 366.62L367.951 400.806L446.793 378.041C463.689 373.163 473.222 356.764 471.003 340.756C470.553 340.791 470.104 340.833 469.656 340.833Z" fill="#7A7E6D"/>
<path d="M458.26 336.114C457.364 335.217 456.564 334.196 455.885 333.079L455.03 331.674L454.176 333.08C453.497 334.196 452.698 335.217 451.801 336.114C448.758 339.157 444.711 340.834 440.405 340.834C439.773 340.834 439.135 340.796 438.509 340.723C437.333 340.585 436.415 339.668 436.278 338.493C435.836 334.739 436.708 331.042 438.69 327.942L371.999 382.924L369.47 394.098L460.1 348.112C463.385 346.445 465.744 343.732 467.04 340.607C463.729 340.067 460.676 338.53 458.26 336.114Z" fill="#5B5A36"/>
<path d="M337.924 414H365.988L392.276 297.849C400.62 270.723 380.336 243.262 351.955 243.262C323.574 243.262 303.29 270.723 311.634 297.849L337.924 414Z" fill="#919F86"/>
<path d="M346.402 414H357.511L367.917 297.85C371.22 270.724 363.191 243.263 351.957 243.263C340.723 243.263 332.694 270.724 335.997 297.85L346.402 414Z" fill="#5B5A36"/>
<path d="M167.201 414L152.122 380.19C151.065 377.819 147.7 377.819 146.642 380.19L138.184 399.155L122.122 363.143C121.065 360.772 117.7 360.772 116.642 363.143L93.959 414H167.201Z" fill="#5B5A36"/>
<path d="M355.242 414L344.135 389.096C343.078 386.725 339.713 386.725 338.655 389.096L330.023 408.449L321.914 394.926C320.749 392.983 317.933 392.983 316.768 394.926L305.331 414H355.242Z" fill="#5B5A36"/>
<path d="M360.128 244.735C361.102 243.762 362.21 242.895 363.423 242.157L364.828 241.303L363.423 240.449C362.209 239.711 361.101 238.844 360.128 237.871C358.084 235.827 356.611 233.344 355.783 230.661C349.967 231.785 344.981 235.236 341.827 240.005C341.309 240.789 341.309 241.816 341.827 242.6C344.981 247.369 349.967 250.82 355.783 251.944C356.611 249.261 358.083 246.779 360.128 244.735Z" fill="#E30200"/>
<path d="M372.036 225.961C373.009 226.933 373.876 228.041 374.614 229.255L375.468 230.66L376.322 229.255C377.059 228.043 377.926 226.934 378.9 225.961C380.948 223.913 383.416 222.439 386.109 221.611C384.984 215.797 381.534 210.812 376.765 207.66C375.981 207.142 374.954 207.142 374.17 207.66C369.402 210.813 365.952 215.797 364.826 221.611C367.521 222.439 369.988 223.914 372.036 225.961Z" fill="#E30200"/>
<path d="M378.901 256.644C377.926 255.669 377.059 254.561 376.323 253.35L375.469 251.945L374.615 253.35C373.877 254.563 373.01 255.672 372.037 256.644C369.989 258.692 367.521 260.166 364.829 260.994C365.954 266.808 369.405 271.793 374.173 274.945C374.957 275.463 375.984 275.463 376.768 274.945C381.536 271.792 384.987 266.808 386.112 260.994C383.417 260.166 380.949 258.691 378.901 256.644Z" fill="#E30200"/>
<path d="M409.111 240.005C405.957 235.236 400.971 231.785 395.155 230.661C394.327 233.344 392.854 235.827 390.81 237.871C389.836 238.844 388.728 239.711 387.516 240.449L386.111 241.303L387.516 242.157C388.728 242.894 389.835 243.761 390.81 244.735C392.854 246.779 394.327 249.261 395.155 251.945C400.971 250.821 405.957 247.37 409.111 242.601C409.629 241.816 409.629 240.789 409.111 240.005Z" fill="#E30200"/>
<path d="M388.035 241.302C389.273 240.549 390.446 239.647 391.517 238.577C396.008 234.086 397.704 227.861 396.612 222.057C396.431 221.097 395.675 220.34 394.714 220.159C388.91 219.067 382.685 220.763 378.194 225.254C377.124 226.324 376.221 227.498 375.469 228.736C374.716 227.498 373.814 226.325 372.744 225.254C368.253 220.763 362.028 219.067 356.224 220.159C355.264 220.34 354.507 221.096 354.326 222.057C353.234 227.861 354.93 234.086 359.421 238.577C360.491 239.647 361.664 240.549 362.903 241.302C361.665 242.055 360.492 242.957 359.421 244.027C354.93 248.518 353.234 254.743 354.326 260.547C354.507 261.507 355.263 262.264 356.224 262.445C362.028 263.537 368.253 261.841 372.744 257.35C373.814 256.28 374.717 255.106 375.469 253.868C376.222 255.106 377.124 256.279 378.194 257.35C382.685 261.841 388.91 263.537 394.714 262.445C395.674 262.264 396.431 261.508 396.612 260.547C397.704 254.743 396.008 248.518 391.517 244.027C390.447 242.957 389.273 242.055 388.035 241.302Z" fill="#DD644A"/>
<path d="M375.469 250.762C380.694 250.762 384.929 246.527 384.929 241.302C384.929 236.077 380.694 231.842 375.469 231.842C370.244 231.842 366.009 236.077 366.009 241.302C366.009 246.527 370.244 250.762 375.469 250.762Z" fill="#FFD15B"/>
<path d="M374.75 241.302C374.75 237.655 376.816 234.496 379.839 232.917C378.531 232.234 377.047 231.842 375.469 231.842C370.245 231.842 366.009 236.077 366.009 241.302C366.009 246.526 370.244 250.762 375.469 250.762C377.047 250.762 378.531 250.37 379.839 249.687C376.816 248.108 374.75 244.949 374.75 241.302Z" fill="#F7CE0E"/>
<path d="M258.994 273.031C260.14 272.334 261.226 271.499 262.216 270.509C266.072 266.653 267.701 261.417 267.11 256.392C266.918 254.761 265.634 253.477 264.003 253.285C258.978 252.694 253.742 254.324 249.886 258.179C248.895 259.17 248.061 260.255 247.364 261.401C246.667 260.255 245.832 259.169 244.842 258.179C240.986 254.323 235.75 252.694 230.725 253.285C229.094 253.477 227.81 254.761 227.618 256.392C227.027 261.417 228.656 266.653 232.512 270.509C233.503 271.5 234.588 272.334 235.734 273.031C234.588 273.728 233.502 274.563 232.512 275.553C228.656 279.409 227.027 284.645 227.618 289.67C227.81 291.301 229.094 292.585 230.725 292.777C235.75 293.368 240.986 291.738 244.842 287.883C245.833 286.892 246.668 285.807 247.364 284.661C248.061 285.807 248.896 286.893 249.886 287.883C253.742 291.739 258.978 293.368 264.003 292.777C265.634 292.585 266.918 291.301 267.11 289.67C267.701 284.645 266.072 279.409 262.216 275.553C261.225 274.562 260.14 273.727 258.994 273.031Z" fill="#BD031C"/>
<path d="M466.66 321.969C467.806 321.272 468.892 320.437 469.882 319.447C473.738 315.591 475.367 310.355 474.776 305.33C474.584 303.699 473.3 302.415 471.669 302.223C466.644 301.632 461.408 303.262 457.552 307.117C456.561 308.108 455.726 309.193 455.03 310.339C454.333 309.193 453.498 308.107 452.508 307.117C448.652 303.261 443.416 301.632 438.391 302.223C436.76 302.415 435.476 303.699 435.284 305.33C434.693 310.355 436.322 315.591 440.178 319.447C441.169 320.438 442.254 321.272 443.4 321.969C442.254 322.666 441.168 323.501 440.178 324.491C436.322 328.347 434.693 333.583 435.284 338.608C435.476 340.239 436.76 341.523 438.391 341.715C443.416 342.306 448.652 340.676 452.508 336.821C453.499 335.83 454.334 334.745 455.03 333.599C455.727 334.745 456.562 335.831 457.552 336.821C461.408 340.677 466.644 342.306 471.669 341.715C473.3 341.523 474.584 340.239 474.776 338.608C475.367 333.583 473.738 328.347 469.882 324.491C468.892 323.5 467.806 322.666 466.66 321.969Z" fill="#BD031C"/>
<path d="M256 512C336.601 512 408.105 473.074 452.756 413H59.244C103.895 473.074 175.399 512 256 512Z" fill="#4E4E36"/>
<path d="M177.917 455.5H166.25C162.108 455.5 158.75 452.142 158.75 448C158.75 443.858 162.108 440.5 166.25 440.5H177.917C182.059 440.5 185.417 443.858 185.417 448C185.417 452.142 182.059 455.5 177.917 455.5Z" fill="#87A184"/>
<path d="M245.25 478H233.583C229.441 478 226.083 474.642 226.083 470.5C226.083 466.358 229.441 463 233.583 463H245.25C249.392 463 252.75 466.358 252.75 470.5C252.75 474.642 249.392 478 245.25 478Z" fill="#87A184"/>
<path d="M307.583 445H295.916C291.774 445 288.416 441.642 288.416 437.5C288.416 433.358 291.774 430 295.916 430H307.583C311.725 430 315.083 433.358 315.083 437.5C315.083 441.642 311.725 445 307.583 445Z" fill="#87A184"/>
<path d="M118.25 438H106.583C102.441 438 99.083 434.642 99.083 430.5C99.083 426.358 102.441 423 106.583 423H118.25C122.392 423 125.75 426.358 125.75 430.5C125.75 434.642 122.392 438 118.25 438Z" fill="#87A184"/>
<path d="M369.25 467H357.583C353.441 467 350.083 463.642 350.083 459.5C350.083 455.358 353.441 452 357.583 452H369.25C373.392 452 376.75 455.358 376.75 459.5C376.75 463.642 373.392 467 369.25 467Z" fill="#87A184"/>
<path d="M410.25 186C414.392 186 417.75 182.642 417.75 178.5C417.75 174.358 414.392 171 410.25 171C406.108 171 402.75 174.358 402.75 178.5C402.75 182.642 406.108 186 410.25 186Z" fill="white"/>
<path d="M265.25 68C269.392 68 272.75 64.6421 272.75 60.5C272.75 56.3579 269.392 53 265.25 53C261.108 53 257.75 56.3579 257.75 60.5C257.75 64.6421 261.108 68 265.25 68Z" fill="white"/>
<path d="M326.25 127C330.392 127 333.75 123.642 333.75 119.5C333.75 115.358 330.392 112 326.25 112C322.108 112 318.75 115.358 318.75 119.5C318.75 123.642 322.108 127 326.25 127Z" fill="white"/>
</svg>
