<svg width="513" height="513" viewBox="0 0 513 513" fill="none" xmlns="http://www.w3.org/2000/svg">
<g clip-path="url(#clip0_35_402)">
<path d="M256.5 22.496C121.189 22.496 11.498 132.187 11.498 267.498C11.498 304.086 19.531 338.792 33.909 369.971L224.831 510.466C235.199 511.805 245.768 512.5 256.5 512.5C391.811 512.5 501.502 402.809 501.502 267.498C501.502 132.187 391.811 22.496 256.5 22.496Z" fill="#ACC1D3" fill-opacity="0.99"/>
<path d="M290.351 345.556C276.72 330.687 279.461 309.071 280.017 305.558C283.4 302.565 304.844 282.911 300.357 269.703C298.121 263.121 290.01 259.391 276.252 258.617C263.395 257.894 254.276 253.503 249.15 245.566C240.902 232.795 244.788 213.804 247.319 204.915C219.659 203.029 191.761 217.955 179.029 245.653C176.833 250.431 174.535 254.755 172.297 258.583C165.281 270.584 152.939 278.376 139.108 279.773C135.133 280.174 131.25 280.695 127.464 281.302C126.567 290.674 126.748 307.288 136.621 319.674C144.698 329.809 157.611 334.947 175.002 334.947C193.341 334.947 207.154 339.928 216.059 349.754C228.09 363.029 227.161 381.08 227.013 383.112C225.931 385.991 216.278 413.255 230.273 433.732C238.026 445.076 251.53 451.997 270.477 454.437C271.392 451.676 272.204 448.855 272.894 445.969C274.937 437.422 276.63 428.119 277.623 418.287C279.02 404.455 286.812 392.114 298.813 385.098C302.642 382.86 306.966 380.562 311.743 378.366C321.318 373.965 329.367 367.75 335.723 360.36C315.08 360.849 299.835 355.901 290.351 345.556Z" fill="#5C658F" fill-opacity="0.99"/>
<path d="M337.753 272.185C330.606 263.162 322.397 253.851 312.969 244.424C303.541 234.996 294.231 226.786 285.208 219.64C273.316 210.221 259.537 205.454 245.77 204.827C241.701 219.239 234.771 257.786 276.167 260.113C327.147 262.98 278.628 304.78 278.628 304.78C278.628 304.78 267.245 362.68 334.363 361.889C356.434 337.708 359.66 299.845 337.753 272.185Z" fill="#AD565C" fill-opacity="0.99"/>
<path d="M270.94 452.995C204.645 444.635 228.488 383.447 228.488 383.447C228.488 383.447 233.5 333.447 175 333.447C128.678 333.447 127.5 296.46 129.017 281.058C122.876 281.995 116.987 283.171 111.424 284.501C68.883 294.673 39.569 330.003 33.909 369.971C68.487 444.955 139.826 499.495 224.831 510.466C246.071 498.099 263.014 478.142 270.94 452.995Z" fill="#AD565C" fill-opacity="0.99"/>
<path d="M155.449 459.693L97.7 401.944C91.502 395.746 91.502 385.605 97.7 379.408L99.108 378C105.306 371.802 115.447 371.802 121.644 378L179.393 435.749C185.59 441.947 185.59 452.088 179.393 458.285L177.984 459.694C171.788 465.891 161.647 465.891 155.449 459.693Z" fill="#9A4916" fill-opacity="0.99"/>
<path d="M299.677 254.446C305.281 260.944 314.517 263.802 327.147 262.98L406.869 183.257C405.967 182.628 405.099 181.929 404.296 181.125L376.267 153.096C375.464 152.293 374.764 151.425 374.135 150.522L294.167 230.49C293.463 235.196 292.72 246.378 299.677 254.446Z" fill="#F4D009" fill-opacity="0.99"/>
<path d="M228.488 296.171C235.971 298.448 243.021 302.538 248.938 308.455C254.855 314.372 258.945 321.422 261.222 328.905L328.767 261.36C287.201 265.106 296.034 228.625 296.034 228.625L228.488 296.171Z" fill="#EA9810" fill-opacity="0.99"/>
<path d="M442.33 149.579L407.814 115.063C403.579 110.828 401.99 104.91 403.046 99.412L374.389 128.069C366.99 135.469 366.99 147.577 374.389 154.976L402.418 183.004C409.817 190.404 421.926 190.404 429.325 183.004L457.982 154.347C452.483 155.403 446.565 153.814 442.33 149.579Z" fill="#F4D009" fill-opacity="0.99"/>
<path d="M446.516 82.849C439.117 75.45 427.008 75.45 419.609 82.849L402.5 99.958C401.423 105.504 403.02 111.479 407.293 115.751L441.643 150.101C445.916 154.374 451.89 155.97 457.436 154.893L474.545 137.784C481.944 130.384 481.944 118.276 474.545 110.877L446.516 82.849Z" fill="#EFDB61" fill-opacity="0.99"/>
<path d="M215.98 390.678C243.188 390.678 265.245 368.621 265.245 341.413C265.245 314.205 243.188 292.148 215.98 292.148C188.772 292.148 166.715 314.205 166.715 341.413C166.715 368.621 188.772 390.678 215.98 390.678Z" fill="#9A4916" fill-opacity="0.99"/>
<path d="M144.308 68.104C143.549 68.104 72.501 76.643 72.4 76.655C66.71 76.655 62.055 81.31 62.055 87V183.82C62.055 189.195 66.02 193.912 71.37 194.437C77.517 195.04 82.745 190.172 82.745 184.143V107.726C82.745 105.46 84.439 103.553 86.689 103.285L128.963 98.258C131.623 97.942 133.963 100.02 133.963 102.699V175.592C133.963 181.282 138.618 185.937 144.308 185.937C149.998 185.937 154.653 181.282 154.653 175.592V78.449C154.653 72.759 149.998 68.104 144.308 68.104Z" fill="#829E76" fill-opacity="0.99"/>
<path d="M81.9619 190.232C85.4954 175.284 76.242 160.301 61.2939 156.768C46.3458 153.234 31.3635 162.488 27.83 177.436C24.2966 192.384 33.55 207.366 48.4981 210.9C63.4462 214.433 78.4285 205.18 81.9619 190.232Z" fill="#829E76" fill-opacity="0.99"/>
<path d="M137.56 200.907C151.755 195.023 158.492 178.746 152.608 164.551C146.724 150.355 130.447 143.618 116.252 149.501C102.058 155.385 95.3204 171.663 101.204 185.858C107.088 200.053 123.365 206.791 137.56 200.907Z" fill="#829E76" fill-opacity="0.99"/>
<path d="M321.863 0.5C321.104 0.5 250.056 9.039 249.955 9.052C244.265 9.052 239.61 13.707 239.61 19.397V116.217C239.61 121.592 243.575 126.309 248.925 126.834C255.072 127.437 260.3 122.569 260.3 116.54V40.123C260.3 37.857 261.994 35.95 264.244 35.682L306.518 30.655C309.178 30.339 311.518 32.417 311.518 35.096V107.989C311.518 113.679 316.173 118.334 321.863 118.334C327.553 118.334 332.208 113.679 332.208 107.989V10.845C332.208 5.155 327.553 0.5 321.863 0.5Z" fill="#E1504E" fill-opacity="0.99"/>
<path d="M232.483 143.987C247.845 143.987 260.299 131.533 260.299 116.171C260.299 100.809 247.845 88.355 232.483 88.355C217.121 88.355 204.667 100.809 204.667 116.171C204.667 131.533 217.121 143.987 232.483 143.987Z" fill="#E1504E" fill-opacity="0.99"/>
<path d="M304.391 135.436C319.754 135.436 332.208 122.982 332.208 107.619C332.208 92.2561 319.754 79.802 304.391 79.802C289.028 79.802 276.574 92.2561 276.574 107.619C276.574 122.982 289.028 135.436 304.391 135.436Z" fill="#E1504E" fill-opacity="0.99"/>
<path d="M470.244 308.943L413.377 289.05C406.866 286.772 399.751 291.179 399.751 298.501V397.082C399.751 402.555 403.789 407.358 409.235 407.892C415.494 408.506 420.817 403.55 420.817 397.411V325.608C420.817 323.982 422.418 322.839 423.956 323.367L440.005 328.882C451.067 332.683 463.297 330.711 472.603 323.625C477.965 319.543 476.616 311.134 470.244 308.943Z" fill="#F4D009" fill-opacity="0.99"/>
<path d="M412.434 417.057C423.493 405.999 423.493 388.069 412.434 377.01C401.376 365.951 383.446 365.951 372.387 377.01C361.328 388.069 361.328 405.999 372.387 417.057C383.446 428.116 401.376 428.116 412.434 417.057Z" fill="#F4D009" fill-opacity="0.99"/>
</g>
<defs>
<clipPath id="clip0_35_402">
<rect width="512" height="512" fill="white" transform="translate(0.5 0.5)"/>
</clipPath>
</defs>
</svg>
