<svg width="512" height="512" viewBox="0 0 512 512" fill="none" xmlns="http://www.w3.org/2000/svg">
<g clip-path="url(#clip0_25_20)">
<path d="M512 256C512 272.543 510.431 288.72 507.433 304.389C506.629 308.592 498.821 309.341 497.814 313.468C485.888 362.352 459.927 405.735 424.441 439.106C421.906 441.49 426.224 447.24 423.593 449.52C399.253 470.617 370.894 487.199 339.816 497.963C336.486 499.116 336.248 490.475 332.857 491.494C309.508 498.505 284.755 502.272 259.122 502.272C233.098 502.272 207.98 498.389 184.318 491.17C181.289 490.246 175.161 498.995 172.181 497.963C141.104 487.199 112.744 470.617 88.404 449.52C85.597 447.087 89.119 440.396 86.421 437.845C50.28 403.671 24.091 359.078 12.66 308.872C12.005 305.996 5.124 307.301 4.567 304.389C1.569 288.72 0 272.543 0 256C0 239.457 1.569 223.28 4.567 207.611C5.321 203.671 13.515 204.66 14.447 200.787C26.4 151.111 52.839 107.077 89.044 73.403C91.246 71.355 86.133 64.449 88.406 62.479C112.746 41.382 141.105 24.8 172.183 14.036C176.523 12.533 181.586 22.655 186.029 21.382C208.467 14.954 232.167 11.511 256.671 11.511C280.688 11.511 303.932 14.818 325.974 21.002C330.873 22.377 335.044 12.381 339.82 14.035C370.897 24.799 399.257 41.381 423.596 62.478C427.142 65.551 422.427 73.27 425.798 76.531C459.859 109.479 484.799 151.799 496.462 199.334C497.501 203.569 506.61 203.295 507.435 207.61C510.431 223.28 512 239.457 512 256Z" fill="#E66A21"/>
<path d="M507.433 207.611L265.826 256L507.433 304.389C496.425 361.928 466.157 412.628 423.594 449.521L260.913 264.51L339.817 497.963C313.557 507.059 285.355 512 256 512C226.645 512 198.443 507.059 172.182 497.963L251.086 264.51L88.406 449.521C45.843 412.628 15.575 361.929 4.56702 304.389L246.174 256L4.56702 207.611C15.574 150.072 45.843 99.372 88.406 62.479L251.087 247.49L172.182 14.037C198.443 4.941 226.645 0 256 0C285.355 0 313.557 4.941 339.818 14.037L260.913 247.49L423.594 62.479C466.157 99.372 496.426 150.072 507.433 207.611Z" fill="#FB980D"/>
<path d="M199.178 91.685C199.178 108.254 185.747 121.685 169.178 121.685H72.208C55.639 121.685 42.208 108.253 42.208 91.685C42.208 76.254 53.858 63.545 68.843 61.872C68.843 61.81 68.842 61.747 68.842 61.685C68.842 45.117 82.273 31.685 98.842 31.685H142.545C159.113 31.685 172.545 45.116 172.545 61.685C172.545 61.747 172.544 61.81 172.544 61.872C187.527 63.544 199.178 76.254 199.178 91.685Z" fill="#F8D462"/>
<path d="M226.048 91.685C226.048 108.254 212.617 121.685 196.048 121.685H107.963C91.395 121.685 77.963 108.253 77.963 91.685C77.963 76.775 88.84 64.406 103.092 62.079C103.09 61.948 103.09 61.817 103.09 61.685C103.09 45.117 116.521 31.685 133.09 31.685H170.922C187.491 31.685 200.922 45.116 200.922 61.685C200.922 61.816 200.921 61.948 200.92 62.079C215.171 64.406 226.048 76.775 226.048 91.685Z" fill="#F9F4CE"/>
<path d="M342.158 309.623C324.222 338.381 292.288 357.507 255.889 357.468C200.216 357.408 154.591 311.783 154.532 256.111C154.493 219.744 173.587 187.834 202.303 169.889C202.87 169.535 203.546 170.178 203.22 170.762C194.764 185.934 190.089 203.502 190.468 222.19C191.564 276.314 235.686 320.435 289.81 321.532C308.524 321.911 326.114 317.222 341.301 308.745C341.872 308.426 342.504 309.068 342.158 309.623Z" fill="#F8D458"/>
<path d="M357.468 256C357.468 275.782 351.807 294.241 342.017 309.847C326.411 319.637 307.952 325.298 288.17 325.298C232.131 325.298 186.702 279.869 186.702 223.83C186.702 204.048 192.363 185.589 202.153 169.983C217.759 160.193 236.218 154.532 256 154.532C312.039 154.532 357.468 199.961 357.468 256Z" fill="#F9F4CE"/>
<path d="M263.5 31V131C263.5 135.143 260.143 138.5 256 138.5C251.858 138.5 248.5 135.143 248.5 131V31C248.5 26.857 251.858 23.5 256 23.5C260.143 23.5 263.5 26.857 263.5 31ZM256 373.5C251.858 373.5 248.5 376.857 248.5 381V481C248.5 485.143 251.858 488.5 256 488.5C260.143 488.5 263.5 485.143 263.5 481V381C263.5 376.857 260.143 373.5 256 373.5ZM151.497 187.005L64.894 137.005C61.307 134.935 56.72 136.162 54.649 139.75C52.578 143.337 53.807 147.924 57.394 149.995L143.997 199.995C145.178 200.677 146.468 201.001 147.74 201.001C150.332 201.001 152.853 199.656 154.242 197.25C156.313 193.663 155.084 189.076 151.497 187.005ZM454.605 362.005L368.002 312.005C364.413 309.934 359.827 311.162 357.757 314.75C355.686 318.337 356.915 322.924 360.502 324.995L447.105 374.995C448.287 375.677 449.576 376.001 450.848 376.001C453.44 376.001 455.961 374.656 457.35 372.25C459.422 368.663 458.192 364.076 454.605 362.005ZM143.997 312.005L57.394 362.005C53.807 364.076 52.578 368.663 54.649 372.25C56.038 374.656 58.559 376.001 61.151 376.001C62.423 376.001 63.713 375.677 64.894 374.995L151.497 324.995C155.084 322.924 156.313 318.337 154.242 314.75C152.171 311.163 147.583 309.935 143.997 312.005ZM364.26 201.001C365.532 201.001 366.822 200.677 368.003 199.995L454.606 149.995C458.193 147.924 459.422 143.337 457.351 139.75C455.281 136.162 450.691 134.936 447.106 137.005L360.503 187.005C356.916 189.076 355.687 193.663 357.758 197.25C359.146 199.656 361.668 201.001 364.26 201.001Z" fill="white"/>
<path d="M164.344 112.246C162.273 108.659 163.502 104.072 167.089 102.001C170.675 99.932 175.263 101.158 177.334 104.746L201.296 146.25C203.367 149.837 202.138 154.424 198.551 156.495C197.37 157.177 196.08 157.501 194.808 157.501C192.216 157.501 189.695 156.156 188.306 153.75L164.344 112.246ZM322.539 356.25C320.467 352.662 315.879 351.435 312.294 353.505C308.707 355.576 307.478 360.163 309.549 363.75L334.666 407.254C336.056 409.66 338.576 411.005 341.168 411.005C342.44 411.005 343.73 410.681 344.911 409.999C348.498 407.928 349.727 403.341 347.656 399.754L322.539 356.25ZM130 248.5H85.677C81.535 248.5 78.177 251.857 78.177 256C78.177 260.143 81.535 263.5 85.677 263.5H130C134.142 263.5 137.5 260.143 137.5 256C137.5 251.857 134.142 248.5 130 248.5ZM426.322 248.5H380C375.857 248.5 372.5 251.857 372.5 256C372.5 260.143 375.857 263.5 380 263.5H426.322C430.465 263.5 433.822 260.143 433.822 256C433.822 251.857 430.465 248.5 426.322 248.5ZM199.706 353.505C196.118 351.434 191.532 352.662 189.461 356.25L164.344 399.754C162.273 403.341 163.502 407.928 167.089 409.999C168.27 410.681 169.56 411.005 170.832 411.005C173.424 411.005 175.945 409.66 177.334 407.254L202.451 363.75C204.522 360.163 203.293 355.576 199.706 353.505ZM344.911 102.001C341.322 99.931 336.736 101.158 334.666 104.746L310.704 146.25C308.633 149.837 309.862 154.424 313.449 156.495C314.631 157.177 315.92 157.501 317.192 157.501C319.784 157.501 322.305 156.156 323.694 153.75L347.656 112.246C349.728 108.659 348.498 104.072 344.911 102.001Z" fill="#F9F4CE"/>
<path d="M395.128 457.911H359.225C342.656 457.911 329.225 444.48 329.225 427.911C329.225 411.342 342.656 397.911 359.225 397.911H395.128C411.697 397.911 425.128 411.342 425.128 427.911C425.128 444.479 411.696 457.911 395.128 457.911ZM423.537 101H392.632C381.586 101 372.632 92.046 372.632 81C372.632 69.954 381.586 61 392.632 61H423.537C434.583 61 443.537 69.954 443.537 81C443.537 92.046 434.583 101 423.537 101ZM357.906 48.509H327.001C315.955 48.509 307.001 39.555 307.001 28.509C307.001 17.463 315.955 8.509 327.001 8.509H357.906C368.952 8.509 377.906 17.463 377.906 28.509C377.906 39.555 368.952 48.509 357.906 48.509Z" fill="#F8D462"/>
<path d="M424.789 457.911H388.886C372.317 457.911 358.886 444.48 358.886 427.911C358.886 411.342 372.317 397.911 388.886 397.911H424.789C441.358 397.911 454.789 411.342 454.789 427.911C454.789 444.479 441.358 457.911 424.789 457.911ZM452.133 101H419.368C408.322 101 399.368 92.046 399.368 81C399.368 69.954 408.322 61 419.368 61H452.133C463.179 61 472.133 69.954 472.133 81C472.133 92.046 463.178 101 452.133 101ZM386.502 48.509H353.737C342.691 48.509 333.737 39.555 333.737 28.509C333.737 17.463 342.691 8.509 353.737 8.509H386.502C397.548 8.509 406.502 17.463 406.502 28.509C406.502 39.555 397.548 48.509 386.502 48.509Z" fill="#F9F4CE"/>
</g>
<defs>
<clipPath id="clip0_25_20">
<rect width="512" height="512" fill="white"/>
</clipPath>
</defs>
</svg>
