<svg width="513" height="513" viewBox="0 0 513 513" fill="none" xmlns="http://www.w3.org/2000/svg">
<g clip-path="url(#clip0_35_360)">
<path d="M512.5 256.5C512.5 280.1 509.31 302.95 503.32 324.65C434.77 349.733 430.11 368.003 407.95 395.143C399.2 405.863 436.53 439.021 426.18 448.19C420.34 453.37 414.25 458.28 407.95 462.91C403.25 466.365 398.085 455.27 393.15 458.402C388.215 461.534 383.51 478.895 378.35 481.69C342.12 501.34 300.61 512.5 256.5 512.5C212.11 512.5 170.35 501.2 133.96 481.32C128.8 478.5 124.096 456.015 119.16 452.86C114.224 449.705 109.055 465.88 104.36 462.4C98.3 457.92 92.45 453.18 86.82 448.19C76.47 439.02 103.6 387.806 94.85 377.086C72.69 349.946 35.941 349.726 9.68 324.65C3.69 302.95 0.5 280.1 0.5 256.5C0.5 172.1 41.35 97.23 104.36 50.6C113.75 43.65 123.64 37.32 133.96 31.69C170.35 11.8 212.11 0.5 256.5 0.5C300.61 0.5 342.12 11.66 378.35 31.31C388.67 36.9 398.56 43.18 407.95 50.09C471.35 96.69 512.5 171.79 512.5 256.5Z" fill="#321B25" fill-opacity="0.99"/>
<path d="M503.32 324.65C489.98 373.1 462.75 415.79 426.18 448.19L405.3 452.86L384.02 355.31L440.32 300.8L464.63 319.43C469.04 322.81 474.45 324.65 480.01 324.65H503.32Z" fill="#F8E5C2" fill-opacity="0.99"/>
<path d="M441.179 429.523V324.649H415.69L395.122 406.18L415.69 429.523H441.179Z" fill="#F6B072" fill-opacity="0.99"/>
<path d="M407.95 139.132V462.91C398.55 469.82 388.67 476.1 378.35 481.69V139.132C378.35 133.822 382.66 129.512 387.98 129.512H398.33C403.64 129.512 407.95 133.822 407.95 139.132Z" fill="#646467" fill-opacity="0.99"/>
<path d="M426.18 448.19L405.3 452.86V428L432.97 421.81C438.87 420.49 446.43 419.31 454.89 418.3L426.18 448.19Z" fill="#F6B072" fill-opacity="0.99"/>
<path d="M426.434 435.676C426.434 445.17 418.738 452.866 409.244 452.866H367.416C357.922 452.866 350.226 445.17 350.226 435.676C350.226 426.182 357.922 418.486 367.416 418.486H409.244C418.738 418.486 426.434 426.182 426.434 435.676Z" fill="#F8E5C2" fill-opacity="0.99"/>
<path d="M430.107 332.536C430.107 342.03 422.411 349.726 412.917 349.726H363.019C353.525 349.726 345.829 342.03 345.829 332.536C345.829 323.042 353.525 315.346 363.019 315.346H412.917C422.411 315.346 430.107 323.042 430.107 332.536Z" fill="#F8E5C2" fill-opacity="0.99"/>
<path d="M434.77 401.296C434.77 410.79 427.074 418.486 417.58 418.486H359.079C349.585 418.486 341.889 410.79 341.889 401.296C341.889 391.802 349.585 384.106 359.079 384.106H417.58C427.074 384.106 434.77 391.802 434.77 401.296Z" fill="#F8E5C2" fill-opacity="0.99"/>
<path d="M425.296 429.523C426.029 431.429 426.43 433.509 426.43 435.676C426.43 445.177 418.733 452.866 409.24 452.866H367.415C357.922 452.866 350.225 445.177 350.225 435.676C350.225 433.51 350.627 431.43 351.359 429.523C353.833 435.983 360.088 440.56 367.415 440.56H409.24C416.567 440.56 422.823 435.983 425.296 429.523Z" fill="#F6B072" fill-opacity="0.99"/>
<path d="M428.968 326.382C429.701 328.296 430.102 330.368 430.102 332.543C430.102 342.036 422.413 349.733 412.912 349.733H363.02C353.527 349.733 345.83 342.036 345.83 332.543C345.83 330.369 346.232 328.297 346.964 326.382C349.438 332.842 355.693 337.419 363.02 337.419H412.912C420.239 337.419 426.494 332.842 428.968 326.382Z" fill="#F6B072" fill-opacity="0.99"/>
<path d="M433.632 395.142C434.365 397.056 434.766 399.128 434.766 401.303C434.766 410.796 427.077 418.485 417.576 418.485H359.081C349.588 418.485 341.891 410.796 341.891 401.303C341.891 399.129 342.293 397.057 343.025 395.142C345.499 401.602 351.754 406.179 359.081 406.179H417.576C424.903 406.18 431.158 401.603 433.632 395.142Z" fill="#F6B072" fill-opacity="0.99"/>
<path d="M434.77 366.916C434.77 376.41 427.074 384.106 417.58 384.106H359.079C349.585 384.106 341.889 376.41 341.889 366.916C341.889 357.422 349.585 349.726 359.079 349.726H417.58C427.074 349.726 434.77 357.422 434.77 366.916Z" fill="#F8E5C2" fill-opacity="0.99"/>
<path d="M433.63 360.763C434.363 362.677 434.764 364.749 434.764 366.924C434.764 376.417 427.075 384.106 417.574 384.106H359.079C349.586 384.106 341.889 376.417 341.889 366.924C341.889 364.75 342.291 362.678 343.023 360.763C345.497 367.223 351.752 371.8 359.079 371.8H417.574C424.901 371.8 431.156 367.223 433.63 360.763Z" fill="#F6B072" fill-opacity="0.99"/>
<path d="M400.655 297.036H429.032C439.423 297.036 447.853 305.458 447.853 315.857C447.853 329.25 435.768 339.405 422.572 337.089L420.272 336.687V350.222C420.272 363.843 409.227 374.889 395.605 374.889H395.046C389.161 374.889 384.387 370.115 384.387 364.23V313.298H384.395C384.394 304.315 391.673 297.036 400.655 297.036Z" fill="#F8E5C2" fill-opacity="0.99"/>
<path d="M446.387 308.562C447.332 310.807 447.852 313.273 447.852 315.857C447.852 329.25 435.767 339.405 422.571 337.089L420.271 336.687V350.222C420.271 363.843 409.226 374.888 395.604 374.888H395.045C389.16 374.888 384.386 370.114 384.386 364.229V349.103C384.386 354.988 389.16 359.762 395.045 359.762H395.604C409.225 359.762 420.271 348.717 420.271 335.096V321.56L422.571 321.962C433.034 323.798 442.795 317.803 446.387 308.562Z" fill="#F6B072" fill-opacity="0.99"/>
<path d="M128.98 355.31L107.7 452.86L86.82 448.19C50.25 415.79 23.02 373.1 9.67999 324.65H32.99C38.55 324.65 43.96 322.81 48.37 319.43L72.68 300.8L128.98 355.31Z" fill="#AD565C" fill-opacity="0.99"/>
<path d="M71.821 429.523V324.649H97.31L117.878 406.18L97.31 429.523H71.821Z" fill="#AD565C" fill-opacity="0.99"/>
<path d="M133.96 123.681V481.32C123.64 475.68 113.75 469.36 104.36 462.4V123.681C104.36 118.371 108.67 114.061 113.98 114.061H124.33C129.65 114.061 133.96 118.371 133.96 123.681Z" fill="#646467" fill-opacity="0.99"/>
<path d="M107.7 428V452.86L86.82 448.19C76.47 439.02 66.86 429.02 58.11 418.3C66.57 419.31 74.13 420.49 80.03 421.81L107.7 428Z" fill="#AD565C" fill-opacity="0.99"/>
<path d="M86.566 435.676C86.566 445.17 94.262 452.866 103.756 452.866H145.584C155.078 452.866 162.774 445.17 162.774 435.676C162.774 426.182 155.078 418.486 145.584 418.486H103.756C94.262 418.486 86.566 426.182 86.566 435.676Z" fill="#AD565C" fill-opacity="0.99"/>
<path d="M82.8929 332.536C82.8929 342.03 90.5889 349.726 100.083 349.726H149.981C159.475 349.726 167.171 342.03 167.171 332.536C167.171 323.042 159.475 315.346 149.981 315.346H100.083C90.5889 315.346 82.8929 323.042 82.8929 332.536Z" fill="#AD565C" fill-opacity="0.99"/>
<path d="M78.23 401.296C78.23 410.79 85.926 418.486 95.42 418.486H153.921C163.415 418.486 171.111 410.79 171.111 401.296C171.111 391.802 163.415 384.106 153.921 384.106H95.42C85.926 384.106 78.23 391.802 78.23 401.296Z" fill="#AD565C" fill-opacity="0.99"/>
<path d="M87.704 429.523C86.971 431.429 86.57 433.509 86.57 435.676C86.57 445.177 94.267 452.866 103.76 452.866H145.585C155.078 452.866 162.775 445.177 162.775 435.676C162.775 433.51 162.373 431.43 161.641 429.523C159.167 435.983 152.912 440.56 145.585 440.56H103.76C96.433 440.56 90.177 435.983 87.704 429.523Z" fill="#AD565C" fill-opacity="0.99"/>
<path d="M84.032 326.382C83.299 328.296 82.898 330.368 82.898 332.543C82.898 342.036 90.587 349.733 100.088 349.733H149.98C159.473 349.733 167.17 342.036 167.17 332.543C167.17 330.369 166.768 328.297 166.036 326.382C163.562 332.842 157.307 337.419 149.98 337.419H100.088C92.761 337.419 86.506 332.842 84.032 326.382Z" fill="#AD565C" fill-opacity="0.99"/>
<path d="M79.368 395.142C78.635 397.056 78.234 399.128 78.234 401.303C78.234 410.796 85.923 418.485 95.424 418.485H153.919C163.412 418.485 171.109 410.796 171.109 401.303C171.109 399.129 170.707 397.057 169.975 395.142C167.501 401.602 161.246 406.179 153.919 406.179H95.424C88.097 406.18 81.842 401.603 79.368 395.142Z" fill="#AD565C" fill-opacity="0.99"/>
<path d="M78.23 366.916C78.23 376.41 85.926 384.106 95.42 384.106H153.921C163.415 384.106 171.111 376.41 171.111 366.916C171.111 357.422 163.415 349.726 153.921 349.726H95.42C85.926 349.726 78.23 357.422 78.23 366.916Z" fill="#AD565C" fill-opacity="0.99"/>
<path d="M79.37 360.763C78.637 362.677 78.236 364.749 78.236 366.924C78.236 376.417 85.925 384.106 95.426 384.106H153.921C163.414 384.106 171.111 376.417 171.111 366.924C171.111 364.75 170.709 362.678 169.977 360.763C167.503 367.223 161.248 371.8 153.921 371.8H95.425C88.099 371.8 81.844 367.223 79.37 360.763Z" fill="#AD565C" fill-opacity="0.99"/>
<path d="M112.345 297.036H83.968C73.577 297.036 65.147 305.458 65.147 315.857C65.147 329.25 77.232 339.405 90.428 337.089L92.728 336.687V350.222C92.728 363.843 103.773 374.889 117.395 374.889H117.954C123.839 374.889 128.613 370.115 128.613 364.23V313.298H128.605C128.606 304.315 121.327 297.036 112.345 297.036Z" fill="#AD565C" fill-opacity="0.99"/>
<path d="M66.613 308.562C65.668 310.807 65.148 313.273 65.148 315.857C65.148 329.25 77.233 339.405 90.429 337.089L92.729 336.687V350.222C92.729 363.843 103.774 374.888 117.396 374.888H117.955C123.84 374.888 128.614 370.114 128.614 364.229V349.103C128.614 354.988 123.84 359.762 117.955 359.762H117.396C103.775 359.762 92.729 348.717 92.729 335.096V321.56L90.429 321.962C79.966 323.798 70.205 317.803 66.613 308.562Z" fill="#AD565C" fill-opacity="0.99"/>
<path d="M119.16 268.316C184.694 268.316 237.82 215.19 237.82 149.656C237.82 84.1219 184.694 30.996 119.16 30.996C53.6259 30.996 0.5 84.1219 0.5 149.656C0.5 215.19 53.6259 268.316 119.16 268.316Z" fill="#E1504E" fill-opacity="0.99"/>
<path d="M177.213 183.371L143.498 149.656L177.213 115.941C180.887 112.267 180.887 106.309 177.213 102.635L166.181 91.603C162.507 87.929 156.549 87.929 152.875 91.603L119.16 125.318L85.445 91.602C81.771 87.928 75.813 87.928 72.139 91.602L61.107 102.634C57.433 106.308 57.433 112.266 61.107 115.94L94.822 149.655L61.107 183.37C57.433 187.044 57.433 193.002 61.107 196.676L72.139 207.708C75.813 211.382 81.771 211.382 85.445 207.708L119.16 173.993L152.875 207.708C156.549 211.382 162.507 211.382 166.181 207.708L177.213 196.676C180.888 193.002 180.888 187.045 177.213 183.371Z" fill="white" fill-opacity="0.99"/>
<path d="M393.84 268.316C459.374 268.316 512.5 215.19 512.5 149.656C512.5 84.1219 459.374 30.996 393.84 30.996C328.306 30.996 275.18 84.1219 275.18 149.656C275.18 215.19 328.306 268.316 393.84 268.316Z" fill="#829E76" fill-opacity="0.99"/>
<path d="M407.22 267.566C402.83 268.066 398.36 268.316 393.84 268.316C328.31 268.316 275.18 215.186 275.18 149.656C275.18 84.116 328.31 30.996 393.84 30.996C398.36 30.996 402.83 31.246 407.22 31.746C347.98 38.386 301.94 88.636 301.94 149.656C301.94 210.666 347.98 260.926 407.22 267.566Z" fill="#829E76" fill-opacity="0.99"/>
<path d="M132.54 267.566C128.15 268.066 123.68 268.316 119.16 268.316C53.63 268.316 0.5 215.186 0.5 149.656C0.5 84.116 53.63 30.996 119.16 30.996C123.68 30.996 128.15 31.246 132.54 31.746C73.3 38.386 27.26 88.636 27.26 149.656C27.26 210.666 73.3 260.926 132.54 267.566Z" fill="#E1504E" fill-opacity="0.99"/>
<path d="M392.53 213.051C387.575 213.051 382.835 210.857 379.625 207.003L341.558 161.286C335.622 154.158 336.59 143.568 343.718 137.633C350.846 131.697 361.44 132.667 367.37 139.792L389.336 166.172L420.899 105.947C425.204 97.732 435.355 94.563 443.57 98.867C451.787 103.173 454.956 113.323 450.65 121.539L407.406 204.051C404.8 209.021 399.884 212.363 394.303 212.955C393.713 213.02 393.119 213.051 392.53 213.051Z" fill="white" fill-opacity="0.99"/>
</g>
<defs>
<clipPath id="clip0_35_360">
<rect width="512" height="512" fill="white" transform="translate(0.5 0.5)"/>
</clipPath>
</defs>
</svg>
